G04 MADE WITH FRITZING*
G04 WWW.FRITZING.ORG*
G04 DOUBLE SIDED*
G04 HOLES PLATED*
G04 CONTOUR ON CENTER OF CONTOUR VECTOR*
%ASAXBY*%
%FSLAX23Y23*%
%MOIN*%
%OFA0B0*%
%SFA1.0B1.0*%
%ADD10C,0.069055*%
%ADD11C,0.088000*%
%ADD12C,0.049370*%
%ADD13C,0.041496*%
%ADD14C,0.151732*%
%ADD15R,0.110000X0.110000*%
%ADD16R,0.112362X0.128110*%
%ADD17R,0.001000X0.001000*%
%LNMASK0*%
G90*
G70*
G54D10*
X1599Y268D03*
X1599Y418D03*
X1599Y568D03*
X1599Y718D03*
G54D11*
X749Y893D03*
X849Y893D03*
X949Y893D03*
X1049Y893D03*
X749Y893D03*
X849Y893D03*
X949Y893D03*
X1049Y893D03*
X1174Y1893D03*
X1374Y1893D03*
X1174Y1893D03*
X1374Y1893D03*
G54D12*
X637Y180D03*
X1249Y193D03*
X1474Y368D03*
X1399Y268D03*
X1424Y368D03*
X124Y868D03*
X1274Y768D03*
X849Y43D03*
X874Y518D03*
X799Y43D03*
X824Y68D03*
X674Y43D03*
X974Y43D03*
X1099Y643D03*
X916Y320D03*
X1424Y143D03*
X349Y168D03*
X449Y118D03*
X724Y368D03*
X1174Y243D03*
X724Y718D03*
X924Y543D03*
X574Y418D03*
X349Y418D03*
X99Y1093D03*
X874Y68D03*
X774Y68D03*
X899Y43D03*
X749Y43D03*
X924Y68D03*
X724Y68D03*
G54D13*
X914Y128D03*
X735Y128D03*
G54D12*
X1574Y818D03*
X199Y1493D03*
X1049Y493D03*
X1174Y668D03*
X199Y868D03*
X1049Y543D03*
X649Y818D03*
G54D14*
X1524Y1843D03*
X1524Y118D03*
X124Y1843D03*
X124Y118D03*
G54D15*
X574Y893D03*
X1574Y718D03*
X1574Y568D03*
X1574Y418D03*
X1574Y268D03*
G54D16*
X1374Y1893D03*
X1174Y1893D03*
G54D17*
D02*
G04 End of Mask0*
M02*