G04 MADE WITH FRITZING*
G04 WWW.FRITZING.ORG*
G04 DOUBLE SIDED*
G04 HOLES PLATED*
G04 CONTOUR ON CENTER OF CONTOUR VECTOR*
%ASAXBY*%
%FSLAX23Y23*%
%MOIN*%
%OFA0B0*%
%SFA1.0B1.0*%
%ADD10C,0.075000*%
%ADD11C,0.059055*%
%ADD12C,0.078000*%
%ADD13C,0.039370*%
%ADD14C,0.141732*%
%ADD15R,0.047244X0.021654*%
%ADD16R,0.059055X0.027559*%
%ADD17R,0.023622X0.039370*%
%ADD18R,0.031496X0.039370*%
%ADD19R,0.275590X0.078740*%
%ADD20R,0.047244X0.043307*%
%ADD21R,0.013780X0.055118*%
%ADD22R,0.070866X0.074803*%
%ADD23R,0.017716X0.045000*%
%ADD24R,0.045000X0.017716*%
%ADD25R,0.027559X0.035433*%
%ADD26R,0.024000X0.087000*%
%ADD27R,0.043307X0.047244*%
%ADD28R,0.035433X0.027559*%
%ADD29R,0.050000X0.100000*%
%ADD30R,0.100000X0.050000*%
%ADD31C,0.012000*%
%ADD32C,0.016000*%
%ADD33C,0.024000*%
%ADD34R,0.001000X0.001000*%
%LNCOPPER1*%
G90*
G70*
G54D10*
X1531Y1681D03*
X1042Y1232D03*
X95Y1257D03*
X1224Y1081D03*
X114Y693D03*
G54D11*
X1599Y268D03*
X1599Y418D03*
X1599Y568D03*
X1599Y718D03*
G54D12*
X749Y893D03*
X849Y893D03*
X949Y893D03*
X1049Y893D03*
X749Y893D03*
X849Y893D03*
X949Y893D03*
X1049Y893D03*
X1174Y1893D03*
X1374Y1893D03*
X1174Y1893D03*
X1374Y1893D03*
G54D13*
X637Y180D03*
X1249Y193D03*
X1474Y368D03*
X1399Y268D03*
X1424Y368D03*
X124Y868D03*
X1274Y768D03*
X849Y43D03*
X874Y518D03*
X799Y43D03*
X824Y68D03*
X674Y43D03*
X974Y43D03*
X1099Y643D03*
X916Y320D03*
X1424Y143D03*
X349Y168D03*
X449Y118D03*
X724Y368D03*
X1174Y243D03*
X724Y718D03*
X924Y543D03*
X574Y418D03*
X349Y418D03*
X99Y1093D03*
X874Y68D03*
X774Y68D03*
X899Y43D03*
X749Y43D03*
X924Y68D03*
X724Y68D03*
X1574Y818D03*
X199Y1493D03*
X1049Y493D03*
X1174Y668D03*
X199Y868D03*
X1049Y543D03*
X649Y818D03*
G54D14*
X1524Y1843D03*
X1524Y118D03*
X124Y1843D03*
X124Y118D03*
G54D15*
X149Y1018D03*
X149Y1055D03*
X149Y1093D03*
X47Y1093D03*
X47Y1018D03*
X47Y1055D03*
G54D16*
X124Y1484D03*
X124Y1543D03*
X124Y1661D03*
G54D17*
X16Y1429D03*
G54D18*
X99Y1429D03*
G54D17*
X16Y1716D03*
G54D18*
X99Y1716D03*
G54D19*
X824Y43D03*
G54D20*
X1196Y43D03*
X1263Y43D03*
G54D15*
X1202Y118D03*
X1202Y155D03*
X1202Y193D03*
X1099Y193D03*
X1099Y118D03*
G54D21*
X773Y143D03*
X875Y143D03*
X799Y143D03*
X824Y143D03*
X850Y143D03*
G54D22*
X667Y39D03*
X982Y39D03*
G54D23*
X1029Y724D03*
G54D24*
X984Y680D03*
G54D25*
X150Y943D03*
X99Y943D03*
G54D26*
X774Y424D03*
X774Y718D03*
X824Y424D03*
X874Y424D03*
X824Y718D03*
X874Y718D03*
X924Y424D03*
X924Y718D03*
G54D25*
X98Y793D03*
X149Y793D03*
G54D27*
X49Y801D03*
X49Y868D03*
G54D25*
X714Y593D03*
X663Y593D03*
X662Y543D03*
X713Y543D03*
X1125Y43D03*
X1074Y43D03*
G54D28*
X549Y93D03*
X549Y42D03*
X499Y42D03*
X499Y93D03*
X1024Y117D03*
X1024Y168D03*
G54D29*
X649Y693D03*
G54D30*
X88Y1343D03*
G54D29*
X499Y693D03*
G54D30*
X88Y1168D03*
G54D20*
X1032Y243D03*
X1099Y243D03*
X1032Y318D03*
X1099Y318D03*
G54D15*
X774Y355D03*
X774Y318D03*
X774Y280D03*
X877Y280D03*
X877Y355D03*
G54D31*
X1225Y268D02*
X1174Y317D01*
D02*
X1299Y268D02*
X1225Y268D01*
D02*
X1348Y218D02*
X1299Y268D01*
D02*
X1424Y218D02*
X1348Y218D01*
D02*
X1474Y268D02*
X1424Y218D01*
D02*
X1174Y317D02*
X1116Y259D01*
D02*
X1474Y354D02*
X1474Y268D01*
G54D32*
D02*
X1274Y769D02*
X1268Y780D01*
D02*
X1252Y730D02*
X1274Y769D01*
G54D31*
D02*
X149Y917D02*
X190Y877D01*
D02*
X1024Y522D02*
X1001Y522D01*
D02*
X150Y931D02*
X149Y917D01*
D02*
X1039Y534D02*
X1024Y522D01*
D02*
X574Y478D02*
X574Y431D01*
G54D32*
D02*
X663Y581D02*
X662Y555D01*
G54D31*
D02*
X674Y318D02*
X756Y318D01*
G54D32*
D02*
X724Y268D02*
X703Y247D01*
D02*
X756Y276D02*
X724Y268D01*
G54D31*
D02*
X584Y408D02*
X674Y318D01*
G54D32*
D02*
X876Y361D02*
X876Y386D01*
D02*
X1038Y155D02*
X1038Y161D01*
G54D31*
D02*
X524Y143D02*
X499Y118D01*
D02*
X575Y93D02*
X561Y93D01*
D02*
X625Y43D02*
X575Y93D01*
D02*
X499Y118D02*
X499Y101D01*
G54D32*
D02*
X1038Y161D02*
X1036Y162D01*
D02*
X1184Y155D02*
X1038Y155D01*
G54D31*
D02*
X1036Y117D02*
X1081Y118D01*
G54D32*
D02*
X874Y504D02*
X874Y462D01*
G54D31*
D02*
X692Y43D02*
X625Y43D01*
D02*
X572Y143D02*
X524Y143D01*
G54D32*
D02*
X1024Y193D02*
X1024Y176D01*
D02*
X899Y193D02*
X1024Y193D01*
G54D31*
D02*
X1074Y68D02*
X1074Y55D01*
D02*
X1092Y89D02*
X1074Y68D01*
D02*
X1174Y93D02*
X1092Y89D01*
D02*
X1178Y43D02*
X1134Y43D01*
D02*
X1196Y113D02*
X1174Y93D01*
G54D32*
D02*
X875Y167D02*
X899Y193D01*
D02*
X875Y165D02*
X875Y167D01*
G54D31*
D02*
X1275Y243D02*
X1300Y218D01*
D02*
X1300Y68D02*
X1281Y55D01*
D02*
X1024Y243D02*
X1032Y243D01*
D02*
X1024Y176D02*
X1024Y243D01*
D02*
X649Y737D02*
X649Y804D01*
D02*
X949Y554D02*
X967Y554D01*
D02*
X937Y548D02*
X949Y554D01*
D02*
X1300Y218D02*
X1300Y68D01*
D02*
X1188Y243D02*
X1275Y243D01*
G54D32*
D02*
X768Y718D02*
X738Y718D01*
D02*
X349Y431D02*
X350Y454D01*
G54D31*
D02*
X450Y68D02*
X449Y104D01*
D02*
X474Y43D02*
X450Y68D01*
D02*
X487Y42D02*
X474Y43D01*
G54D32*
D02*
X750Y355D02*
X736Y362D01*
D02*
X756Y355D02*
X750Y355D01*
G54D31*
D02*
X1154Y223D02*
X1165Y234D01*
D02*
X1126Y196D02*
X1154Y223D01*
D02*
X1117Y195D02*
X1126Y196D01*
D02*
X500Y594D02*
X500Y648D01*
D02*
X548Y544D02*
X500Y594D01*
G54D32*
D02*
X1375Y144D02*
X1411Y143D01*
G54D31*
D02*
X1159Y1549D02*
X1244Y1549D01*
D02*
X1149Y1542D02*
X1159Y1549D01*
D02*
X499Y892D02*
X1149Y1542D01*
D02*
X499Y737D02*
X499Y892D01*
D02*
X1091Y618D02*
X1091Y432D01*
D02*
X1024Y719D02*
X1025Y720D01*
D02*
X949Y868D02*
X1060Y768D01*
D02*
X1049Y843D02*
X1092Y793D01*
D02*
X1095Y630D02*
X1091Y619D01*
D02*
X1092Y793D02*
X1092Y741D01*
D02*
X874Y868D02*
X1024Y719D01*
D02*
X1060Y768D02*
X1060Y741D01*
D02*
X1049Y868D02*
X1049Y843D01*
D02*
X949Y868D02*
X949Y868D01*
D02*
X867Y876D02*
X874Y868D01*
D02*
X349Y154D02*
X350Y84D01*
D02*
X925Y342D02*
X921Y333D01*
D02*
X924Y386D02*
X925Y342D01*
D02*
X1074Y367D02*
X1099Y367D01*
D02*
X1099Y367D02*
X1125Y393D01*
D02*
X1050Y343D02*
X1074Y367D01*
D02*
X1125Y393D02*
X1124Y398D01*
D02*
X1043Y334D02*
X1050Y343D01*
G54D32*
D02*
X613Y156D02*
X627Y171D01*
D02*
X1220Y193D02*
X1236Y193D01*
G54D31*
D02*
X1174Y1236D02*
X1244Y1235D01*
D02*
X1149Y1194D02*
X1174Y1236D01*
D02*
X1149Y844D02*
X1149Y1194D01*
D02*
X1186Y793D02*
X1149Y844D01*
D02*
X1186Y741D02*
X1186Y793D01*
D02*
X1149Y669D02*
X1125Y692D01*
D02*
X1125Y692D02*
X1124Y707D01*
D02*
X1161Y668D02*
X1149Y669D01*
D02*
X71Y1057D02*
X91Y1082D01*
D02*
X65Y1057D02*
X71Y1057D01*
G54D33*
D02*
X124Y1492D02*
X180Y1493D01*
D02*
X124Y1492D02*
X124Y1492D01*
G54D32*
D02*
X349Y404D02*
X350Y332D01*
G54D31*
D02*
X775Y593D02*
X800Y618D01*
D02*
X775Y517D02*
X775Y593D01*
D02*
X800Y618D02*
X967Y617D01*
D02*
X775Y462D02*
X775Y517D01*
G54D33*
D02*
X223Y1667D02*
X148Y1662D01*
D02*
X1273Y1792D02*
X349Y1794D01*
D02*
X1353Y1872D02*
X1273Y1792D01*
D02*
X349Y1794D02*
X223Y1667D01*
G54D31*
D02*
X150Y955D02*
X149Y1013D01*
D02*
X122Y1053D02*
X131Y1054D01*
D02*
X100Y1018D02*
X122Y1053D01*
D02*
X99Y955D02*
X100Y1018D01*
G54D32*
D02*
X49Y1143D02*
X47Y1098D01*
D02*
X174Y1118D02*
X155Y1098D01*
D02*
X174Y1293D02*
X174Y1118D01*
D02*
X58Y1148D02*
X49Y1143D01*
D02*
X140Y1335D02*
X174Y1293D01*
D02*
X132Y1336D02*
X140Y1335D01*
G54D31*
D02*
X100Y894D02*
X99Y931D01*
D02*
X115Y878D02*
X100Y894D01*
D02*
X65Y798D02*
X90Y794D01*
D02*
X199Y792D02*
X158Y793D01*
D02*
X1099Y1692D02*
X199Y792D01*
D02*
X1398Y1692D02*
X1099Y1692D01*
D02*
X1475Y1618D02*
X1398Y1692D01*
D02*
X1474Y593D02*
X1475Y1618D01*
D02*
X1424Y522D02*
X1474Y593D01*
D02*
X1310Y522D02*
X1424Y522D01*
D02*
X49Y886D02*
X47Y1013D01*
G54D33*
D02*
X857Y59D02*
X824Y43D01*
G54D31*
D02*
X511Y42D02*
X537Y42D01*
G54D33*
D02*
X861Y54D02*
X863Y56D01*
D02*
X788Y54D02*
X786Y56D01*
G54D31*
D02*
X124Y292D02*
X124Y268D01*
D02*
X324Y292D02*
X124Y292D01*
G54D33*
D02*
X124Y1492D02*
X124Y1535D01*
G54D31*
D02*
X812Y281D02*
X792Y281D01*
D02*
X824Y342D02*
X824Y293D01*
D02*
X824Y293D02*
X812Y281D01*
D02*
X812Y355D02*
X824Y342D01*
D02*
X792Y355D02*
X812Y355D01*
G54D33*
D02*
X707Y59D02*
X691Y51D01*
D02*
X941Y59D02*
X957Y51D01*
D02*
X793Y68D02*
X805Y68D01*
D02*
X836Y56D02*
X838Y54D01*
G54D31*
D02*
X950Y218D02*
X974Y243D01*
D02*
X849Y218D02*
X950Y218D01*
D02*
X974Y443D02*
X982Y456D01*
D02*
X974Y243D02*
X974Y443D01*
D02*
X824Y192D02*
X849Y218D01*
D02*
X800Y218D02*
X799Y165D01*
D02*
X824Y165D02*
X824Y192D01*
D02*
X925Y243D02*
X824Y243D01*
D02*
X824Y243D02*
X800Y218D01*
D02*
X950Y268D02*
X925Y243D01*
D02*
X950Y493D02*
X950Y268D01*
D02*
X967Y492D02*
X950Y493D01*
D02*
X775Y593D02*
X750Y593D01*
D02*
X750Y593D02*
X723Y593D01*
D02*
X775Y517D02*
X775Y593D01*
D02*
X775Y462D02*
X775Y517D01*
D02*
X724Y669D02*
X674Y618D01*
D02*
X674Y618D02*
X668Y605D01*
D02*
X724Y704D02*
X724Y669D01*
G54D32*
D02*
X781Y718D02*
X818Y718D01*
G54D31*
D02*
X1186Y542D02*
X1186Y432D01*
D02*
X1249Y618D02*
X1186Y542D01*
D02*
X1249Y689D02*
X1249Y618D01*
D02*
X1249Y707D02*
X1249Y689D01*
D02*
X1325Y1268D02*
X1304Y1267D01*
D02*
X1356Y1518D02*
X1325Y1549D01*
D02*
X1356Y1483D02*
X1356Y1516D01*
D02*
X1356Y1516D02*
X1304Y1517D01*
D02*
X1332Y1455D02*
X1356Y1483D01*
D02*
X1304Y1455D02*
X1332Y1455D01*
D02*
X1325Y1549D02*
X1304Y1549D01*
D02*
X1304Y1518D02*
X1356Y1518D01*
D02*
X1309Y1297D02*
X1325Y1268D01*
D02*
X1304Y1297D02*
X1309Y1297D01*
D02*
X1309Y1298D02*
X1323Y1267D01*
D02*
X1323Y1267D02*
X1323Y818D01*
D02*
X1323Y818D02*
X1252Y728D01*
D02*
X1304Y1298D02*
X1309Y1298D01*
D02*
X1125Y343D02*
X1115Y334D01*
D02*
X1154Y367D02*
X1125Y343D01*
D02*
X1154Y398D02*
X1154Y367D01*
D02*
X1300Y318D02*
X1249Y367D01*
D02*
X1375Y317D02*
X1300Y318D01*
D02*
X1249Y367D02*
X1249Y398D01*
D02*
X1415Y358D02*
X1375Y317D01*
D02*
X1375Y293D02*
X1275Y293D01*
D02*
X1275Y293D02*
X1217Y342D01*
D02*
X1217Y342D02*
X1217Y398D01*
D02*
X1390Y278D02*
X1375Y293D01*
D02*
X1199Y1205D02*
X1244Y1204D01*
D02*
X1174Y1168D02*
X1199Y1205D01*
D02*
X1218Y818D02*
X1174Y867D01*
D02*
X1174Y867D02*
X1174Y1168D01*
D02*
X1218Y741D02*
X1218Y818D01*
G54D33*
D02*
X736Y56D02*
X738Y54D01*
G54D31*
D02*
X1574Y793D02*
X1574Y804D01*
D02*
X1550Y768D02*
X1574Y793D01*
D02*
X1218Y643D02*
X1218Y707D01*
D02*
X1123Y518D02*
X1218Y643D01*
D02*
X1123Y518D02*
X1123Y432D01*
G54D32*
D02*
X875Y81D02*
X875Y121D01*
D02*
X773Y165D02*
X774Y275D01*
G54D31*
D02*
X1498Y493D02*
X1310Y491D01*
D02*
X1293Y418D02*
X1293Y456D01*
D02*
X1325Y393D02*
X1293Y418D01*
D02*
X1349Y393D02*
X1325Y393D01*
G54D33*
D02*
X913Y56D02*
X911Y54D01*
D02*
X888Y54D02*
X886Y56D01*
D02*
X763Y56D02*
X761Y54D01*
G54D31*
D02*
X1061Y455D02*
X1060Y432D01*
D02*
X1053Y480D02*
X1061Y455D01*
D02*
X1124Y267D02*
X1174Y318D01*
D02*
X1186Y343D02*
X1186Y398D01*
D02*
X1174Y318D02*
X1186Y343D01*
D02*
X1116Y259D02*
X1124Y267D01*
G54D32*
D02*
X1032Y302D02*
X1032Y259D01*
G54D31*
D02*
X950Y717D02*
X981Y683D01*
D02*
X931Y718D02*
X950Y717D01*
D02*
X824Y542D02*
X874Y585D01*
D02*
X874Y585D02*
X967Y585D01*
D02*
X824Y462D02*
X824Y542D01*
D02*
X899Y648D02*
X874Y669D01*
D02*
X874Y669D02*
X874Y680D01*
D02*
X967Y648D02*
X899Y648D01*
D02*
X1150Y1643D02*
X399Y893D01*
D02*
X1175Y1617D02*
X450Y892D01*
D02*
X1350Y1644D02*
X1150Y1643D01*
D02*
X1323Y1618D02*
X1175Y1617D01*
D02*
X450Y418D02*
X548Y301D01*
D02*
X1425Y1567D02*
X1350Y1644D01*
D02*
X1424Y643D02*
X1425Y1567D01*
D02*
X399Y893D02*
X399Y667D01*
D02*
X149Y543D02*
X124Y516D01*
D02*
X275Y543D02*
X149Y543D01*
D02*
X399Y667D02*
X275Y543D01*
D02*
X1374Y585D02*
X1424Y643D01*
D02*
X1310Y585D02*
X1374Y585D01*
D02*
X450Y892D02*
X450Y418D01*
D02*
X1398Y1543D02*
X1324Y1618D01*
D02*
X1399Y667D02*
X1398Y1543D01*
D02*
X1349Y617D02*
X1399Y667D01*
D02*
X1310Y617D02*
X1349Y617D01*
D02*
X1324Y648D02*
X1310Y648D01*
D02*
X1374Y693D02*
X1324Y648D01*
D02*
X1374Y1318D02*
X1374Y693D01*
D02*
X1326Y1359D02*
X1374Y1318D01*
D02*
X1304Y1360D02*
X1326Y1359D01*
D02*
X1323Y692D02*
X1302Y683D01*
D02*
X1350Y718D02*
X1323Y692D01*
D02*
X1350Y1293D02*
X1350Y718D01*
D02*
X1312Y1328D02*
X1350Y1293D01*
D02*
X1304Y1328D02*
X1312Y1328D01*
D02*
X1174Y1394D02*
X1244Y1392D01*
D02*
X1155Y768D02*
X1125Y818D01*
D02*
X1155Y741D02*
X1155Y768D01*
D02*
X1125Y1343D02*
X1174Y1394D01*
D02*
X1125Y818D02*
X1125Y1343D01*
D02*
X1125Y1668D02*
X350Y893D01*
D02*
X1374Y1668D02*
X1125Y1668D01*
D02*
X350Y893D02*
X350Y782D01*
D02*
X1449Y1593D02*
X1374Y1668D01*
D02*
X1450Y617D02*
X1449Y1593D01*
D02*
X1399Y554D02*
X1450Y617D01*
D02*
X1310Y554D02*
X1399Y554D01*
D02*
X1131Y1423D02*
X1244Y1423D01*
D02*
X1131Y1424D02*
X1131Y1423D01*
D02*
X599Y743D02*
X599Y892D01*
D02*
X1125Y1418D02*
X1131Y1424D01*
D02*
X599Y892D02*
X1125Y1418D01*
D02*
X630Y712D02*
X599Y743D01*
D02*
X699Y493D02*
X715Y532D01*
D02*
X715Y532D02*
X713Y543D01*
D02*
X649Y493D02*
X699Y493D01*
D02*
X625Y517D02*
X649Y493D01*
D02*
X625Y593D02*
X625Y517D01*
D02*
X549Y667D02*
X625Y593D01*
D02*
X549Y892D02*
X549Y667D01*
D02*
X1125Y1468D02*
X549Y892D01*
D02*
X1149Y1488D02*
X1125Y1468D01*
D02*
X1244Y1487D02*
X1149Y1488D01*
G36*
X170Y1929D02*
X170Y1909D01*
X172Y1909D01*
X172Y1907D01*
X176Y1907D01*
X176Y1905D01*
X178Y1905D01*
X178Y1903D01*
X180Y1903D01*
X180Y1901D01*
X182Y1901D01*
X182Y1899D01*
X184Y1899D01*
X184Y1897D01*
X186Y1897D01*
X186Y1895D01*
X188Y1895D01*
X188Y1891D01*
X190Y1891D01*
X190Y1889D01*
X192Y1889D01*
X192Y1885D01*
X194Y1885D01*
X194Y1883D01*
X196Y1883D01*
X196Y1879D01*
X198Y1879D01*
X198Y1875D01*
X200Y1875D01*
X200Y1869D01*
X202Y1869D01*
X202Y1861D01*
X204Y1861D01*
X204Y1847D01*
X206Y1847D01*
X206Y1845D01*
X1162Y1845D01*
X1162Y1847D01*
X1156Y1847D01*
X1156Y1849D01*
X1152Y1849D01*
X1152Y1851D01*
X1148Y1851D01*
X1148Y1853D01*
X1146Y1853D01*
X1146Y1855D01*
X1144Y1855D01*
X1144Y1857D01*
X1140Y1857D01*
X1140Y1859D01*
X1138Y1859D01*
X1138Y1863D01*
X1136Y1863D01*
X1136Y1865D01*
X1134Y1865D01*
X1134Y1867D01*
X1132Y1867D01*
X1132Y1871D01*
X1130Y1871D01*
X1130Y1875D01*
X1128Y1875D01*
X1128Y1881D01*
X1126Y1881D01*
X1126Y1905D01*
X1128Y1905D01*
X1128Y1929D01*
X170Y1929D01*
G37*
D02*
G36*
X1220Y1929D02*
X1220Y1907D01*
X1222Y1907D01*
X1222Y1899D01*
X1224Y1899D01*
X1224Y1889D01*
X1222Y1889D01*
X1222Y1879D01*
X1220Y1879D01*
X1220Y1873D01*
X1218Y1873D01*
X1218Y1869D01*
X1216Y1869D01*
X1216Y1867D01*
X1214Y1867D01*
X1214Y1863D01*
X1212Y1863D01*
X1212Y1861D01*
X1210Y1861D01*
X1210Y1859D01*
X1208Y1859D01*
X1208Y1857D01*
X1206Y1857D01*
X1206Y1855D01*
X1204Y1855D01*
X1204Y1853D01*
X1200Y1853D01*
X1200Y1851D01*
X1196Y1851D01*
X1196Y1849D01*
X1192Y1849D01*
X1192Y1847D01*
X1186Y1847D01*
X1186Y1845D01*
X1296Y1845D01*
X1296Y1847D01*
X1298Y1847D01*
X1298Y1849D01*
X1300Y1849D01*
X1300Y1851D01*
X1302Y1851D01*
X1302Y1853D01*
X1304Y1853D01*
X1304Y1855D01*
X1306Y1855D01*
X1306Y1857D01*
X1308Y1857D01*
X1308Y1859D01*
X1310Y1859D01*
X1310Y1861D01*
X1312Y1861D01*
X1312Y1863D01*
X1314Y1863D01*
X1314Y1865D01*
X1316Y1865D01*
X1316Y1867D01*
X1318Y1867D01*
X1318Y1869D01*
X1320Y1869D01*
X1320Y1871D01*
X1322Y1871D01*
X1322Y1873D01*
X1324Y1873D01*
X1324Y1875D01*
X1326Y1875D01*
X1326Y1905D01*
X1328Y1905D01*
X1328Y1929D01*
X1220Y1929D01*
G37*
D02*
G36*
X206Y1845D02*
X206Y1843D01*
X1294Y1843D01*
X1294Y1845D01*
X206Y1845D01*
G37*
D02*
G36*
X206Y1845D02*
X206Y1843D01*
X1294Y1843D01*
X1294Y1845D01*
X206Y1845D01*
G37*
D02*
G36*
X206Y1843D02*
X206Y1841D01*
X204Y1841D01*
X204Y1825D01*
X202Y1825D01*
X202Y1819D01*
X200Y1819D01*
X200Y1817D01*
X608Y1817D01*
X608Y1815D01*
X1266Y1815D01*
X1266Y1817D01*
X1268Y1817D01*
X1268Y1819D01*
X1270Y1819D01*
X1270Y1821D01*
X1272Y1821D01*
X1272Y1823D01*
X1274Y1823D01*
X1274Y1825D01*
X1276Y1825D01*
X1276Y1827D01*
X1278Y1827D01*
X1278Y1829D01*
X1280Y1829D01*
X1280Y1831D01*
X1282Y1831D01*
X1282Y1833D01*
X1284Y1833D01*
X1284Y1835D01*
X1286Y1835D01*
X1286Y1837D01*
X1288Y1837D01*
X1288Y1839D01*
X1290Y1839D01*
X1290Y1841D01*
X1292Y1841D01*
X1292Y1843D01*
X206Y1843D01*
G37*
D02*
G36*
X200Y1817D02*
X200Y1813D01*
X198Y1813D01*
X198Y1809D01*
X196Y1809D01*
X196Y1805D01*
X194Y1805D01*
X194Y1801D01*
X192Y1801D01*
X192Y1797D01*
X190Y1797D01*
X190Y1795D01*
X188Y1795D01*
X188Y1793D01*
X186Y1793D01*
X186Y1791D01*
X184Y1791D01*
X184Y1787D01*
X182Y1787D01*
X182Y1785D01*
X180Y1785D01*
X180Y1783D01*
X176Y1783D01*
X176Y1781D01*
X174Y1781D01*
X174Y1779D01*
X172Y1779D01*
X172Y1777D01*
X168Y1777D01*
X168Y1775D01*
X166Y1775D01*
X166Y1773D01*
X162Y1773D01*
X162Y1771D01*
X158Y1771D01*
X158Y1769D01*
X154Y1769D01*
X154Y1767D01*
X148Y1767D01*
X148Y1765D01*
X138Y1765D01*
X138Y1763D01*
X124Y1763D01*
X124Y1685D01*
X164Y1685D01*
X164Y1687D01*
X198Y1687D01*
X198Y1689D01*
X214Y1689D01*
X214Y1691D01*
X216Y1691D01*
X216Y1693D01*
X218Y1693D01*
X218Y1695D01*
X220Y1695D01*
X220Y1697D01*
X222Y1697D01*
X222Y1699D01*
X224Y1699D01*
X224Y1701D01*
X226Y1701D01*
X226Y1703D01*
X228Y1703D01*
X228Y1705D01*
X230Y1705D01*
X230Y1707D01*
X232Y1707D01*
X232Y1709D01*
X234Y1709D01*
X234Y1711D01*
X236Y1711D01*
X236Y1713D01*
X238Y1713D01*
X238Y1715D01*
X240Y1715D01*
X240Y1717D01*
X242Y1717D01*
X242Y1719D01*
X244Y1719D01*
X244Y1721D01*
X246Y1721D01*
X246Y1723D01*
X248Y1723D01*
X248Y1725D01*
X250Y1725D01*
X250Y1727D01*
X252Y1727D01*
X252Y1729D01*
X254Y1729D01*
X254Y1731D01*
X256Y1731D01*
X256Y1733D01*
X258Y1733D01*
X258Y1735D01*
X260Y1735D01*
X260Y1737D01*
X262Y1737D01*
X262Y1739D01*
X264Y1739D01*
X264Y1741D01*
X266Y1741D01*
X266Y1743D01*
X268Y1743D01*
X268Y1745D01*
X270Y1745D01*
X270Y1747D01*
X272Y1747D01*
X272Y1749D01*
X274Y1749D01*
X274Y1751D01*
X276Y1751D01*
X276Y1753D01*
X278Y1753D01*
X278Y1755D01*
X280Y1755D01*
X280Y1757D01*
X282Y1757D01*
X282Y1759D01*
X284Y1759D01*
X284Y1761D01*
X286Y1761D01*
X286Y1763D01*
X288Y1763D01*
X288Y1765D01*
X290Y1765D01*
X290Y1767D01*
X292Y1767D01*
X292Y1769D01*
X294Y1769D01*
X294Y1771D01*
X296Y1771D01*
X296Y1773D01*
X298Y1773D01*
X298Y1775D01*
X300Y1775D01*
X300Y1777D01*
X302Y1777D01*
X302Y1779D01*
X304Y1779D01*
X304Y1781D01*
X306Y1781D01*
X306Y1783D01*
X308Y1783D01*
X308Y1785D01*
X310Y1785D01*
X310Y1787D01*
X312Y1787D01*
X312Y1789D01*
X314Y1789D01*
X314Y1791D01*
X316Y1791D01*
X316Y1793D01*
X318Y1793D01*
X318Y1795D01*
X320Y1795D01*
X320Y1797D01*
X322Y1797D01*
X322Y1799D01*
X324Y1799D01*
X324Y1801D01*
X326Y1801D01*
X326Y1803D01*
X328Y1803D01*
X328Y1805D01*
X330Y1805D01*
X330Y1807D01*
X332Y1807D01*
X332Y1809D01*
X334Y1809D01*
X334Y1811D01*
X336Y1811D01*
X336Y1813D01*
X340Y1813D01*
X340Y1815D01*
X346Y1815D01*
X346Y1817D01*
X200Y1817D01*
G37*
D02*
G36*
X40Y1794D02*
X40Y1658D01*
X64Y1658D01*
X64Y1656D01*
X84Y1656D01*
X84Y1686D01*
X72Y1686D01*
X72Y1744D01*
X74Y1744D01*
X74Y1746D01*
X102Y1746D01*
X102Y1766D01*
X96Y1766D01*
X96Y1768D01*
X90Y1768D01*
X90Y1770D01*
X86Y1770D01*
X86Y1772D01*
X84Y1772D01*
X84Y1774D01*
X80Y1774D01*
X80Y1776D01*
X76Y1776D01*
X76Y1778D01*
X74Y1778D01*
X74Y1780D01*
X72Y1780D01*
X72Y1782D01*
X70Y1782D01*
X70Y1784D01*
X68Y1784D01*
X68Y1786D01*
X66Y1786D01*
X66Y1788D01*
X64Y1788D01*
X64Y1790D01*
X62Y1790D01*
X62Y1792D01*
X60Y1792D01*
X60Y1794D01*
X40Y1794D01*
G37*
D02*
G36*
X1180Y1600D02*
X1180Y1598D01*
X1178Y1598D01*
X1178Y1596D01*
X1176Y1596D01*
X1176Y1594D01*
X1174Y1594D01*
X1174Y1592D01*
X1172Y1592D01*
X1172Y1590D01*
X1170Y1590D01*
X1170Y1588D01*
X1168Y1588D01*
X1168Y1586D01*
X1166Y1586D01*
X1166Y1584D01*
X1164Y1584D01*
X1164Y1582D01*
X1162Y1582D01*
X1162Y1580D01*
X1160Y1580D01*
X1160Y1578D01*
X1158Y1578D01*
X1158Y1576D01*
X1156Y1576D01*
X1156Y1574D01*
X1154Y1574D01*
X1154Y1572D01*
X1152Y1572D01*
X1152Y1570D01*
X1150Y1570D01*
X1150Y1568D01*
X1148Y1568D01*
X1148Y1566D01*
X1146Y1566D01*
X1146Y1564D01*
X1144Y1564D01*
X1144Y1562D01*
X1142Y1562D01*
X1142Y1560D01*
X1140Y1560D01*
X1140Y1558D01*
X1138Y1558D01*
X1138Y1556D01*
X1136Y1556D01*
X1136Y1554D01*
X1134Y1554D01*
X1134Y1552D01*
X1132Y1552D01*
X1132Y1550D01*
X1130Y1550D01*
X1130Y1548D01*
X1128Y1548D01*
X1128Y1546D01*
X1126Y1546D01*
X1126Y1544D01*
X1124Y1544D01*
X1124Y1542D01*
X1122Y1542D01*
X1122Y1540D01*
X1120Y1540D01*
X1120Y1538D01*
X1118Y1538D01*
X1118Y1536D01*
X1116Y1536D01*
X1116Y1534D01*
X1114Y1534D01*
X1114Y1532D01*
X1112Y1532D01*
X1112Y1530D01*
X1110Y1530D01*
X1110Y1528D01*
X1108Y1528D01*
X1108Y1526D01*
X1106Y1526D01*
X1106Y1524D01*
X1104Y1524D01*
X1104Y1522D01*
X1102Y1522D01*
X1102Y1520D01*
X1100Y1520D01*
X1100Y1518D01*
X1098Y1518D01*
X1098Y1516D01*
X1096Y1516D01*
X1096Y1514D01*
X1094Y1514D01*
X1094Y1512D01*
X1092Y1512D01*
X1092Y1510D01*
X1090Y1510D01*
X1090Y1508D01*
X1088Y1508D01*
X1088Y1506D01*
X1086Y1506D01*
X1086Y1504D01*
X1204Y1504D01*
X1204Y1502D01*
X1228Y1502D01*
X1228Y1600D01*
X1180Y1600D01*
G37*
D02*
G36*
X1084Y1504D02*
X1084Y1502D01*
X1082Y1502D01*
X1082Y1500D01*
X1080Y1500D01*
X1080Y1498D01*
X1078Y1498D01*
X1078Y1496D01*
X1076Y1496D01*
X1076Y1494D01*
X1074Y1494D01*
X1074Y1492D01*
X1072Y1492D01*
X1072Y1490D01*
X1070Y1490D01*
X1070Y1488D01*
X1068Y1488D01*
X1068Y1486D01*
X1066Y1486D01*
X1066Y1484D01*
X1064Y1484D01*
X1064Y1482D01*
X1062Y1482D01*
X1062Y1480D01*
X1060Y1480D01*
X1060Y1478D01*
X1058Y1478D01*
X1058Y1476D01*
X1056Y1476D01*
X1056Y1474D01*
X1054Y1474D01*
X1054Y1472D01*
X1052Y1472D01*
X1052Y1470D01*
X1050Y1470D01*
X1050Y1468D01*
X1048Y1468D01*
X1048Y1466D01*
X1046Y1466D01*
X1046Y1464D01*
X1044Y1464D01*
X1044Y1462D01*
X1042Y1462D01*
X1042Y1460D01*
X1040Y1460D01*
X1040Y1458D01*
X1038Y1458D01*
X1038Y1456D01*
X1036Y1456D01*
X1036Y1454D01*
X1034Y1454D01*
X1034Y1452D01*
X1032Y1452D01*
X1032Y1450D01*
X1030Y1450D01*
X1030Y1448D01*
X1028Y1448D01*
X1028Y1446D01*
X1026Y1446D01*
X1026Y1444D01*
X1024Y1444D01*
X1024Y1442D01*
X1022Y1442D01*
X1022Y1440D01*
X1020Y1440D01*
X1020Y1438D01*
X1018Y1438D01*
X1018Y1436D01*
X1016Y1436D01*
X1016Y1434D01*
X1014Y1434D01*
X1014Y1432D01*
X1012Y1432D01*
X1012Y1430D01*
X1010Y1430D01*
X1010Y1428D01*
X1008Y1428D01*
X1008Y1426D01*
X1006Y1426D01*
X1006Y1424D01*
X1004Y1424D01*
X1004Y1422D01*
X1002Y1422D01*
X1002Y1420D01*
X1000Y1420D01*
X1000Y1418D01*
X998Y1418D01*
X998Y1416D01*
X996Y1416D01*
X996Y1414D01*
X994Y1414D01*
X994Y1412D01*
X992Y1412D01*
X992Y1410D01*
X990Y1410D01*
X990Y1408D01*
X988Y1408D01*
X988Y1406D01*
X986Y1406D01*
X986Y1404D01*
X984Y1404D01*
X984Y1402D01*
X982Y1402D01*
X982Y1400D01*
X980Y1400D01*
X980Y1398D01*
X978Y1398D01*
X978Y1396D01*
X976Y1396D01*
X976Y1394D01*
X974Y1394D01*
X974Y1392D01*
X972Y1392D01*
X972Y1390D01*
X970Y1390D01*
X970Y1388D01*
X968Y1388D01*
X968Y1386D01*
X966Y1386D01*
X966Y1384D01*
X964Y1384D01*
X964Y1382D01*
X962Y1382D01*
X962Y1380D01*
X960Y1380D01*
X960Y1378D01*
X958Y1378D01*
X958Y1376D01*
X956Y1376D01*
X956Y1374D01*
X954Y1374D01*
X954Y1372D01*
X952Y1372D01*
X952Y1370D01*
X950Y1370D01*
X950Y1368D01*
X948Y1368D01*
X948Y1366D01*
X946Y1366D01*
X946Y1364D01*
X944Y1364D01*
X944Y1362D01*
X942Y1362D01*
X942Y1360D01*
X940Y1360D01*
X940Y1358D01*
X938Y1358D01*
X938Y1356D01*
X936Y1356D01*
X936Y1354D01*
X934Y1354D01*
X934Y1352D01*
X932Y1352D01*
X932Y1350D01*
X930Y1350D01*
X930Y1348D01*
X928Y1348D01*
X928Y1346D01*
X926Y1346D01*
X926Y1344D01*
X924Y1344D01*
X924Y1342D01*
X922Y1342D01*
X922Y1340D01*
X920Y1340D01*
X920Y1338D01*
X918Y1338D01*
X918Y1336D01*
X916Y1336D01*
X916Y1334D01*
X914Y1334D01*
X914Y1332D01*
X912Y1332D01*
X912Y1330D01*
X910Y1330D01*
X910Y1328D01*
X908Y1328D01*
X908Y1326D01*
X906Y1326D01*
X906Y1324D01*
X904Y1324D01*
X904Y1322D01*
X902Y1322D01*
X902Y1320D01*
X900Y1320D01*
X900Y1318D01*
X898Y1318D01*
X898Y1316D01*
X896Y1316D01*
X896Y1314D01*
X894Y1314D01*
X894Y1312D01*
X892Y1312D01*
X892Y1310D01*
X890Y1310D01*
X890Y1308D01*
X888Y1308D01*
X888Y1306D01*
X886Y1306D01*
X886Y1304D01*
X884Y1304D01*
X884Y1302D01*
X882Y1302D01*
X882Y1300D01*
X880Y1300D01*
X880Y1298D01*
X878Y1298D01*
X878Y1296D01*
X876Y1296D01*
X876Y1294D01*
X874Y1294D01*
X874Y1292D01*
X872Y1292D01*
X872Y1290D01*
X870Y1290D01*
X870Y1288D01*
X868Y1288D01*
X868Y1286D01*
X866Y1286D01*
X866Y1284D01*
X864Y1284D01*
X864Y1282D01*
X862Y1282D01*
X862Y1280D01*
X860Y1280D01*
X860Y1278D01*
X858Y1278D01*
X858Y1276D01*
X856Y1276D01*
X856Y1274D01*
X854Y1274D01*
X854Y1272D01*
X852Y1272D01*
X852Y1270D01*
X850Y1270D01*
X850Y1268D01*
X848Y1268D01*
X848Y1266D01*
X846Y1266D01*
X846Y1264D01*
X844Y1264D01*
X844Y1262D01*
X842Y1262D01*
X842Y1260D01*
X840Y1260D01*
X840Y1258D01*
X838Y1258D01*
X838Y1256D01*
X836Y1256D01*
X836Y1254D01*
X834Y1254D01*
X834Y1252D01*
X832Y1252D01*
X832Y1250D01*
X830Y1250D01*
X830Y1248D01*
X828Y1248D01*
X828Y1246D01*
X826Y1246D01*
X826Y1244D01*
X824Y1244D01*
X824Y1242D01*
X822Y1242D01*
X822Y1240D01*
X820Y1240D01*
X820Y1238D01*
X818Y1238D01*
X818Y1236D01*
X816Y1236D01*
X816Y1234D01*
X814Y1234D01*
X814Y1232D01*
X812Y1232D01*
X812Y1230D01*
X810Y1230D01*
X810Y1228D01*
X808Y1228D01*
X808Y1226D01*
X806Y1226D01*
X806Y1224D01*
X804Y1224D01*
X804Y1222D01*
X802Y1222D01*
X802Y1220D01*
X800Y1220D01*
X800Y1218D01*
X798Y1218D01*
X798Y1216D01*
X796Y1216D01*
X796Y1214D01*
X794Y1214D01*
X794Y1212D01*
X792Y1212D01*
X792Y1210D01*
X790Y1210D01*
X790Y1208D01*
X788Y1208D01*
X788Y1206D01*
X786Y1206D01*
X786Y1204D01*
X784Y1204D01*
X784Y1202D01*
X782Y1202D01*
X782Y1200D01*
X780Y1200D01*
X780Y1198D01*
X778Y1198D01*
X778Y1196D01*
X776Y1196D01*
X776Y1194D01*
X774Y1194D01*
X774Y1192D01*
X772Y1192D01*
X772Y1190D01*
X770Y1190D01*
X770Y1188D01*
X768Y1188D01*
X768Y1186D01*
X766Y1186D01*
X766Y1184D01*
X764Y1184D01*
X764Y1182D01*
X762Y1182D01*
X762Y1180D01*
X760Y1180D01*
X760Y1178D01*
X758Y1178D01*
X758Y1176D01*
X756Y1176D01*
X756Y1174D01*
X754Y1174D01*
X754Y1172D01*
X752Y1172D01*
X752Y1170D01*
X750Y1170D01*
X750Y1168D01*
X748Y1168D01*
X748Y1166D01*
X746Y1166D01*
X746Y1164D01*
X744Y1164D01*
X744Y1162D01*
X742Y1162D01*
X742Y1160D01*
X740Y1160D01*
X740Y1158D01*
X738Y1158D01*
X738Y1156D01*
X736Y1156D01*
X736Y1154D01*
X734Y1154D01*
X734Y1152D01*
X732Y1152D01*
X732Y1150D01*
X730Y1150D01*
X730Y1148D01*
X728Y1148D01*
X728Y1146D01*
X726Y1146D01*
X726Y1144D01*
X724Y1144D01*
X724Y1142D01*
X722Y1142D01*
X722Y1140D01*
X720Y1140D01*
X720Y1138D01*
X718Y1138D01*
X718Y1136D01*
X716Y1136D01*
X716Y1134D01*
X714Y1134D01*
X714Y1132D01*
X712Y1132D01*
X712Y1130D01*
X710Y1130D01*
X710Y1128D01*
X708Y1128D01*
X708Y1126D01*
X706Y1126D01*
X706Y1124D01*
X704Y1124D01*
X704Y1122D01*
X702Y1122D01*
X702Y1120D01*
X700Y1120D01*
X700Y1118D01*
X698Y1118D01*
X698Y1116D01*
X696Y1116D01*
X696Y1114D01*
X694Y1114D01*
X694Y1112D01*
X692Y1112D01*
X692Y1110D01*
X690Y1110D01*
X690Y1108D01*
X688Y1108D01*
X688Y1106D01*
X686Y1106D01*
X686Y1104D01*
X684Y1104D01*
X684Y1102D01*
X682Y1102D01*
X682Y1100D01*
X680Y1100D01*
X680Y1098D01*
X678Y1098D01*
X678Y1096D01*
X676Y1096D01*
X676Y1094D01*
X674Y1094D01*
X674Y1092D01*
X672Y1092D01*
X672Y1090D01*
X670Y1090D01*
X670Y1088D01*
X668Y1088D01*
X668Y1086D01*
X666Y1086D01*
X666Y1084D01*
X664Y1084D01*
X664Y1082D01*
X662Y1082D01*
X662Y1080D01*
X660Y1080D01*
X660Y1078D01*
X658Y1078D01*
X658Y1076D01*
X656Y1076D01*
X656Y1074D01*
X654Y1074D01*
X654Y1072D01*
X652Y1072D01*
X652Y1070D01*
X650Y1070D01*
X650Y1068D01*
X648Y1068D01*
X648Y1066D01*
X646Y1066D01*
X646Y1064D01*
X644Y1064D01*
X644Y1062D01*
X642Y1062D01*
X642Y1060D01*
X640Y1060D01*
X640Y1058D01*
X638Y1058D01*
X638Y1056D01*
X636Y1056D01*
X636Y1054D01*
X634Y1054D01*
X634Y1052D01*
X632Y1052D01*
X632Y1050D01*
X630Y1050D01*
X630Y1048D01*
X628Y1048D01*
X628Y1046D01*
X626Y1046D01*
X626Y1044D01*
X624Y1044D01*
X624Y1042D01*
X622Y1042D01*
X622Y1040D01*
X620Y1040D01*
X620Y1038D01*
X618Y1038D01*
X618Y1036D01*
X616Y1036D01*
X616Y1034D01*
X614Y1034D01*
X614Y1032D01*
X612Y1032D01*
X612Y1030D01*
X610Y1030D01*
X610Y1028D01*
X608Y1028D01*
X608Y1026D01*
X606Y1026D01*
X606Y1024D01*
X604Y1024D01*
X604Y1022D01*
X602Y1022D01*
X602Y1020D01*
X600Y1020D01*
X600Y1018D01*
X598Y1018D01*
X598Y1016D01*
X596Y1016D01*
X596Y1014D01*
X594Y1014D01*
X594Y1012D01*
X592Y1012D01*
X592Y1010D01*
X590Y1010D01*
X590Y1008D01*
X588Y1008D01*
X588Y1006D01*
X586Y1006D01*
X586Y1004D01*
X584Y1004D01*
X584Y1002D01*
X582Y1002D01*
X582Y1000D01*
X580Y1000D01*
X580Y998D01*
X578Y998D01*
X578Y996D01*
X576Y996D01*
X576Y994D01*
X574Y994D01*
X574Y992D01*
X572Y992D01*
X572Y990D01*
X570Y990D01*
X570Y988D01*
X568Y988D01*
X568Y986D01*
X566Y986D01*
X566Y984D01*
X564Y984D01*
X564Y982D01*
X562Y982D01*
X562Y980D01*
X560Y980D01*
X560Y978D01*
X558Y978D01*
X558Y976D01*
X556Y976D01*
X556Y974D01*
X554Y974D01*
X554Y972D01*
X552Y972D01*
X552Y970D01*
X550Y970D01*
X550Y969D01*
X548Y969D01*
X548Y967D01*
X546Y967D01*
X546Y965D01*
X544Y965D01*
X544Y963D01*
X542Y963D01*
X542Y961D01*
X540Y961D01*
X540Y959D01*
X538Y959D01*
X538Y957D01*
X536Y957D01*
X536Y955D01*
X534Y955D01*
X534Y953D01*
X532Y953D01*
X532Y951D01*
X530Y951D01*
X530Y949D01*
X528Y949D01*
X528Y947D01*
X526Y947D01*
X526Y945D01*
X524Y945D01*
X524Y943D01*
X522Y943D01*
X522Y941D01*
X520Y941D01*
X520Y939D01*
X518Y939D01*
X518Y937D01*
X516Y937D01*
X516Y935D01*
X514Y935D01*
X514Y933D01*
X512Y933D01*
X512Y931D01*
X510Y931D01*
X510Y929D01*
X508Y929D01*
X508Y927D01*
X506Y927D01*
X506Y925D01*
X504Y925D01*
X504Y923D01*
X502Y923D01*
X502Y921D01*
X500Y921D01*
X500Y919D01*
X498Y919D01*
X498Y917D01*
X496Y917D01*
X496Y915D01*
X494Y915D01*
X494Y913D01*
X492Y913D01*
X492Y911D01*
X490Y911D01*
X490Y909D01*
X488Y909D01*
X488Y907D01*
X486Y907D01*
X486Y905D01*
X484Y905D01*
X484Y903D01*
X482Y903D01*
X482Y901D01*
X480Y901D01*
X480Y899D01*
X478Y899D01*
X478Y897D01*
X476Y897D01*
X476Y895D01*
X474Y895D01*
X474Y893D01*
X472Y893D01*
X472Y891D01*
X470Y891D01*
X470Y889D01*
X468Y889D01*
X468Y887D01*
X466Y887D01*
X466Y753D01*
X534Y753D01*
X534Y899D01*
X536Y899D01*
X536Y903D01*
X538Y903D01*
X538Y905D01*
X540Y905D01*
X540Y907D01*
X542Y907D01*
X542Y909D01*
X544Y909D01*
X544Y911D01*
X546Y911D01*
X546Y913D01*
X548Y913D01*
X548Y915D01*
X550Y915D01*
X550Y917D01*
X552Y917D01*
X552Y919D01*
X554Y919D01*
X554Y921D01*
X556Y921D01*
X556Y923D01*
X558Y923D01*
X558Y925D01*
X560Y925D01*
X560Y927D01*
X562Y927D01*
X562Y929D01*
X564Y929D01*
X564Y931D01*
X566Y931D01*
X566Y933D01*
X568Y933D01*
X568Y935D01*
X570Y935D01*
X570Y937D01*
X572Y937D01*
X572Y939D01*
X574Y939D01*
X574Y941D01*
X576Y941D01*
X576Y943D01*
X578Y943D01*
X578Y945D01*
X580Y945D01*
X580Y947D01*
X582Y947D01*
X582Y949D01*
X584Y949D01*
X584Y951D01*
X586Y951D01*
X586Y953D01*
X588Y953D01*
X588Y955D01*
X590Y955D01*
X590Y957D01*
X592Y957D01*
X592Y959D01*
X594Y959D01*
X594Y961D01*
X596Y961D01*
X596Y963D01*
X598Y963D01*
X598Y965D01*
X600Y965D01*
X600Y967D01*
X602Y967D01*
X602Y969D01*
X604Y969D01*
X604Y970D01*
X606Y970D01*
X606Y972D01*
X608Y972D01*
X608Y974D01*
X610Y974D01*
X610Y976D01*
X612Y976D01*
X612Y978D01*
X614Y978D01*
X614Y980D01*
X616Y980D01*
X616Y982D01*
X618Y982D01*
X618Y984D01*
X620Y984D01*
X620Y986D01*
X622Y986D01*
X622Y988D01*
X624Y988D01*
X624Y990D01*
X626Y990D01*
X626Y992D01*
X628Y992D01*
X628Y994D01*
X630Y994D01*
X630Y996D01*
X632Y996D01*
X632Y998D01*
X634Y998D01*
X634Y1000D01*
X636Y1000D01*
X636Y1002D01*
X638Y1002D01*
X638Y1004D01*
X640Y1004D01*
X640Y1006D01*
X642Y1006D01*
X642Y1008D01*
X644Y1008D01*
X644Y1010D01*
X646Y1010D01*
X646Y1012D01*
X648Y1012D01*
X648Y1014D01*
X650Y1014D01*
X650Y1016D01*
X652Y1016D01*
X652Y1018D01*
X654Y1018D01*
X654Y1020D01*
X656Y1020D01*
X656Y1022D01*
X658Y1022D01*
X658Y1024D01*
X660Y1024D01*
X660Y1026D01*
X662Y1026D01*
X662Y1028D01*
X664Y1028D01*
X664Y1030D01*
X666Y1030D01*
X666Y1032D01*
X668Y1032D01*
X668Y1034D01*
X670Y1034D01*
X670Y1036D01*
X672Y1036D01*
X672Y1038D01*
X674Y1038D01*
X674Y1040D01*
X676Y1040D01*
X676Y1042D01*
X678Y1042D01*
X678Y1044D01*
X680Y1044D01*
X680Y1046D01*
X682Y1046D01*
X682Y1048D01*
X684Y1048D01*
X684Y1050D01*
X686Y1050D01*
X686Y1052D01*
X688Y1052D01*
X688Y1054D01*
X690Y1054D01*
X690Y1056D01*
X692Y1056D01*
X692Y1058D01*
X694Y1058D01*
X694Y1060D01*
X696Y1060D01*
X696Y1062D01*
X698Y1062D01*
X698Y1064D01*
X700Y1064D01*
X700Y1066D01*
X702Y1066D01*
X702Y1068D01*
X704Y1068D01*
X704Y1070D01*
X706Y1070D01*
X706Y1072D01*
X708Y1072D01*
X708Y1074D01*
X710Y1074D01*
X710Y1076D01*
X712Y1076D01*
X712Y1078D01*
X714Y1078D01*
X714Y1080D01*
X716Y1080D01*
X716Y1082D01*
X718Y1082D01*
X718Y1084D01*
X720Y1084D01*
X720Y1086D01*
X722Y1086D01*
X722Y1088D01*
X724Y1088D01*
X724Y1090D01*
X726Y1090D01*
X726Y1092D01*
X728Y1092D01*
X728Y1094D01*
X730Y1094D01*
X730Y1096D01*
X732Y1096D01*
X732Y1098D01*
X734Y1098D01*
X734Y1100D01*
X736Y1100D01*
X736Y1102D01*
X738Y1102D01*
X738Y1104D01*
X740Y1104D01*
X740Y1106D01*
X742Y1106D01*
X742Y1108D01*
X744Y1108D01*
X744Y1110D01*
X746Y1110D01*
X746Y1112D01*
X748Y1112D01*
X748Y1114D01*
X750Y1114D01*
X750Y1116D01*
X752Y1116D01*
X752Y1118D01*
X754Y1118D01*
X754Y1120D01*
X756Y1120D01*
X756Y1122D01*
X758Y1122D01*
X758Y1124D01*
X760Y1124D01*
X760Y1126D01*
X762Y1126D01*
X762Y1128D01*
X764Y1128D01*
X764Y1130D01*
X766Y1130D01*
X766Y1132D01*
X768Y1132D01*
X768Y1134D01*
X770Y1134D01*
X770Y1136D01*
X772Y1136D01*
X772Y1138D01*
X774Y1138D01*
X774Y1140D01*
X776Y1140D01*
X776Y1142D01*
X778Y1142D01*
X778Y1144D01*
X780Y1144D01*
X780Y1146D01*
X782Y1146D01*
X782Y1148D01*
X784Y1148D01*
X784Y1150D01*
X786Y1150D01*
X786Y1152D01*
X788Y1152D01*
X788Y1154D01*
X790Y1154D01*
X790Y1156D01*
X792Y1156D01*
X792Y1158D01*
X794Y1158D01*
X794Y1160D01*
X796Y1160D01*
X796Y1162D01*
X798Y1162D01*
X798Y1164D01*
X800Y1164D01*
X800Y1166D01*
X802Y1166D01*
X802Y1168D01*
X804Y1168D01*
X804Y1170D01*
X806Y1170D01*
X806Y1172D01*
X808Y1172D01*
X808Y1174D01*
X810Y1174D01*
X810Y1176D01*
X812Y1176D01*
X812Y1178D01*
X814Y1178D01*
X814Y1180D01*
X816Y1180D01*
X816Y1182D01*
X818Y1182D01*
X818Y1184D01*
X820Y1184D01*
X820Y1186D01*
X822Y1186D01*
X822Y1188D01*
X824Y1188D01*
X824Y1190D01*
X826Y1190D01*
X826Y1192D01*
X828Y1192D01*
X828Y1194D01*
X830Y1194D01*
X830Y1196D01*
X832Y1196D01*
X832Y1198D01*
X834Y1198D01*
X834Y1200D01*
X836Y1200D01*
X836Y1202D01*
X838Y1202D01*
X838Y1204D01*
X840Y1204D01*
X840Y1206D01*
X842Y1206D01*
X842Y1208D01*
X844Y1208D01*
X844Y1210D01*
X846Y1210D01*
X846Y1212D01*
X848Y1212D01*
X848Y1214D01*
X850Y1214D01*
X850Y1216D01*
X852Y1216D01*
X852Y1218D01*
X854Y1218D01*
X854Y1220D01*
X856Y1220D01*
X856Y1222D01*
X858Y1222D01*
X858Y1224D01*
X860Y1224D01*
X860Y1226D01*
X862Y1226D01*
X862Y1228D01*
X864Y1228D01*
X864Y1230D01*
X866Y1230D01*
X866Y1232D01*
X868Y1232D01*
X868Y1234D01*
X870Y1234D01*
X870Y1236D01*
X872Y1236D01*
X872Y1238D01*
X874Y1238D01*
X874Y1240D01*
X876Y1240D01*
X876Y1242D01*
X878Y1242D01*
X878Y1244D01*
X880Y1244D01*
X880Y1246D01*
X882Y1246D01*
X882Y1248D01*
X884Y1248D01*
X884Y1250D01*
X886Y1250D01*
X886Y1252D01*
X888Y1252D01*
X888Y1254D01*
X890Y1254D01*
X890Y1256D01*
X892Y1256D01*
X892Y1258D01*
X894Y1258D01*
X894Y1260D01*
X896Y1260D01*
X896Y1262D01*
X898Y1262D01*
X898Y1264D01*
X900Y1264D01*
X900Y1266D01*
X902Y1266D01*
X902Y1268D01*
X904Y1268D01*
X904Y1270D01*
X906Y1270D01*
X906Y1272D01*
X908Y1272D01*
X908Y1274D01*
X910Y1274D01*
X910Y1276D01*
X912Y1276D01*
X912Y1278D01*
X914Y1278D01*
X914Y1280D01*
X916Y1280D01*
X916Y1282D01*
X918Y1282D01*
X918Y1284D01*
X920Y1284D01*
X920Y1286D01*
X922Y1286D01*
X922Y1288D01*
X924Y1288D01*
X924Y1290D01*
X926Y1290D01*
X926Y1292D01*
X928Y1292D01*
X928Y1294D01*
X930Y1294D01*
X930Y1296D01*
X932Y1296D01*
X932Y1298D01*
X934Y1298D01*
X934Y1300D01*
X936Y1300D01*
X936Y1302D01*
X938Y1302D01*
X938Y1304D01*
X940Y1304D01*
X940Y1306D01*
X942Y1306D01*
X942Y1308D01*
X944Y1308D01*
X944Y1310D01*
X946Y1310D01*
X946Y1312D01*
X948Y1312D01*
X948Y1314D01*
X950Y1314D01*
X950Y1316D01*
X952Y1316D01*
X952Y1318D01*
X954Y1318D01*
X954Y1320D01*
X956Y1320D01*
X956Y1322D01*
X958Y1322D01*
X958Y1324D01*
X960Y1324D01*
X960Y1326D01*
X962Y1326D01*
X962Y1328D01*
X964Y1328D01*
X964Y1330D01*
X966Y1330D01*
X966Y1332D01*
X968Y1332D01*
X968Y1334D01*
X970Y1334D01*
X970Y1336D01*
X972Y1336D01*
X972Y1338D01*
X974Y1338D01*
X974Y1340D01*
X976Y1340D01*
X976Y1342D01*
X978Y1342D01*
X978Y1344D01*
X980Y1344D01*
X980Y1346D01*
X982Y1346D01*
X982Y1348D01*
X984Y1348D01*
X984Y1350D01*
X986Y1350D01*
X986Y1352D01*
X988Y1352D01*
X988Y1354D01*
X990Y1354D01*
X990Y1356D01*
X992Y1356D01*
X992Y1358D01*
X994Y1358D01*
X994Y1360D01*
X996Y1360D01*
X996Y1362D01*
X998Y1362D01*
X998Y1364D01*
X1000Y1364D01*
X1000Y1366D01*
X1002Y1366D01*
X1002Y1368D01*
X1004Y1368D01*
X1004Y1370D01*
X1006Y1370D01*
X1006Y1372D01*
X1008Y1372D01*
X1008Y1374D01*
X1010Y1374D01*
X1010Y1376D01*
X1012Y1376D01*
X1012Y1378D01*
X1014Y1378D01*
X1014Y1380D01*
X1016Y1380D01*
X1016Y1382D01*
X1018Y1382D01*
X1018Y1384D01*
X1020Y1384D01*
X1020Y1386D01*
X1022Y1386D01*
X1022Y1388D01*
X1024Y1388D01*
X1024Y1390D01*
X1026Y1390D01*
X1026Y1392D01*
X1028Y1392D01*
X1028Y1394D01*
X1030Y1394D01*
X1030Y1396D01*
X1032Y1396D01*
X1032Y1398D01*
X1034Y1398D01*
X1034Y1400D01*
X1036Y1400D01*
X1036Y1402D01*
X1038Y1402D01*
X1038Y1404D01*
X1040Y1404D01*
X1040Y1406D01*
X1042Y1406D01*
X1042Y1408D01*
X1044Y1408D01*
X1044Y1410D01*
X1046Y1410D01*
X1046Y1412D01*
X1048Y1412D01*
X1048Y1414D01*
X1050Y1414D01*
X1050Y1416D01*
X1052Y1416D01*
X1052Y1418D01*
X1054Y1418D01*
X1054Y1420D01*
X1056Y1420D01*
X1056Y1422D01*
X1058Y1422D01*
X1058Y1424D01*
X1060Y1424D01*
X1060Y1426D01*
X1062Y1426D01*
X1062Y1428D01*
X1064Y1428D01*
X1064Y1430D01*
X1066Y1430D01*
X1066Y1432D01*
X1068Y1432D01*
X1068Y1434D01*
X1070Y1434D01*
X1070Y1436D01*
X1072Y1436D01*
X1072Y1438D01*
X1074Y1438D01*
X1074Y1440D01*
X1076Y1440D01*
X1076Y1442D01*
X1078Y1442D01*
X1078Y1444D01*
X1080Y1444D01*
X1080Y1446D01*
X1082Y1446D01*
X1082Y1448D01*
X1084Y1448D01*
X1084Y1450D01*
X1086Y1450D01*
X1086Y1452D01*
X1088Y1452D01*
X1088Y1454D01*
X1090Y1454D01*
X1090Y1456D01*
X1092Y1456D01*
X1092Y1458D01*
X1094Y1458D01*
X1094Y1460D01*
X1096Y1460D01*
X1096Y1462D01*
X1098Y1462D01*
X1098Y1464D01*
X1100Y1464D01*
X1100Y1466D01*
X1102Y1466D01*
X1102Y1468D01*
X1104Y1468D01*
X1104Y1470D01*
X1106Y1470D01*
X1106Y1472D01*
X1108Y1472D01*
X1108Y1474D01*
X1110Y1474D01*
X1110Y1476D01*
X1112Y1476D01*
X1112Y1478D01*
X1114Y1478D01*
X1114Y1480D01*
X1116Y1480D01*
X1116Y1482D01*
X1118Y1482D01*
X1118Y1484D01*
X1120Y1484D01*
X1120Y1486D01*
X1124Y1486D01*
X1124Y1488D01*
X1126Y1488D01*
X1126Y1490D01*
X1128Y1490D01*
X1128Y1492D01*
X1130Y1492D01*
X1130Y1494D01*
X1132Y1494D01*
X1132Y1496D01*
X1134Y1496D01*
X1134Y1498D01*
X1138Y1498D01*
X1138Y1500D01*
X1140Y1500D01*
X1140Y1502D01*
X1144Y1502D01*
X1144Y1504D01*
X1084Y1504D01*
G37*
D02*
G36*
X1320Y1578D02*
X1320Y1376D01*
X1326Y1376D01*
X1326Y1374D01*
X1334Y1374D01*
X1334Y1372D01*
X1336Y1372D01*
X1336Y1370D01*
X1340Y1370D01*
X1340Y1368D01*
X1342Y1368D01*
X1342Y1366D01*
X1344Y1366D01*
X1344Y1364D01*
X1346Y1364D01*
X1346Y1362D01*
X1348Y1362D01*
X1348Y1360D01*
X1350Y1360D01*
X1350Y1358D01*
X1352Y1358D01*
X1352Y1356D01*
X1356Y1356D01*
X1356Y1354D01*
X1358Y1354D01*
X1358Y1352D01*
X1360Y1352D01*
X1360Y1350D01*
X1362Y1350D01*
X1362Y1348D01*
X1382Y1348D01*
X1382Y1536D01*
X1380Y1536D01*
X1380Y1538D01*
X1378Y1538D01*
X1378Y1540D01*
X1376Y1540D01*
X1376Y1542D01*
X1374Y1542D01*
X1374Y1544D01*
X1372Y1544D01*
X1372Y1546D01*
X1370Y1546D01*
X1370Y1548D01*
X1368Y1548D01*
X1368Y1550D01*
X1366Y1550D01*
X1366Y1552D01*
X1364Y1552D01*
X1364Y1554D01*
X1362Y1554D01*
X1362Y1556D01*
X1360Y1556D01*
X1360Y1558D01*
X1358Y1558D01*
X1358Y1560D01*
X1356Y1560D01*
X1356Y1562D01*
X1354Y1562D01*
X1354Y1564D01*
X1352Y1564D01*
X1352Y1566D01*
X1350Y1566D01*
X1350Y1568D01*
X1348Y1568D01*
X1348Y1570D01*
X1346Y1570D01*
X1346Y1572D01*
X1344Y1572D01*
X1344Y1574D01*
X1342Y1574D01*
X1342Y1576D01*
X1340Y1576D01*
X1340Y1578D01*
X1320Y1578D01*
G37*
D02*
G36*
X1420Y1929D02*
X1420Y1907D01*
X1422Y1907D01*
X1422Y1899D01*
X1424Y1899D01*
X1424Y1889D01*
X1422Y1889D01*
X1422Y1879D01*
X1420Y1879D01*
X1420Y1873D01*
X1418Y1873D01*
X1418Y1869D01*
X1416Y1869D01*
X1416Y1867D01*
X1414Y1867D01*
X1414Y1863D01*
X1412Y1863D01*
X1412Y1861D01*
X1410Y1861D01*
X1410Y1859D01*
X1408Y1859D01*
X1408Y1857D01*
X1406Y1857D01*
X1406Y1855D01*
X1404Y1855D01*
X1404Y1853D01*
X1400Y1853D01*
X1400Y1851D01*
X1396Y1851D01*
X1396Y1849D01*
X1392Y1849D01*
X1392Y1847D01*
X1386Y1847D01*
X1386Y1845D01*
X1356Y1845D01*
X1356Y1843D01*
X1354Y1843D01*
X1354Y1841D01*
X1352Y1841D01*
X1352Y1839D01*
X1350Y1839D01*
X1350Y1837D01*
X1348Y1837D01*
X1348Y1835D01*
X1346Y1835D01*
X1346Y1833D01*
X1344Y1833D01*
X1344Y1831D01*
X1342Y1831D01*
X1342Y1829D01*
X1340Y1829D01*
X1340Y1827D01*
X1338Y1827D01*
X1338Y1825D01*
X1336Y1825D01*
X1336Y1823D01*
X1334Y1823D01*
X1334Y1821D01*
X1332Y1821D01*
X1332Y1819D01*
X1330Y1819D01*
X1330Y1817D01*
X1328Y1817D01*
X1328Y1815D01*
X1326Y1815D01*
X1326Y1813D01*
X1324Y1813D01*
X1324Y1811D01*
X1322Y1811D01*
X1322Y1809D01*
X1320Y1809D01*
X1320Y1807D01*
X1318Y1807D01*
X1318Y1805D01*
X1316Y1805D01*
X1316Y1803D01*
X1314Y1803D01*
X1314Y1801D01*
X1312Y1801D01*
X1312Y1799D01*
X1310Y1799D01*
X1310Y1797D01*
X1308Y1797D01*
X1308Y1795D01*
X1306Y1795D01*
X1306Y1793D01*
X1304Y1793D01*
X1304Y1791D01*
X1302Y1791D01*
X1302Y1789D01*
X1300Y1789D01*
X1300Y1787D01*
X1298Y1787D01*
X1298Y1785D01*
X1296Y1785D01*
X1296Y1783D01*
X1294Y1783D01*
X1294Y1781D01*
X1292Y1781D01*
X1292Y1779D01*
X1290Y1779D01*
X1290Y1777D01*
X1288Y1777D01*
X1288Y1775D01*
X1284Y1775D01*
X1284Y1773D01*
X1280Y1773D01*
X1280Y1771D01*
X1486Y1771D01*
X1486Y1773D01*
X1484Y1773D01*
X1484Y1775D01*
X1480Y1775D01*
X1480Y1777D01*
X1476Y1777D01*
X1476Y1779D01*
X1474Y1779D01*
X1474Y1781D01*
X1472Y1781D01*
X1472Y1783D01*
X1470Y1783D01*
X1470Y1785D01*
X1468Y1785D01*
X1468Y1787D01*
X1466Y1787D01*
X1466Y1789D01*
X1464Y1789D01*
X1464Y1791D01*
X1462Y1791D01*
X1462Y1793D01*
X1460Y1793D01*
X1460Y1795D01*
X1458Y1795D01*
X1458Y1799D01*
X1456Y1799D01*
X1456Y1803D01*
X1454Y1803D01*
X1454Y1805D01*
X1452Y1805D01*
X1452Y1809D01*
X1450Y1809D01*
X1450Y1815D01*
X1448Y1815D01*
X1448Y1819D01*
X1446Y1819D01*
X1446Y1829D01*
X1444Y1829D01*
X1444Y1859D01*
X1446Y1859D01*
X1446Y1867D01*
X1448Y1867D01*
X1448Y1873D01*
X1450Y1873D01*
X1450Y1877D01*
X1452Y1877D01*
X1452Y1881D01*
X1454Y1881D01*
X1454Y1885D01*
X1456Y1885D01*
X1456Y1889D01*
X1458Y1889D01*
X1458Y1891D01*
X1460Y1891D01*
X1460Y1893D01*
X1462Y1893D01*
X1462Y1895D01*
X1464Y1895D01*
X1464Y1899D01*
X1466Y1899D01*
X1466Y1901D01*
X1468Y1901D01*
X1468Y1903D01*
X1470Y1903D01*
X1470Y1905D01*
X1474Y1905D01*
X1474Y1907D01*
X1476Y1907D01*
X1476Y1909D01*
X1478Y1909D01*
X1478Y1929D01*
X1420Y1929D01*
G37*
D02*
G36*
X1592Y1801D02*
X1592Y1797D01*
X1590Y1797D01*
X1590Y1795D01*
X1588Y1795D01*
X1588Y1793D01*
X1586Y1793D01*
X1586Y1791D01*
X1584Y1791D01*
X1584Y1787D01*
X1582Y1787D01*
X1582Y1785D01*
X1580Y1785D01*
X1580Y1783D01*
X1576Y1783D01*
X1576Y1781D01*
X1574Y1781D01*
X1574Y1779D01*
X1572Y1779D01*
X1572Y1777D01*
X1568Y1777D01*
X1568Y1775D01*
X1566Y1775D01*
X1566Y1773D01*
X1562Y1773D01*
X1562Y1771D01*
X1558Y1771D01*
X1558Y1769D01*
X1554Y1769D01*
X1554Y1767D01*
X1548Y1767D01*
X1548Y1765D01*
X1538Y1765D01*
X1538Y1763D01*
X1612Y1763D01*
X1612Y1801D01*
X1592Y1801D01*
G37*
D02*
G36*
X358Y1773D02*
X358Y1771D01*
X600Y1771D01*
X600Y1773D01*
X358Y1773D01*
G37*
D02*
G36*
X356Y1771D02*
X356Y1769D01*
X1490Y1769D01*
X1490Y1771D01*
X356Y1771D01*
G37*
D02*
G36*
X356Y1771D02*
X356Y1769D01*
X1490Y1769D01*
X1490Y1771D01*
X356Y1771D01*
G37*
D02*
G36*
X354Y1769D02*
X354Y1767D01*
X352Y1767D01*
X352Y1765D01*
X350Y1765D01*
X350Y1763D01*
X1510Y1763D01*
X1510Y1765D01*
X1502Y1765D01*
X1502Y1767D01*
X1496Y1767D01*
X1496Y1769D01*
X354Y1769D01*
G37*
D02*
G36*
X348Y1763D02*
X348Y1761D01*
X1612Y1761D01*
X1612Y1763D01*
X348Y1763D01*
G37*
D02*
G36*
X348Y1763D02*
X348Y1761D01*
X1612Y1761D01*
X1612Y1763D01*
X348Y1763D01*
G37*
D02*
G36*
X346Y1761D02*
X346Y1759D01*
X344Y1759D01*
X344Y1757D01*
X342Y1757D01*
X342Y1755D01*
X340Y1755D01*
X340Y1753D01*
X338Y1753D01*
X338Y1751D01*
X336Y1751D01*
X336Y1749D01*
X334Y1749D01*
X334Y1747D01*
X332Y1747D01*
X332Y1745D01*
X330Y1745D01*
X330Y1743D01*
X328Y1743D01*
X328Y1741D01*
X326Y1741D01*
X326Y1739D01*
X324Y1739D01*
X324Y1737D01*
X322Y1737D01*
X322Y1735D01*
X320Y1735D01*
X320Y1733D01*
X318Y1733D01*
X318Y1731D01*
X316Y1731D01*
X316Y1729D01*
X314Y1729D01*
X314Y1727D01*
X312Y1727D01*
X312Y1725D01*
X310Y1725D01*
X310Y1723D01*
X308Y1723D01*
X308Y1721D01*
X306Y1721D01*
X306Y1719D01*
X304Y1719D01*
X304Y1717D01*
X302Y1717D01*
X302Y1715D01*
X300Y1715D01*
X300Y1713D01*
X298Y1713D01*
X298Y1711D01*
X296Y1711D01*
X296Y1709D01*
X1404Y1709D01*
X1404Y1707D01*
X1408Y1707D01*
X1408Y1705D01*
X1410Y1705D01*
X1410Y1703D01*
X1412Y1703D01*
X1412Y1701D01*
X1414Y1701D01*
X1414Y1699D01*
X1416Y1699D01*
X1416Y1697D01*
X1418Y1697D01*
X1418Y1695D01*
X1420Y1695D01*
X1420Y1693D01*
X1422Y1693D01*
X1422Y1691D01*
X1424Y1691D01*
X1424Y1689D01*
X1426Y1689D01*
X1426Y1687D01*
X1428Y1687D01*
X1428Y1685D01*
X1430Y1685D01*
X1430Y1683D01*
X1432Y1683D01*
X1432Y1681D01*
X1434Y1681D01*
X1434Y1679D01*
X1436Y1679D01*
X1436Y1677D01*
X1438Y1677D01*
X1438Y1675D01*
X1440Y1675D01*
X1440Y1673D01*
X1442Y1673D01*
X1442Y1671D01*
X1444Y1671D01*
X1444Y1669D01*
X1446Y1669D01*
X1446Y1667D01*
X1448Y1667D01*
X1448Y1665D01*
X1452Y1665D01*
X1452Y1663D01*
X1454Y1663D01*
X1454Y1661D01*
X1456Y1661D01*
X1456Y1659D01*
X1458Y1659D01*
X1458Y1657D01*
X1460Y1657D01*
X1460Y1655D01*
X1462Y1655D01*
X1462Y1653D01*
X1464Y1653D01*
X1464Y1651D01*
X1466Y1651D01*
X1466Y1649D01*
X1468Y1649D01*
X1468Y1647D01*
X1470Y1647D01*
X1470Y1645D01*
X1472Y1645D01*
X1472Y1643D01*
X1474Y1643D01*
X1474Y1641D01*
X1476Y1641D01*
X1476Y1639D01*
X1478Y1639D01*
X1478Y1637D01*
X1480Y1637D01*
X1480Y1635D01*
X1482Y1635D01*
X1482Y1633D01*
X1484Y1633D01*
X1484Y1631D01*
X1486Y1631D01*
X1486Y1629D01*
X1488Y1629D01*
X1488Y1625D01*
X1490Y1625D01*
X1490Y1619D01*
X1492Y1619D01*
X1492Y1481D01*
X1490Y1481D01*
X1490Y847D01*
X1584Y847D01*
X1584Y845D01*
X1588Y845D01*
X1588Y843D01*
X1592Y843D01*
X1592Y841D01*
X1612Y841D01*
X1612Y1761D01*
X346Y1761D01*
G37*
D02*
G36*
X294Y1709D02*
X294Y1707D01*
X292Y1707D01*
X292Y1705D01*
X290Y1705D01*
X290Y1703D01*
X288Y1703D01*
X288Y1701D01*
X286Y1701D01*
X286Y1699D01*
X284Y1699D01*
X284Y1697D01*
X282Y1697D01*
X282Y1695D01*
X280Y1695D01*
X280Y1693D01*
X278Y1693D01*
X278Y1691D01*
X276Y1691D01*
X276Y1689D01*
X274Y1689D01*
X274Y1687D01*
X272Y1687D01*
X272Y1685D01*
X270Y1685D01*
X270Y1683D01*
X268Y1683D01*
X268Y1681D01*
X266Y1681D01*
X266Y1679D01*
X264Y1679D01*
X264Y1677D01*
X262Y1677D01*
X262Y1675D01*
X260Y1675D01*
X260Y1673D01*
X258Y1673D01*
X258Y1671D01*
X256Y1671D01*
X256Y1669D01*
X254Y1669D01*
X254Y1667D01*
X252Y1667D01*
X252Y1665D01*
X250Y1665D01*
X250Y1663D01*
X248Y1663D01*
X248Y1661D01*
X246Y1661D01*
X246Y1659D01*
X244Y1659D01*
X244Y1657D01*
X242Y1657D01*
X242Y1655D01*
X240Y1655D01*
X240Y1653D01*
X238Y1653D01*
X238Y1651D01*
X236Y1651D01*
X236Y1649D01*
X234Y1649D01*
X234Y1647D01*
X228Y1647D01*
X228Y1645D01*
X200Y1645D01*
X200Y1643D01*
X166Y1643D01*
X166Y1641D01*
X164Y1641D01*
X164Y1637D01*
X82Y1637D01*
X82Y1633D01*
X84Y1633D01*
X84Y1631D01*
X82Y1631D01*
X82Y1621D01*
X80Y1621D01*
X80Y1617D01*
X78Y1617D01*
X78Y1615D01*
X76Y1615D01*
X76Y1613D01*
X74Y1613D01*
X74Y1611D01*
X72Y1611D01*
X72Y1609D01*
X68Y1609D01*
X68Y1607D01*
X64Y1607D01*
X64Y1605D01*
X40Y1605D01*
X40Y1567D01*
X164Y1567D01*
X164Y1523D01*
X206Y1523D01*
X206Y1521D01*
X212Y1521D01*
X212Y1519D01*
X216Y1519D01*
X216Y1517D01*
X218Y1517D01*
X218Y1515D01*
X220Y1515D01*
X220Y1513D01*
X222Y1513D01*
X222Y1511D01*
X224Y1511D01*
X224Y1507D01*
X226Y1507D01*
X226Y1503D01*
X228Y1503D01*
X228Y1483D01*
X226Y1483D01*
X226Y1479D01*
X224Y1479D01*
X224Y1475D01*
X222Y1475D01*
X222Y1473D01*
X220Y1473D01*
X220Y1471D01*
X218Y1471D01*
X218Y1469D01*
X214Y1469D01*
X214Y1467D01*
X210Y1467D01*
X210Y1465D01*
X202Y1465D01*
X202Y1463D01*
X848Y1463D01*
X848Y1465D01*
X850Y1465D01*
X850Y1467D01*
X852Y1467D01*
X852Y1469D01*
X854Y1469D01*
X854Y1471D01*
X856Y1471D01*
X856Y1473D01*
X858Y1473D01*
X858Y1475D01*
X860Y1475D01*
X860Y1477D01*
X862Y1477D01*
X862Y1479D01*
X864Y1479D01*
X864Y1481D01*
X866Y1481D01*
X866Y1483D01*
X868Y1483D01*
X868Y1485D01*
X870Y1485D01*
X870Y1487D01*
X872Y1487D01*
X872Y1489D01*
X874Y1489D01*
X874Y1491D01*
X876Y1491D01*
X876Y1493D01*
X878Y1493D01*
X878Y1495D01*
X880Y1495D01*
X880Y1497D01*
X882Y1497D01*
X882Y1499D01*
X884Y1499D01*
X884Y1501D01*
X886Y1501D01*
X886Y1503D01*
X888Y1503D01*
X888Y1505D01*
X890Y1505D01*
X890Y1507D01*
X892Y1507D01*
X892Y1509D01*
X894Y1509D01*
X894Y1511D01*
X896Y1511D01*
X896Y1513D01*
X898Y1513D01*
X898Y1515D01*
X900Y1515D01*
X900Y1517D01*
X902Y1517D01*
X902Y1519D01*
X904Y1519D01*
X904Y1521D01*
X906Y1521D01*
X906Y1523D01*
X908Y1523D01*
X908Y1525D01*
X910Y1525D01*
X910Y1527D01*
X912Y1527D01*
X912Y1529D01*
X914Y1529D01*
X914Y1531D01*
X916Y1531D01*
X916Y1533D01*
X918Y1533D01*
X918Y1535D01*
X920Y1535D01*
X920Y1537D01*
X922Y1537D01*
X922Y1539D01*
X924Y1539D01*
X924Y1541D01*
X926Y1541D01*
X926Y1543D01*
X928Y1543D01*
X928Y1545D01*
X930Y1545D01*
X930Y1547D01*
X932Y1547D01*
X932Y1549D01*
X934Y1549D01*
X934Y1551D01*
X936Y1551D01*
X936Y1553D01*
X938Y1553D01*
X938Y1555D01*
X940Y1555D01*
X940Y1557D01*
X942Y1557D01*
X942Y1559D01*
X944Y1559D01*
X944Y1561D01*
X946Y1561D01*
X946Y1563D01*
X948Y1563D01*
X948Y1565D01*
X950Y1565D01*
X950Y1567D01*
X952Y1567D01*
X952Y1569D01*
X954Y1569D01*
X954Y1571D01*
X956Y1571D01*
X956Y1573D01*
X958Y1573D01*
X958Y1575D01*
X960Y1575D01*
X960Y1577D01*
X962Y1577D01*
X962Y1579D01*
X964Y1579D01*
X964Y1581D01*
X966Y1581D01*
X966Y1583D01*
X968Y1583D01*
X968Y1585D01*
X970Y1585D01*
X970Y1587D01*
X972Y1587D01*
X972Y1589D01*
X974Y1589D01*
X974Y1591D01*
X976Y1591D01*
X976Y1593D01*
X978Y1593D01*
X978Y1595D01*
X980Y1595D01*
X980Y1597D01*
X982Y1597D01*
X982Y1599D01*
X984Y1599D01*
X984Y1601D01*
X986Y1601D01*
X986Y1603D01*
X988Y1603D01*
X988Y1605D01*
X990Y1605D01*
X990Y1607D01*
X992Y1607D01*
X992Y1609D01*
X994Y1609D01*
X994Y1611D01*
X996Y1611D01*
X996Y1613D01*
X998Y1613D01*
X998Y1615D01*
X1000Y1615D01*
X1000Y1617D01*
X1002Y1617D01*
X1002Y1619D01*
X1004Y1619D01*
X1004Y1621D01*
X1006Y1621D01*
X1006Y1623D01*
X1008Y1623D01*
X1008Y1625D01*
X1010Y1625D01*
X1010Y1627D01*
X1012Y1627D01*
X1012Y1629D01*
X1014Y1629D01*
X1014Y1631D01*
X1016Y1631D01*
X1016Y1633D01*
X1018Y1633D01*
X1018Y1635D01*
X1020Y1635D01*
X1020Y1637D01*
X1022Y1637D01*
X1022Y1639D01*
X1024Y1639D01*
X1024Y1641D01*
X1026Y1641D01*
X1026Y1643D01*
X1028Y1643D01*
X1028Y1645D01*
X1030Y1645D01*
X1030Y1647D01*
X1032Y1647D01*
X1032Y1649D01*
X1034Y1649D01*
X1034Y1651D01*
X1036Y1651D01*
X1036Y1653D01*
X1038Y1653D01*
X1038Y1655D01*
X1040Y1655D01*
X1040Y1657D01*
X1042Y1657D01*
X1042Y1659D01*
X1044Y1659D01*
X1044Y1661D01*
X1046Y1661D01*
X1046Y1663D01*
X1048Y1663D01*
X1048Y1665D01*
X1050Y1665D01*
X1050Y1667D01*
X1052Y1667D01*
X1052Y1669D01*
X1054Y1669D01*
X1054Y1671D01*
X1056Y1671D01*
X1056Y1673D01*
X1058Y1673D01*
X1058Y1675D01*
X1060Y1675D01*
X1060Y1677D01*
X1062Y1677D01*
X1062Y1679D01*
X1064Y1679D01*
X1064Y1681D01*
X1066Y1681D01*
X1066Y1683D01*
X1068Y1683D01*
X1068Y1685D01*
X1070Y1685D01*
X1070Y1687D01*
X1072Y1687D01*
X1072Y1689D01*
X1074Y1689D01*
X1074Y1691D01*
X1076Y1691D01*
X1076Y1693D01*
X1078Y1693D01*
X1078Y1695D01*
X1080Y1695D01*
X1080Y1697D01*
X1082Y1697D01*
X1082Y1699D01*
X1084Y1699D01*
X1084Y1701D01*
X1086Y1701D01*
X1086Y1703D01*
X1088Y1703D01*
X1088Y1705D01*
X1090Y1705D01*
X1090Y1707D01*
X1094Y1707D01*
X1094Y1709D01*
X294Y1709D01*
G37*
D02*
G36*
X40Y1567D02*
X40Y1541D01*
X64Y1541D01*
X64Y1539D01*
X84Y1539D01*
X84Y1567D01*
X40Y1567D01*
G37*
D02*
G36*
X164Y1523D02*
X164Y1519D01*
X186Y1519D01*
X186Y1521D01*
X192Y1521D01*
X192Y1523D01*
X164Y1523D01*
G37*
D02*
G36*
X64Y1489D02*
X64Y1487D01*
X40Y1487D01*
X40Y1399D01*
X74Y1399D01*
X74Y1401D01*
X72Y1401D01*
X72Y1457D01*
X74Y1457D01*
X74Y1459D01*
X84Y1459D01*
X84Y1489D01*
X64Y1489D01*
G37*
D02*
G36*
X164Y1469D02*
X164Y1463D01*
X196Y1463D01*
X196Y1465D01*
X188Y1465D01*
X188Y1467D01*
X184Y1467D01*
X184Y1469D01*
X164Y1469D01*
G37*
D02*
G36*
X164Y1463D02*
X164Y1461D01*
X846Y1461D01*
X846Y1463D01*
X164Y1463D01*
G37*
D02*
G36*
X164Y1463D02*
X164Y1461D01*
X846Y1461D01*
X846Y1463D01*
X164Y1463D01*
G37*
D02*
G36*
X124Y1461D02*
X124Y1399D01*
X784Y1399D01*
X784Y1401D01*
X786Y1401D01*
X786Y1403D01*
X788Y1403D01*
X788Y1405D01*
X790Y1405D01*
X790Y1407D01*
X792Y1407D01*
X792Y1409D01*
X794Y1409D01*
X794Y1411D01*
X796Y1411D01*
X796Y1413D01*
X798Y1413D01*
X798Y1415D01*
X800Y1415D01*
X800Y1417D01*
X802Y1417D01*
X802Y1419D01*
X804Y1419D01*
X804Y1421D01*
X806Y1421D01*
X806Y1423D01*
X808Y1423D01*
X808Y1425D01*
X810Y1425D01*
X810Y1427D01*
X812Y1427D01*
X812Y1429D01*
X814Y1429D01*
X814Y1431D01*
X816Y1431D01*
X816Y1433D01*
X818Y1433D01*
X818Y1435D01*
X820Y1435D01*
X820Y1437D01*
X822Y1437D01*
X822Y1439D01*
X824Y1439D01*
X824Y1441D01*
X826Y1441D01*
X826Y1443D01*
X828Y1443D01*
X828Y1445D01*
X830Y1445D01*
X830Y1447D01*
X832Y1447D01*
X832Y1449D01*
X834Y1449D01*
X834Y1451D01*
X836Y1451D01*
X836Y1453D01*
X838Y1453D01*
X838Y1455D01*
X840Y1455D01*
X840Y1457D01*
X842Y1457D01*
X842Y1459D01*
X844Y1459D01*
X844Y1461D01*
X124Y1461D01*
G37*
D02*
G36*
X40Y1399D02*
X40Y1397D01*
X782Y1397D01*
X782Y1399D01*
X40Y1399D01*
G37*
D02*
G36*
X40Y1399D02*
X40Y1397D01*
X782Y1397D01*
X782Y1399D01*
X40Y1399D01*
G37*
D02*
G36*
X40Y1397D02*
X40Y1379D01*
X148Y1379D01*
X148Y1351D01*
X150Y1351D01*
X150Y1349D01*
X152Y1349D01*
X152Y1347D01*
X154Y1347D01*
X154Y1345D01*
X156Y1345D01*
X156Y1343D01*
X158Y1343D01*
X158Y1341D01*
X160Y1341D01*
X160Y1339D01*
X162Y1339D01*
X162Y1335D01*
X164Y1335D01*
X164Y1333D01*
X166Y1333D01*
X166Y1331D01*
X168Y1331D01*
X168Y1329D01*
X170Y1329D01*
X170Y1325D01*
X172Y1325D01*
X172Y1323D01*
X174Y1323D01*
X174Y1321D01*
X176Y1321D01*
X176Y1319D01*
X178Y1319D01*
X178Y1315D01*
X180Y1315D01*
X180Y1313D01*
X182Y1313D01*
X182Y1311D01*
X184Y1311D01*
X184Y1309D01*
X186Y1309D01*
X186Y1305D01*
X188Y1305D01*
X188Y1303D01*
X190Y1303D01*
X190Y1299D01*
X192Y1299D01*
X192Y1113D01*
X190Y1113D01*
X190Y1109D01*
X188Y1109D01*
X188Y1105D01*
X186Y1105D01*
X186Y1103D01*
X184Y1103D01*
X184Y1101D01*
X182Y1101D01*
X182Y997D01*
X166Y997D01*
X166Y971D01*
X174Y971D01*
X174Y915D01*
X176Y915D01*
X176Y913D01*
X178Y913D01*
X178Y911D01*
X180Y911D01*
X180Y909D01*
X182Y909D01*
X182Y907D01*
X184Y907D01*
X184Y905D01*
X186Y905D01*
X186Y903D01*
X188Y903D01*
X188Y901D01*
X190Y901D01*
X190Y899D01*
X200Y899D01*
X200Y897D01*
X210Y897D01*
X210Y895D01*
X214Y895D01*
X214Y893D01*
X218Y893D01*
X218Y891D01*
X220Y891D01*
X220Y889D01*
X222Y889D01*
X222Y885D01*
X224Y885D01*
X224Y883D01*
X226Y883D01*
X226Y879D01*
X228Y879D01*
X228Y863D01*
X248Y863D01*
X248Y865D01*
X250Y865D01*
X250Y867D01*
X252Y867D01*
X252Y869D01*
X254Y869D01*
X254Y871D01*
X256Y871D01*
X256Y873D01*
X258Y873D01*
X258Y875D01*
X260Y875D01*
X260Y877D01*
X262Y877D01*
X262Y879D01*
X264Y879D01*
X264Y881D01*
X266Y881D01*
X266Y883D01*
X268Y883D01*
X268Y885D01*
X270Y885D01*
X270Y887D01*
X272Y887D01*
X272Y889D01*
X274Y889D01*
X274Y891D01*
X276Y891D01*
X276Y893D01*
X278Y893D01*
X278Y895D01*
X280Y895D01*
X280Y897D01*
X282Y897D01*
X282Y899D01*
X284Y899D01*
X284Y901D01*
X286Y901D01*
X286Y903D01*
X288Y903D01*
X288Y905D01*
X290Y905D01*
X290Y907D01*
X292Y907D01*
X292Y909D01*
X294Y909D01*
X294Y911D01*
X296Y911D01*
X296Y913D01*
X298Y913D01*
X298Y915D01*
X300Y915D01*
X300Y917D01*
X302Y917D01*
X302Y919D01*
X304Y919D01*
X304Y921D01*
X306Y921D01*
X306Y923D01*
X308Y923D01*
X308Y925D01*
X310Y925D01*
X310Y927D01*
X312Y927D01*
X312Y929D01*
X314Y929D01*
X314Y931D01*
X316Y931D01*
X316Y933D01*
X318Y933D01*
X318Y935D01*
X320Y935D01*
X320Y937D01*
X322Y937D01*
X322Y939D01*
X324Y939D01*
X324Y941D01*
X326Y941D01*
X326Y943D01*
X328Y943D01*
X328Y945D01*
X330Y945D01*
X330Y947D01*
X332Y947D01*
X332Y949D01*
X334Y949D01*
X334Y951D01*
X336Y951D01*
X336Y953D01*
X338Y953D01*
X338Y955D01*
X340Y955D01*
X340Y957D01*
X342Y957D01*
X342Y959D01*
X344Y959D01*
X344Y961D01*
X346Y961D01*
X346Y963D01*
X348Y963D01*
X348Y965D01*
X350Y965D01*
X350Y967D01*
X352Y967D01*
X352Y969D01*
X354Y969D01*
X354Y971D01*
X356Y971D01*
X356Y973D01*
X358Y973D01*
X358Y975D01*
X360Y975D01*
X360Y977D01*
X362Y977D01*
X362Y979D01*
X364Y979D01*
X364Y981D01*
X366Y981D01*
X366Y983D01*
X368Y983D01*
X368Y985D01*
X370Y985D01*
X370Y987D01*
X372Y987D01*
X372Y989D01*
X374Y989D01*
X374Y991D01*
X376Y991D01*
X376Y993D01*
X378Y993D01*
X378Y995D01*
X380Y995D01*
X380Y997D01*
X382Y997D01*
X382Y999D01*
X384Y999D01*
X384Y1001D01*
X386Y1001D01*
X386Y1003D01*
X388Y1003D01*
X388Y1005D01*
X390Y1005D01*
X390Y1007D01*
X392Y1007D01*
X392Y1009D01*
X394Y1009D01*
X394Y1011D01*
X396Y1011D01*
X396Y1013D01*
X398Y1013D01*
X398Y1015D01*
X400Y1015D01*
X400Y1017D01*
X402Y1017D01*
X402Y1019D01*
X404Y1019D01*
X404Y1021D01*
X406Y1021D01*
X406Y1023D01*
X408Y1023D01*
X408Y1025D01*
X410Y1025D01*
X410Y1027D01*
X412Y1027D01*
X412Y1029D01*
X414Y1029D01*
X414Y1031D01*
X416Y1031D01*
X416Y1033D01*
X418Y1033D01*
X418Y1035D01*
X420Y1035D01*
X420Y1037D01*
X422Y1037D01*
X422Y1039D01*
X424Y1039D01*
X424Y1041D01*
X426Y1041D01*
X426Y1043D01*
X428Y1043D01*
X428Y1045D01*
X430Y1045D01*
X430Y1047D01*
X432Y1047D01*
X432Y1049D01*
X434Y1049D01*
X434Y1051D01*
X436Y1051D01*
X436Y1053D01*
X438Y1053D01*
X438Y1055D01*
X440Y1055D01*
X440Y1057D01*
X442Y1057D01*
X442Y1059D01*
X444Y1059D01*
X444Y1061D01*
X446Y1061D01*
X446Y1063D01*
X448Y1063D01*
X448Y1065D01*
X450Y1065D01*
X450Y1067D01*
X452Y1067D01*
X452Y1069D01*
X454Y1069D01*
X454Y1071D01*
X456Y1071D01*
X456Y1073D01*
X458Y1073D01*
X458Y1075D01*
X460Y1075D01*
X460Y1077D01*
X462Y1077D01*
X462Y1079D01*
X464Y1079D01*
X464Y1081D01*
X466Y1081D01*
X466Y1083D01*
X468Y1083D01*
X468Y1085D01*
X470Y1085D01*
X470Y1087D01*
X472Y1087D01*
X472Y1089D01*
X474Y1089D01*
X474Y1091D01*
X476Y1091D01*
X476Y1093D01*
X478Y1093D01*
X478Y1095D01*
X480Y1095D01*
X480Y1097D01*
X482Y1097D01*
X482Y1099D01*
X484Y1099D01*
X484Y1101D01*
X486Y1101D01*
X486Y1103D01*
X488Y1103D01*
X488Y1105D01*
X490Y1105D01*
X490Y1107D01*
X492Y1107D01*
X492Y1109D01*
X494Y1109D01*
X494Y1111D01*
X496Y1111D01*
X496Y1113D01*
X498Y1113D01*
X498Y1115D01*
X500Y1115D01*
X500Y1117D01*
X502Y1117D01*
X502Y1119D01*
X504Y1119D01*
X504Y1121D01*
X506Y1121D01*
X506Y1123D01*
X508Y1123D01*
X508Y1125D01*
X510Y1125D01*
X510Y1127D01*
X512Y1127D01*
X512Y1129D01*
X514Y1129D01*
X514Y1131D01*
X516Y1131D01*
X516Y1133D01*
X518Y1133D01*
X518Y1135D01*
X520Y1135D01*
X520Y1137D01*
X522Y1137D01*
X522Y1139D01*
X524Y1139D01*
X524Y1141D01*
X526Y1141D01*
X526Y1143D01*
X528Y1143D01*
X528Y1145D01*
X530Y1145D01*
X530Y1147D01*
X532Y1147D01*
X532Y1149D01*
X534Y1149D01*
X534Y1151D01*
X536Y1151D01*
X536Y1153D01*
X538Y1153D01*
X538Y1155D01*
X540Y1155D01*
X540Y1157D01*
X542Y1157D01*
X542Y1159D01*
X544Y1159D01*
X544Y1161D01*
X546Y1161D01*
X546Y1163D01*
X548Y1163D01*
X548Y1165D01*
X550Y1165D01*
X550Y1167D01*
X552Y1167D01*
X552Y1169D01*
X554Y1169D01*
X554Y1171D01*
X556Y1171D01*
X556Y1173D01*
X558Y1173D01*
X558Y1175D01*
X560Y1175D01*
X560Y1177D01*
X562Y1177D01*
X562Y1179D01*
X564Y1179D01*
X564Y1181D01*
X566Y1181D01*
X566Y1183D01*
X568Y1183D01*
X568Y1185D01*
X570Y1185D01*
X570Y1187D01*
X572Y1187D01*
X572Y1189D01*
X574Y1189D01*
X574Y1191D01*
X576Y1191D01*
X576Y1193D01*
X578Y1193D01*
X578Y1195D01*
X580Y1195D01*
X580Y1197D01*
X582Y1197D01*
X582Y1199D01*
X584Y1199D01*
X584Y1201D01*
X586Y1201D01*
X586Y1203D01*
X588Y1203D01*
X588Y1205D01*
X590Y1205D01*
X590Y1207D01*
X592Y1207D01*
X592Y1209D01*
X594Y1209D01*
X594Y1211D01*
X596Y1211D01*
X596Y1213D01*
X598Y1213D01*
X598Y1215D01*
X600Y1215D01*
X600Y1217D01*
X602Y1217D01*
X602Y1219D01*
X604Y1219D01*
X604Y1221D01*
X606Y1221D01*
X606Y1223D01*
X608Y1223D01*
X608Y1225D01*
X610Y1225D01*
X610Y1227D01*
X612Y1227D01*
X612Y1229D01*
X614Y1229D01*
X614Y1231D01*
X616Y1231D01*
X616Y1233D01*
X618Y1233D01*
X618Y1235D01*
X620Y1235D01*
X620Y1237D01*
X622Y1237D01*
X622Y1239D01*
X624Y1239D01*
X624Y1241D01*
X626Y1241D01*
X626Y1243D01*
X628Y1243D01*
X628Y1245D01*
X630Y1245D01*
X630Y1247D01*
X632Y1247D01*
X632Y1249D01*
X634Y1249D01*
X634Y1251D01*
X636Y1251D01*
X636Y1253D01*
X638Y1253D01*
X638Y1255D01*
X640Y1255D01*
X640Y1257D01*
X642Y1257D01*
X642Y1259D01*
X644Y1259D01*
X644Y1261D01*
X646Y1261D01*
X646Y1263D01*
X648Y1263D01*
X648Y1265D01*
X650Y1265D01*
X650Y1267D01*
X652Y1267D01*
X652Y1269D01*
X654Y1269D01*
X654Y1271D01*
X656Y1271D01*
X656Y1273D01*
X658Y1273D01*
X658Y1275D01*
X660Y1275D01*
X660Y1277D01*
X662Y1277D01*
X662Y1279D01*
X664Y1279D01*
X664Y1281D01*
X666Y1281D01*
X666Y1283D01*
X668Y1283D01*
X668Y1285D01*
X670Y1285D01*
X670Y1287D01*
X672Y1287D01*
X672Y1289D01*
X674Y1289D01*
X674Y1291D01*
X676Y1291D01*
X676Y1293D01*
X678Y1293D01*
X678Y1295D01*
X680Y1295D01*
X680Y1297D01*
X682Y1297D01*
X682Y1299D01*
X684Y1299D01*
X684Y1301D01*
X686Y1301D01*
X686Y1303D01*
X688Y1303D01*
X688Y1305D01*
X690Y1305D01*
X690Y1307D01*
X692Y1307D01*
X692Y1309D01*
X694Y1309D01*
X694Y1311D01*
X696Y1311D01*
X696Y1313D01*
X698Y1313D01*
X698Y1315D01*
X700Y1315D01*
X700Y1317D01*
X702Y1317D01*
X702Y1319D01*
X704Y1319D01*
X704Y1321D01*
X706Y1321D01*
X706Y1323D01*
X708Y1323D01*
X708Y1325D01*
X710Y1325D01*
X710Y1327D01*
X712Y1327D01*
X712Y1329D01*
X714Y1329D01*
X714Y1331D01*
X716Y1331D01*
X716Y1333D01*
X718Y1333D01*
X718Y1335D01*
X720Y1335D01*
X720Y1337D01*
X722Y1337D01*
X722Y1339D01*
X724Y1339D01*
X724Y1341D01*
X726Y1341D01*
X726Y1343D01*
X728Y1343D01*
X728Y1345D01*
X730Y1345D01*
X730Y1347D01*
X732Y1347D01*
X732Y1349D01*
X734Y1349D01*
X734Y1351D01*
X736Y1351D01*
X736Y1353D01*
X738Y1353D01*
X738Y1355D01*
X740Y1355D01*
X740Y1357D01*
X742Y1357D01*
X742Y1359D01*
X744Y1359D01*
X744Y1361D01*
X746Y1361D01*
X746Y1363D01*
X748Y1363D01*
X748Y1365D01*
X750Y1365D01*
X750Y1367D01*
X752Y1367D01*
X752Y1369D01*
X754Y1369D01*
X754Y1371D01*
X756Y1371D01*
X756Y1373D01*
X758Y1373D01*
X758Y1375D01*
X760Y1375D01*
X760Y1377D01*
X762Y1377D01*
X762Y1379D01*
X764Y1379D01*
X764Y1381D01*
X766Y1381D01*
X766Y1383D01*
X768Y1383D01*
X768Y1385D01*
X770Y1385D01*
X770Y1387D01*
X772Y1387D01*
X772Y1389D01*
X774Y1389D01*
X774Y1391D01*
X776Y1391D01*
X776Y1393D01*
X778Y1393D01*
X778Y1395D01*
X780Y1395D01*
X780Y1397D01*
X40Y1397D01*
G37*
D02*
G36*
X1490Y847D02*
X1490Y797D01*
X1544Y797D01*
X1544Y821D01*
X1546Y821D01*
X1546Y829D01*
X1548Y829D01*
X1548Y833D01*
X1550Y833D01*
X1550Y837D01*
X1552Y837D01*
X1552Y839D01*
X1554Y839D01*
X1554Y841D01*
X1556Y841D01*
X1556Y843D01*
X1560Y843D01*
X1560Y845D01*
X1564Y845D01*
X1564Y847D01*
X1490Y847D01*
G37*
D02*
G36*
X1154Y1472D02*
X1154Y1470D01*
X1152Y1470D01*
X1152Y1468D01*
X1148Y1468D01*
X1148Y1466D01*
X1146Y1466D01*
X1146Y1464D01*
X1144Y1464D01*
X1144Y1462D01*
X1142Y1462D01*
X1142Y1460D01*
X1140Y1460D01*
X1140Y1458D01*
X1138Y1458D01*
X1138Y1438D01*
X1228Y1438D01*
X1228Y1470D01*
X1202Y1470D01*
X1202Y1472D01*
X1154Y1472D01*
G37*
D02*
G36*
X1126Y1396D02*
X1126Y1394D01*
X1124Y1394D01*
X1124Y1392D01*
X1122Y1392D01*
X1122Y1390D01*
X1120Y1390D01*
X1120Y1388D01*
X1118Y1388D01*
X1118Y1386D01*
X1116Y1386D01*
X1116Y1384D01*
X1114Y1384D01*
X1114Y1382D01*
X1112Y1382D01*
X1112Y1380D01*
X1110Y1380D01*
X1110Y1378D01*
X1108Y1378D01*
X1108Y1376D01*
X1106Y1376D01*
X1106Y1374D01*
X1104Y1374D01*
X1104Y1372D01*
X1102Y1372D01*
X1102Y1370D01*
X1100Y1370D01*
X1100Y1368D01*
X1098Y1368D01*
X1098Y1366D01*
X1096Y1366D01*
X1096Y1364D01*
X1094Y1364D01*
X1094Y1362D01*
X1092Y1362D01*
X1092Y1360D01*
X1090Y1360D01*
X1090Y1358D01*
X1088Y1358D01*
X1088Y1356D01*
X1086Y1356D01*
X1086Y1354D01*
X1084Y1354D01*
X1084Y1352D01*
X1082Y1352D01*
X1082Y1350D01*
X1080Y1350D01*
X1080Y1348D01*
X1078Y1348D01*
X1078Y1346D01*
X1076Y1346D01*
X1076Y1344D01*
X1074Y1344D01*
X1074Y1342D01*
X1072Y1342D01*
X1072Y1340D01*
X1070Y1340D01*
X1070Y1338D01*
X1068Y1338D01*
X1068Y1336D01*
X1066Y1336D01*
X1066Y1334D01*
X1064Y1334D01*
X1064Y1332D01*
X1062Y1332D01*
X1062Y1330D01*
X1060Y1330D01*
X1060Y1328D01*
X1058Y1328D01*
X1058Y1326D01*
X1056Y1326D01*
X1056Y1324D01*
X1054Y1324D01*
X1054Y1322D01*
X1052Y1322D01*
X1052Y1320D01*
X1050Y1320D01*
X1050Y1318D01*
X1048Y1318D01*
X1048Y1316D01*
X1046Y1316D01*
X1046Y1314D01*
X1044Y1314D01*
X1044Y1312D01*
X1042Y1312D01*
X1042Y1310D01*
X1040Y1310D01*
X1040Y1308D01*
X1038Y1308D01*
X1038Y1306D01*
X1036Y1306D01*
X1036Y1304D01*
X1034Y1304D01*
X1034Y1302D01*
X1032Y1302D01*
X1032Y1300D01*
X1030Y1300D01*
X1030Y1298D01*
X1028Y1298D01*
X1028Y1296D01*
X1026Y1296D01*
X1026Y1294D01*
X1024Y1294D01*
X1024Y1292D01*
X1022Y1292D01*
X1022Y1290D01*
X1020Y1290D01*
X1020Y1288D01*
X1018Y1288D01*
X1018Y1286D01*
X1016Y1286D01*
X1016Y1284D01*
X1014Y1284D01*
X1014Y1282D01*
X1012Y1282D01*
X1012Y1280D01*
X1010Y1280D01*
X1010Y1278D01*
X1008Y1278D01*
X1008Y1276D01*
X1006Y1276D01*
X1006Y1274D01*
X1004Y1274D01*
X1004Y1272D01*
X1002Y1272D01*
X1002Y1270D01*
X1000Y1270D01*
X1000Y1268D01*
X998Y1268D01*
X998Y1266D01*
X996Y1266D01*
X996Y1264D01*
X994Y1264D01*
X994Y1262D01*
X992Y1262D01*
X992Y1260D01*
X990Y1260D01*
X990Y1258D01*
X988Y1258D01*
X988Y1256D01*
X986Y1256D01*
X986Y1254D01*
X984Y1254D01*
X984Y1252D01*
X982Y1252D01*
X982Y1250D01*
X980Y1250D01*
X980Y1248D01*
X978Y1248D01*
X978Y1246D01*
X976Y1246D01*
X976Y1244D01*
X974Y1244D01*
X974Y1242D01*
X972Y1242D01*
X972Y1240D01*
X970Y1240D01*
X970Y1238D01*
X968Y1238D01*
X968Y1236D01*
X966Y1236D01*
X966Y1234D01*
X964Y1234D01*
X964Y1232D01*
X962Y1232D01*
X962Y1230D01*
X960Y1230D01*
X960Y1228D01*
X958Y1228D01*
X958Y1226D01*
X956Y1226D01*
X956Y1224D01*
X954Y1224D01*
X954Y1222D01*
X952Y1222D01*
X952Y1220D01*
X950Y1220D01*
X950Y1218D01*
X948Y1218D01*
X948Y1216D01*
X946Y1216D01*
X946Y1214D01*
X944Y1214D01*
X944Y1212D01*
X942Y1212D01*
X942Y1210D01*
X940Y1210D01*
X940Y1208D01*
X938Y1208D01*
X938Y1206D01*
X936Y1206D01*
X936Y1204D01*
X934Y1204D01*
X934Y1202D01*
X932Y1202D01*
X932Y1200D01*
X930Y1200D01*
X930Y1198D01*
X928Y1198D01*
X928Y1196D01*
X926Y1196D01*
X926Y1194D01*
X924Y1194D01*
X924Y1192D01*
X922Y1192D01*
X922Y1190D01*
X920Y1190D01*
X920Y1188D01*
X918Y1188D01*
X918Y1186D01*
X916Y1186D01*
X916Y1184D01*
X914Y1184D01*
X914Y1182D01*
X912Y1182D01*
X912Y1180D01*
X910Y1180D01*
X910Y1178D01*
X908Y1178D01*
X908Y1176D01*
X906Y1176D01*
X906Y1174D01*
X904Y1174D01*
X904Y1172D01*
X902Y1172D01*
X902Y1170D01*
X900Y1170D01*
X900Y1168D01*
X898Y1168D01*
X898Y1166D01*
X896Y1166D01*
X896Y1164D01*
X894Y1164D01*
X894Y1162D01*
X892Y1162D01*
X892Y1160D01*
X890Y1160D01*
X890Y1158D01*
X888Y1158D01*
X888Y1156D01*
X886Y1156D01*
X886Y1154D01*
X884Y1154D01*
X884Y1152D01*
X882Y1152D01*
X882Y1150D01*
X880Y1150D01*
X880Y1148D01*
X878Y1148D01*
X878Y1146D01*
X876Y1146D01*
X876Y1144D01*
X874Y1144D01*
X874Y1142D01*
X872Y1142D01*
X872Y1140D01*
X870Y1140D01*
X870Y1138D01*
X868Y1138D01*
X868Y1136D01*
X866Y1136D01*
X866Y1134D01*
X864Y1134D01*
X864Y1132D01*
X862Y1132D01*
X862Y1130D01*
X860Y1130D01*
X860Y1128D01*
X858Y1128D01*
X858Y1126D01*
X856Y1126D01*
X856Y1124D01*
X854Y1124D01*
X854Y1122D01*
X852Y1122D01*
X852Y1120D01*
X850Y1120D01*
X850Y1118D01*
X848Y1118D01*
X848Y1116D01*
X846Y1116D01*
X846Y1114D01*
X844Y1114D01*
X844Y1112D01*
X842Y1112D01*
X842Y1110D01*
X840Y1110D01*
X840Y1108D01*
X838Y1108D01*
X838Y1106D01*
X836Y1106D01*
X836Y1104D01*
X834Y1104D01*
X834Y1102D01*
X832Y1102D01*
X832Y1100D01*
X830Y1100D01*
X830Y1098D01*
X828Y1098D01*
X828Y1096D01*
X826Y1096D01*
X826Y1094D01*
X824Y1094D01*
X824Y1092D01*
X822Y1092D01*
X822Y1090D01*
X820Y1090D01*
X820Y1088D01*
X818Y1088D01*
X818Y1086D01*
X816Y1086D01*
X816Y1084D01*
X814Y1084D01*
X814Y1082D01*
X812Y1082D01*
X812Y1080D01*
X810Y1080D01*
X810Y1078D01*
X808Y1078D01*
X808Y1076D01*
X806Y1076D01*
X806Y1074D01*
X804Y1074D01*
X804Y1072D01*
X802Y1072D01*
X802Y1070D01*
X800Y1070D01*
X800Y1068D01*
X798Y1068D01*
X798Y1066D01*
X796Y1066D01*
X796Y1064D01*
X794Y1064D01*
X794Y1062D01*
X792Y1062D01*
X792Y1060D01*
X790Y1060D01*
X790Y1058D01*
X788Y1058D01*
X788Y1056D01*
X786Y1056D01*
X786Y1054D01*
X784Y1054D01*
X784Y1052D01*
X782Y1052D01*
X782Y1050D01*
X780Y1050D01*
X780Y1048D01*
X778Y1048D01*
X778Y1046D01*
X776Y1046D01*
X776Y1044D01*
X774Y1044D01*
X774Y1042D01*
X772Y1042D01*
X772Y1040D01*
X770Y1040D01*
X770Y1038D01*
X768Y1038D01*
X768Y1036D01*
X766Y1036D01*
X766Y1034D01*
X764Y1034D01*
X764Y1032D01*
X762Y1032D01*
X762Y1030D01*
X760Y1030D01*
X760Y1028D01*
X758Y1028D01*
X758Y1026D01*
X756Y1026D01*
X756Y1024D01*
X754Y1024D01*
X754Y1022D01*
X752Y1022D01*
X752Y1020D01*
X750Y1020D01*
X750Y1018D01*
X748Y1018D01*
X748Y1016D01*
X746Y1016D01*
X746Y1014D01*
X744Y1014D01*
X744Y1012D01*
X742Y1012D01*
X742Y1010D01*
X740Y1010D01*
X740Y1008D01*
X738Y1008D01*
X738Y1006D01*
X736Y1006D01*
X736Y1004D01*
X734Y1004D01*
X734Y1002D01*
X732Y1002D01*
X732Y1000D01*
X730Y1000D01*
X730Y998D01*
X728Y998D01*
X728Y996D01*
X726Y996D01*
X726Y994D01*
X724Y994D01*
X724Y992D01*
X722Y992D01*
X722Y990D01*
X720Y990D01*
X720Y988D01*
X718Y988D01*
X718Y986D01*
X716Y986D01*
X716Y984D01*
X714Y984D01*
X714Y982D01*
X712Y982D01*
X712Y980D01*
X710Y980D01*
X710Y978D01*
X708Y978D01*
X708Y976D01*
X706Y976D01*
X706Y974D01*
X704Y974D01*
X704Y972D01*
X702Y972D01*
X702Y970D01*
X700Y970D01*
X700Y969D01*
X698Y969D01*
X698Y967D01*
X696Y967D01*
X696Y965D01*
X694Y965D01*
X694Y963D01*
X692Y963D01*
X692Y961D01*
X690Y961D01*
X690Y959D01*
X688Y959D01*
X688Y957D01*
X686Y957D01*
X686Y955D01*
X684Y955D01*
X684Y953D01*
X682Y953D01*
X682Y951D01*
X680Y951D01*
X680Y949D01*
X678Y949D01*
X678Y947D01*
X676Y947D01*
X676Y945D01*
X674Y945D01*
X674Y943D01*
X1054Y943D01*
X1054Y941D01*
X1064Y941D01*
X1064Y939D01*
X1070Y939D01*
X1070Y937D01*
X1072Y937D01*
X1072Y935D01*
X1076Y935D01*
X1076Y933D01*
X1080Y933D01*
X1080Y931D01*
X1082Y931D01*
X1082Y929D01*
X1084Y929D01*
X1084Y927D01*
X1086Y927D01*
X1086Y925D01*
X1088Y925D01*
X1088Y921D01*
X1108Y921D01*
X1108Y1344D01*
X1110Y1344D01*
X1110Y1350D01*
X1112Y1350D01*
X1112Y1354D01*
X1114Y1354D01*
X1114Y1356D01*
X1116Y1356D01*
X1116Y1358D01*
X1118Y1358D01*
X1118Y1360D01*
X1120Y1360D01*
X1120Y1362D01*
X1122Y1362D01*
X1122Y1364D01*
X1124Y1364D01*
X1124Y1366D01*
X1126Y1366D01*
X1126Y1368D01*
X1128Y1368D01*
X1128Y1370D01*
X1130Y1370D01*
X1130Y1372D01*
X1132Y1372D01*
X1132Y1374D01*
X1134Y1374D01*
X1134Y1376D01*
X1136Y1376D01*
X1136Y1378D01*
X1138Y1378D01*
X1138Y1380D01*
X1140Y1380D01*
X1140Y1382D01*
X1142Y1382D01*
X1142Y1384D01*
X1144Y1384D01*
X1144Y1386D01*
X1146Y1386D01*
X1146Y1396D01*
X1126Y1396D01*
G37*
D02*
G36*
X672Y943D02*
X672Y941D01*
X670Y941D01*
X670Y939D01*
X668Y939D01*
X668Y937D01*
X666Y937D01*
X666Y935D01*
X664Y935D01*
X664Y933D01*
X662Y933D01*
X662Y931D01*
X660Y931D01*
X660Y929D01*
X658Y929D01*
X658Y927D01*
X656Y927D01*
X656Y925D01*
X654Y925D01*
X654Y923D01*
X652Y923D01*
X652Y921D01*
X650Y921D01*
X650Y919D01*
X648Y919D01*
X648Y917D01*
X646Y917D01*
X646Y915D01*
X644Y915D01*
X644Y913D01*
X642Y913D01*
X642Y911D01*
X640Y911D01*
X640Y909D01*
X638Y909D01*
X638Y907D01*
X636Y907D01*
X636Y905D01*
X634Y905D01*
X634Y903D01*
X632Y903D01*
X632Y901D01*
X630Y901D01*
X630Y899D01*
X628Y899D01*
X628Y897D01*
X626Y897D01*
X626Y895D01*
X624Y895D01*
X624Y893D01*
X622Y893D01*
X622Y891D01*
X620Y891D01*
X620Y889D01*
X618Y889D01*
X618Y887D01*
X616Y887D01*
X616Y885D01*
X614Y885D01*
X614Y849D01*
X650Y849D01*
X650Y847D01*
X660Y847D01*
X660Y845D01*
X738Y845D01*
X738Y847D01*
X730Y847D01*
X730Y849D01*
X728Y849D01*
X728Y851D01*
X724Y851D01*
X724Y853D01*
X720Y853D01*
X720Y855D01*
X718Y855D01*
X718Y857D01*
X716Y857D01*
X716Y859D01*
X714Y859D01*
X714Y861D01*
X712Y861D01*
X712Y863D01*
X710Y863D01*
X710Y865D01*
X708Y865D01*
X708Y869D01*
X706Y869D01*
X706Y873D01*
X704Y873D01*
X704Y879D01*
X702Y879D01*
X702Y887D01*
X700Y887D01*
X700Y901D01*
X702Y901D01*
X702Y909D01*
X704Y909D01*
X704Y913D01*
X706Y913D01*
X706Y917D01*
X708Y917D01*
X708Y921D01*
X710Y921D01*
X710Y923D01*
X712Y923D01*
X712Y925D01*
X714Y925D01*
X714Y929D01*
X718Y929D01*
X718Y931D01*
X720Y931D01*
X720Y933D01*
X722Y933D01*
X722Y935D01*
X726Y935D01*
X726Y937D01*
X730Y937D01*
X730Y939D01*
X736Y939D01*
X736Y941D01*
X744Y941D01*
X744Y943D01*
X672Y943D01*
G37*
D02*
G36*
X754Y943D02*
X754Y941D01*
X764Y941D01*
X764Y939D01*
X770Y939D01*
X770Y937D01*
X772Y937D01*
X772Y935D01*
X776Y935D01*
X776Y933D01*
X780Y933D01*
X780Y931D01*
X782Y931D01*
X782Y929D01*
X784Y929D01*
X784Y927D01*
X786Y927D01*
X786Y925D01*
X788Y925D01*
X788Y921D01*
X810Y921D01*
X810Y923D01*
X812Y923D01*
X812Y925D01*
X814Y925D01*
X814Y929D01*
X818Y929D01*
X818Y931D01*
X820Y931D01*
X820Y933D01*
X822Y933D01*
X822Y935D01*
X826Y935D01*
X826Y937D01*
X830Y937D01*
X830Y939D01*
X836Y939D01*
X836Y941D01*
X844Y941D01*
X844Y943D01*
X754Y943D01*
G37*
D02*
G36*
X854Y943D02*
X854Y941D01*
X864Y941D01*
X864Y939D01*
X870Y939D01*
X870Y937D01*
X872Y937D01*
X872Y935D01*
X876Y935D01*
X876Y933D01*
X880Y933D01*
X880Y931D01*
X882Y931D01*
X882Y929D01*
X884Y929D01*
X884Y927D01*
X886Y927D01*
X886Y925D01*
X888Y925D01*
X888Y921D01*
X910Y921D01*
X910Y923D01*
X912Y923D01*
X912Y925D01*
X914Y925D01*
X914Y929D01*
X918Y929D01*
X918Y931D01*
X920Y931D01*
X920Y933D01*
X922Y933D01*
X922Y935D01*
X926Y935D01*
X926Y937D01*
X930Y937D01*
X930Y939D01*
X936Y939D01*
X936Y941D01*
X944Y941D01*
X944Y943D01*
X854Y943D01*
G37*
D02*
G36*
X954Y943D02*
X954Y941D01*
X964Y941D01*
X964Y939D01*
X970Y939D01*
X970Y937D01*
X972Y937D01*
X972Y935D01*
X976Y935D01*
X976Y933D01*
X980Y933D01*
X980Y931D01*
X982Y931D01*
X982Y929D01*
X984Y929D01*
X984Y927D01*
X986Y927D01*
X986Y925D01*
X988Y925D01*
X988Y921D01*
X1010Y921D01*
X1010Y923D01*
X1012Y923D01*
X1012Y925D01*
X1014Y925D01*
X1014Y929D01*
X1018Y929D01*
X1018Y931D01*
X1020Y931D01*
X1020Y933D01*
X1022Y933D01*
X1022Y935D01*
X1026Y935D01*
X1026Y937D01*
X1030Y937D01*
X1030Y939D01*
X1036Y939D01*
X1036Y941D01*
X1044Y941D01*
X1044Y943D01*
X954Y943D01*
G37*
D02*
G36*
X788Y865D02*
X788Y863D01*
X786Y863D01*
X786Y859D01*
X784Y859D01*
X784Y857D01*
X780Y857D01*
X780Y855D01*
X778Y855D01*
X778Y853D01*
X776Y853D01*
X776Y851D01*
X772Y851D01*
X772Y849D01*
X768Y849D01*
X768Y847D01*
X760Y847D01*
X760Y845D01*
X838Y845D01*
X838Y847D01*
X830Y847D01*
X830Y849D01*
X828Y849D01*
X828Y851D01*
X824Y851D01*
X824Y853D01*
X820Y853D01*
X820Y855D01*
X818Y855D01*
X818Y857D01*
X816Y857D01*
X816Y859D01*
X814Y859D01*
X814Y861D01*
X812Y861D01*
X812Y863D01*
X810Y863D01*
X810Y865D01*
X788Y865D01*
G37*
D02*
G36*
X614Y849D02*
X614Y843D01*
X634Y843D01*
X634Y845D01*
X638Y845D01*
X638Y847D01*
X648Y847D01*
X648Y849D01*
X614Y849D01*
G37*
D02*
G36*
X664Y845D02*
X664Y843D01*
X876Y843D01*
X876Y845D01*
X664Y845D01*
G37*
D02*
G36*
X664Y845D02*
X664Y843D01*
X876Y843D01*
X876Y845D01*
X664Y845D01*
G37*
D02*
G36*
X668Y843D02*
X668Y841D01*
X670Y841D01*
X670Y839D01*
X672Y839D01*
X672Y835D01*
X674Y835D01*
X674Y833D01*
X676Y833D01*
X676Y829D01*
X678Y829D01*
X678Y807D01*
X676Y807D01*
X676Y803D01*
X674Y803D01*
X674Y801D01*
X672Y801D01*
X672Y799D01*
X670Y799D01*
X670Y797D01*
X668Y797D01*
X668Y795D01*
X666Y795D01*
X666Y753D01*
X684Y753D01*
X684Y739D01*
X704Y739D01*
X704Y741D01*
X706Y741D01*
X706Y743D01*
X710Y743D01*
X710Y745D01*
X714Y745D01*
X714Y747D01*
X752Y747D01*
X752Y771D01*
X930Y771D01*
X930Y791D01*
X928Y791D01*
X928Y793D01*
X926Y793D01*
X926Y795D01*
X924Y795D01*
X924Y797D01*
X922Y797D01*
X922Y799D01*
X920Y799D01*
X920Y801D01*
X918Y801D01*
X918Y803D01*
X916Y803D01*
X916Y805D01*
X914Y805D01*
X914Y807D01*
X912Y807D01*
X912Y809D01*
X910Y809D01*
X910Y811D01*
X908Y811D01*
X908Y813D01*
X906Y813D01*
X906Y815D01*
X904Y815D01*
X904Y817D01*
X902Y817D01*
X902Y819D01*
X900Y819D01*
X900Y821D01*
X898Y821D01*
X898Y823D01*
X896Y823D01*
X896Y825D01*
X894Y825D01*
X894Y827D01*
X892Y827D01*
X892Y829D01*
X890Y829D01*
X890Y831D01*
X888Y831D01*
X888Y833D01*
X886Y833D01*
X886Y835D01*
X884Y835D01*
X884Y837D01*
X882Y837D01*
X882Y839D01*
X880Y839D01*
X880Y841D01*
X878Y841D01*
X878Y843D01*
X668Y843D01*
G37*
D02*
G36*
X1178Y1376D02*
X1178Y1374D01*
X1176Y1374D01*
X1176Y1372D01*
X1174Y1372D01*
X1174Y1370D01*
X1172Y1370D01*
X1172Y1368D01*
X1170Y1368D01*
X1170Y1366D01*
X1168Y1366D01*
X1168Y1364D01*
X1166Y1364D01*
X1166Y1362D01*
X1164Y1362D01*
X1164Y1360D01*
X1162Y1360D01*
X1162Y1358D01*
X1160Y1358D01*
X1160Y1356D01*
X1158Y1356D01*
X1158Y1354D01*
X1156Y1354D01*
X1156Y1350D01*
X1154Y1350D01*
X1154Y1348D01*
X1152Y1348D01*
X1152Y1346D01*
X1150Y1346D01*
X1150Y1344D01*
X1148Y1344D01*
X1148Y1342D01*
X1146Y1342D01*
X1146Y1340D01*
X1144Y1340D01*
X1144Y1338D01*
X1142Y1338D01*
X1142Y1336D01*
X1140Y1336D01*
X1140Y1242D01*
X1160Y1242D01*
X1160Y1246D01*
X1162Y1246D01*
X1162Y1248D01*
X1164Y1248D01*
X1164Y1250D01*
X1168Y1250D01*
X1168Y1252D01*
X1228Y1252D01*
X1228Y1376D01*
X1178Y1376D01*
G37*
D02*
G36*
X40Y1308D02*
X40Y1202D01*
X156Y1202D01*
X156Y1288D01*
X154Y1288D01*
X154Y1290D01*
X152Y1290D01*
X152Y1292D01*
X150Y1292D01*
X150Y1294D01*
X148Y1294D01*
X148Y1298D01*
X146Y1298D01*
X146Y1300D01*
X144Y1300D01*
X144Y1302D01*
X142Y1302D01*
X142Y1304D01*
X140Y1304D01*
X140Y1308D01*
X40Y1308D01*
G37*
D02*
G36*
X1182Y1220D02*
X1182Y1216D01*
X1180Y1216D01*
X1180Y1214D01*
X1178Y1214D01*
X1178Y1210D01*
X1176Y1210D01*
X1176Y1206D01*
X1174Y1206D01*
X1174Y1202D01*
X1172Y1202D01*
X1172Y1200D01*
X1170Y1200D01*
X1170Y1196D01*
X1168Y1196D01*
X1168Y1192D01*
X1166Y1192D01*
X1166Y1190D01*
X1164Y1190D01*
X1164Y849D01*
X1166Y849D01*
X1166Y847D01*
X1168Y847D01*
X1168Y843D01*
X1170Y843D01*
X1170Y841D01*
X1172Y841D01*
X1172Y839D01*
X1174Y839D01*
X1174Y835D01*
X1176Y835D01*
X1176Y833D01*
X1178Y833D01*
X1178Y829D01*
X1180Y829D01*
X1180Y827D01*
X1182Y827D01*
X1182Y825D01*
X1184Y825D01*
X1184Y821D01*
X1186Y821D01*
X1186Y819D01*
X1188Y819D01*
X1188Y817D01*
X1190Y817D01*
X1190Y813D01*
X1192Y813D01*
X1192Y811D01*
X1194Y811D01*
X1194Y809D01*
X1196Y809D01*
X1196Y805D01*
X1198Y805D01*
X1198Y803D01*
X1200Y803D01*
X1200Y799D01*
X1202Y799D01*
X1202Y757D01*
X1244Y757D01*
X1244Y771D01*
X1246Y771D01*
X1246Y779D01*
X1248Y779D01*
X1248Y783D01*
X1250Y783D01*
X1250Y787D01*
X1252Y787D01*
X1252Y791D01*
X1254Y791D01*
X1254Y793D01*
X1256Y793D01*
X1256Y795D01*
X1260Y795D01*
X1260Y797D01*
X1266Y797D01*
X1266Y799D01*
X1288Y799D01*
X1288Y801D01*
X1290Y801D01*
X1290Y803D01*
X1292Y803D01*
X1292Y805D01*
X1294Y805D01*
X1294Y809D01*
X1296Y809D01*
X1296Y811D01*
X1298Y811D01*
X1298Y813D01*
X1300Y813D01*
X1300Y815D01*
X1302Y815D01*
X1302Y819D01*
X1304Y819D01*
X1304Y821D01*
X1306Y821D01*
X1306Y823D01*
X1308Y823D01*
X1308Y1154D01*
X1228Y1154D01*
X1228Y1218D01*
X1218Y1218D01*
X1218Y1220D01*
X1182Y1220D01*
G37*
D02*
G36*
X992Y863D02*
X992Y849D01*
X996Y849D01*
X996Y847D01*
X998Y847D01*
X998Y845D01*
X1000Y845D01*
X1000Y843D01*
X1002Y843D01*
X1002Y841D01*
X1004Y841D01*
X1004Y839D01*
X1006Y839D01*
X1006Y837D01*
X1008Y837D01*
X1008Y835D01*
X1010Y835D01*
X1010Y833D01*
X1012Y833D01*
X1012Y831D01*
X1016Y831D01*
X1016Y829D01*
X1018Y829D01*
X1018Y827D01*
X1020Y827D01*
X1020Y825D01*
X1022Y825D01*
X1022Y823D01*
X1024Y823D01*
X1024Y821D01*
X1026Y821D01*
X1026Y819D01*
X1028Y819D01*
X1028Y817D01*
X1030Y817D01*
X1030Y815D01*
X1052Y815D01*
X1052Y817D01*
X1050Y817D01*
X1050Y819D01*
X1048Y819D01*
X1048Y821D01*
X1046Y821D01*
X1046Y823D01*
X1044Y823D01*
X1044Y825D01*
X1042Y825D01*
X1042Y827D01*
X1040Y827D01*
X1040Y831D01*
X1038Y831D01*
X1038Y833D01*
X1036Y833D01*
X1036Y835D01*
X1034Y835D01*
X1034Y841D01*
X1032Y841D01*
X1032Y847D01*
X1030Y847D01*
X1030Y849D01*
X1028Y849D01*
X1028Y851D01*
X1024Y851D01*
X1024Y853D01*
X1020Y853D01*
X1020Y855D01*
X1018Y855D01*
X1018Y857D01*
X1016Y857D01*
X1016Y859D01*
X1014Y859D01*
X1014Y861D01*
X1012Y861D01*
X1012Y863D01*
X992Y863D01*
G37*
D02*
G36*
X152Y861D02*
X152Y855D01*
X150Y855D01*
X150Y853D01*
X148Y853D01*
X148Y849D01*
X146Y849D01*
X146Y847D01*
X144Y847D01*
X144Y845D01*
X142Y845D01*
X142Y843D01*
X138Y843D01*
X138Y841D01*
X132Y841D01*
X132Y821D01*
X174Y821D01*
X174Y809D01*
X194Y809D01*
X194Y811D01*
X196Y811D01*
X196Y813D01*
X198Y813D01*
X198Y815D01*
X200Y815D01*
X200Y817D01*
X202Y817D01*
X202Y819D01*
X204Y819D01*
X204Y839D01*
X192Y839D01*
X192Y841D01*
X186Y841D01*
X186Y843D01*
X182Y843D01*
X182Y845D01*
X180Y845D01*
X180Y847D01*
X178Y847D01*
X178Y849D01*
X176Y849D01*
X176Y851D01*
X174Y851D01*
X174Y855D01*
X172Y855D01*
X172Y861D01*
X152Y861D01*
G37*
D02*
G36*
X940Y837D02*
X940Y825D01*
X942Y825D01*
X942Y823D01*
X944Y823D01*
X944Y821D01*
X946Y821D01*
X946Y819D01*
X948Y819D01*
X948Y817D01*
X950Y817D01*
X950Y815D01*
X952Y815D01*
X952Y813D01*
X954Y813D01*
X954Y811D01*
X956Y811D01*
X956Y809D01*
X958Y809D01*
X958Y807D01*
X960Y807D01*
X960Y805D01*
X962Y805D01*
X962Y803D01*
X964Y803D01*
X964Y801D01*
X966Y801D01*
X966Y799D01*
X968Y799D01*
X968Y797D01*
X970Y797D01*
X970Y795D01*
X972Y795D01*
X972Y793D01*
X974Y793D01*
X974Y791D01*
X976Y791D01*
X976Y789D01*
X978Y789D01*
X978Y787D01*
X980Y787D01*
X980Y785D01*
X982Y785D01*
X982Y783D01*
X984Y783D01*
X984Y781D01*
X986Y781D01*
X986Y779D01*
X988Y779D01*
X988Y777D01*
X990Y777D01*
X990Y775D01*
X992Y775D01*
X992Y773D01*
X994Y773D01*
X994Y771D01*
X996Y771D01*
X996Y769D01*
X998Y769D01*
X998Y767D01*
X1000Y767D01*
X1000Y765D01*
X1002Y765D01*
X1002Y763D01*
X1004Y763D01*
X1004Y761D01*
X1006Y761D01*
X1006Y759D01*
X1008Y759D01*
X1008Y757D01*
X1028Y757D01*
X1028Y777D01*
X1026Y777D01*
X1026Y779D01*
X1024Y779D01*
X1024Y781D01*
X1020Y781D01*
X1020Y783D01*
X1018Y783D01*
X1018Y785D01*
X1016Y785D01*
X1016Y787D01*
X1014Y787D01*
X1014Y789D01*
X1012Y789D01*
X1012Y791D01*
X1010Y791D01*
X1010Y793D01*
X1008Y793D01*
X1008Y795D01*
X1006Y795D01*
X1006Y797D01*
X1002Y797D01*
X1002Y799D01*
X1000Y799D01*
X1000Y801D01*
X998Y801D01*
X998Y803D01*
X996Y803D01*
X996Y805D01*
X994Y805D01*
X994Y807D01*
X992Y807D01*
X992Y809D01*
X990Y809D01*
X990Y811D01*
X988Y811D01*
X988Y813D01*
X986Y813D01*
X986Y815D01*
X982Y815D01*
X982Y817D01*
X980Y817D01*
X980Y819D01*
X978Y819D01*
X978Y821D01*
X976Y821D01*
X976Y823D01*
X974Y823D01*
X974Y825D01*
X972Y825D01*
X972Y827D01*
X970Y827D01*
X970Y829D01*
X968Y829D01*
X968Y831D01*
X964Y831D01*
X964Y833D01*
X962Y833D01*
X962Y835D01*
X960Y835D01*
X960Y837D01*
X940Y837D01*
G37*
D02*
G36*
X1314Y781D02*
X1314Y779D01*
X1312Y779D01*
X1312Y777D01*
X1310Y777D01*
X1310Y775D01*
X1308Y775D01*
X1308Y771D01*
X1306Y771D01*
X1306Y769D01*
X1304Y769D01*
X1304Y761D01*
X1302Y761D01*
X1302Y755D01*
X1300Y755D01*
X1300Y753D01*
X1298Y753D01*
X1298Y749D01*
X1296Y749D01*
X1296Y747D01*
X1294Y747D01*
X1294Y745D01*
X1292Y745D01*
X1292Y743D01*
X1288Y743D01*
X1288Y741D01*
X1282Y741D01*
X1282Y739D01*
X1280Y739D01*
X1280Y737D01*
X1278Y737D01*
X1278Y735D01*
X1276Y735D01*
X1276Y699D01*
X1300Y699D01*
X1300Y701D01*
X1304Y701D01*
X1304Y703D01*
X1310Y703D01*
X1310Y705D01*
X1314Y705D01*
X1314Y707D01*
X1316Y707D01*
X1316Y709D01*
X1318Y709D01*
X1318Y711D01*
X1320Y711D01*
X1320Y713D01*
X1322Y713D01*
X1322Y715D01*
X1324Y715D01*
X1324Y717D01*
X1326Y717D01*
X1326Y719D01*
X1328Y719D01*
X1328Y721D01*
X1330Y721D01*
X1330Y723D01*
X1332Y723D01*
X1332Y725D01*
X1334Y725D01*
X1334Y781D01*
X1314Y781D01*
G37*
D02*
G36*
X314Y885D02*
X314Y883D01*
X312Y883D01*
X312Y881D01*
X310Y881D01*
X310Y879D01*
X308Y879D01*
X308Y877D01*
X306Y877D01*
X306Y875D01*
X304Y875D01*
X304Y873D01*
X302Y873D01*
X302Y871D01*
X300Y871D01*
X300Y869D01*
X298Y869D01*
X298Y867D01*
X296Y867D01*
X296Y865D01*
X294Y865D01*
X294Y863D01*
X292Y863D01*
X292Y861D01*
X290Y861D01*
X290Y859D01*
X288Y859D01*
X288Y857D01*
X286Y857D01*
X286Y855D01*
X284Y855D01*
X284Y853D01*
X282Y853D01*
X282Y851D01*
X280Y851D01*
X280Y849D01*
X278Y849D01*
X278Y847D01*
X276Y847D01*
X276Y845D01*
X274Y845D01*
X274Y843D01*
X272Y843D01*
X272Y841D01*
X270Y841D01*
X270Y839D01*
X268Y839D01*
X268Y837D01*
X266Y837D01*
X266Y835D01*
X264Y835D01*
X264Y833D01*
X262Y833D01*
X262Y831D01*
X260Y831D01*
X260Y829D01*
X258Y829D01*
X258Y827D01*
X256Y827D01*
X256Y825D01*
X254Y825D01*
X254Y823D01*
X252Y823D01*
X252Y821D01*
X250Y821D01*
X250Y819D01*
X248Y819D01*
X248Y817D01*
X246Y817D01*
X246Y815D01*
X244Y815D01*
X244Y813D01*
X242Y813D01*
X242Y811D01*
X240Y811D01*
X240Y809D01*
X238Y809D01*
X238Y807D01*
X236Y807D01*
X236Y805D01*
X234Y805D01*
X234Y803D01*
X232Y803D01*
X232Y801D01*
X230Y801D01*
X230Y799D01*
X228Y799D01*
X228Y797D01*
X226Y797D01*
X226Y795D01*
X224Y795D01*
X224Y793D01*
X222Y793D01*
X222Y791D01*
X220Y791D01*
X220Y789D01*
X218Y789D01*
X218Y787D01*
X216Y787D01*
X216Y785D01*
X214Y785D01*
X214Y783D01*
X212Y783D01*
X212Y781D01*
X210Y781D01*
X210Y779D01*
X206Y779D01*
X206Y777D01*
X174Y777D01*
X174Y767D01*
X172Y767D01*
X172Y765D01*
X308Y765D01*
X308Y797D01*
X334Y797D01*
X334Y885D01*
X314Y885D01*
G37*
D02*
G36*
X40Y767D02*
X40Y765D01*
X74Y765D01*
X74Y767D01*
X40Y767D01*
G37*
D02*
G36*
X40Y765D02*
X40Y763D01*
X308Y763D01*
X308Y765D01*
X40Y765D01*
G37*
D02*
G36*
X40Y765D02*
X40Y763D01*
X308Y763D01*
X308Y765D01*
X40Y765D01*
G37*
D02*
G36*
X40Y763D02*
X40Y571D01*
X166Y571D01*
X166Y559D01*
X268Y559D01*
X268Y561D01*
X270Y561D01*
X270Y563D01*
X272Y563D01*
X272Y565D01*
X274Y565D01*
X274Y567D01*
X276Y567D01*
X276Y569D01*
X278Y569D01*
X278Y571D01*
X280Y571D01*
X280Y573D01*
X282Y573D01*
X282Y575D01*
X284Y575D01*
X284Y577D01*
X286Y577D01*
X286Y579D01*
X288Y579D01*
X288Y581D01*
X290Y581D01*
X290Y583D01*
X292Y583D01*
X292Y585D01*
X294Y585D01*
X294Y587D01*
X296Y587D01*
X296Y589D01*
X298Y589D01*
X298Y591D01*
X300Y591D01*
X300Y593D01*
X302Y593D01*
X302Y595D01*
X304Y595D01*
X304Y597D01*
X306Y597D01*
X306Y599D01*
X308Y599D01*
X308Y601D01*
X310Y601D01*
X310Y603D01*
X312Y603D01*
X312Y605D01*
X314Y605D01*
X314Y607D01*
X316Y607D01*
X316Y609D01*
X318Y609D01*
X318Y611D01*
X320Y611D01*
X320Y613D01*
X322Y613D01*
X322Y615D01*
X324Y615D01*
X324Y617D01*
X326Y617D01*
X326Y619D01*
X328Y619D01*
X328Y621D01*
X330Y621D01*
X330Y623D01*
X332Y623D01*
X332Y625D01*
X334Y625D01*
X334Y627D01*
X336Y627D01*
X336Y629D01*
X338Y629D01*
X338Y631D01*
X340Y631D01*
X340Y633D01*
X342Y633D01*
X342Y635D01*
X344Y635D01*
X344Y637D01*
X346Y637D01*
X346Y639D01*
X348Y639D01*
X348Y641D01*
X350Y641D01*
X350Y643D01*
X352Y643D01*
X352Y645D01*
X354Y645D01*
X354Y647D01*
X356Y647D01*
X356Y649D01*
X358Y649D01*
X358Y651D01*
X360Y651D01*
X360Y653D01*
X362Y653D01*
X362Y655D01*
X364Y655D01*
X364Y657D01*
X366Y657D01*
X366Y659D01*
X368Y659D01*
X368Y661D01*
X370Y661D01*
X370Y663D01*
X372Y663D01*
X372Y665D01*
X374Y665D01*
X374Y667D01*
X376Y667D01*
X376Y687D01*
X308Y687D01*
X308Y763D01*
X40Y763D01*
G37*
D02*
G36*
X414Y665D02*
X414Y659D01*
X412Y659D01*
X412Y657D01*
X410Y657D01*
X410Y655D01*
X408Y655D01*
X408Y653D01*
X406Y653D01*
X406Y651D01*
X404Y651D01*
X404Y649D01*
X402Y649D01*
X402Y647D01*
X400Y647D01*
X400Y645D01*
X398Y645D01*
X398Y643D01*
X396Y643D01*
X396Y641D01*
X394Y641D01*
X394Y639D01*
X392Y639D01*
X392Y637D01*
X390Y637D01*
X390Y635D01*
X388Y635D01*
X388Y633D01*
X386Y633D01*
X386Y631D01*
X384Y631D01*
X384Y629D01*
X382Y629D01*
X382Y627D01*
X380Y627D01*
X380Y625D01*
X378Y625D01*
X378Y623D01*
X376Y623D01*
X376Y621D01*
X374Y621D01*
X374Y619D01*
X372Y619D01*
X372Y617D01*
X370Y617D01*
X370Y615D01*
X368Y615D01*
X368Y613D01*
X366Y613D01*
X366Y611D01*
X364Y611D01*
X364Y609D01*
X362Y609D01*
X362Y607D01*
X360Y607D01*
X360Y605D01*
X358Y605D01*
X358Y603D01*
X356Y603D01*
X356Y601D01*
X354Y601D01*
X354Y599D01*
X352Y599D01*
X352Y597D01*
X350Y597D01*
X350Y595D01*
X348Y595D01*
X348Y593D01*
X346Y593D01*
X346Y591D01*
X344Y591D01*
X344Y589D01*
X342Y589D01*
X342Y587D01*
X340Y587D01*
X340Y585D01*
X338Y585D01*
X338Y583D01*
X336Y583D01*
X336Y581D01*
X334Y581D01*
X334Y579D01*
X332Y579D01*
X332Y577D01*
X330Y577D01*
X330Y575D01*
X328Y575D01*
X328Y573D01*
X326Y573D01*
X326Y571D01*
X324Y571D01*
X324Y569D01*
X322Y569D01*
X322Y549D01*
X392Y549D01*
X392Y439D01*
X378Y439D01*
X378Y407D01*
X376Y407D01*
X376Y403D01*
X374Y403D01*
X374Y401D01*
X372Y401D01*
X372Y399D01*
X370Y399D01*
X370Y397D01*
X368Y397D01*
X368Y395D01*
X366Y395D01*
X366Y393D01*
X362Y393D01*
X362Y391D01*
X358Y391D01*
X358Y389D01*
X452Y389D01*
X452Y393D01*
X450Y393D01*
X450Y395D01*
X448Y395D01*
X448Y397D01*
X446Y397D01*
X446Y399D01*
X444Y399D01*
X444Y401D01*
X442Y401D01*
X442Y405D01*
X440Y405D01*
X440Y407D01*
X438Y407D01*
X438Y409D01*
X436Y409D01*
X436Y413D01*
X434Y413D01*
X434Y665D01*
X414Y665D01*
G37*
D02*
G36*
X40Y571D02*
X40Y461D01*
X82Y461D01*
X82Y571D01*
X40Y571D01*
G37*
D02*
G36*
X288Y535D02*
X288Y533D01*
X286Y533D01*
X286Y531D01*
X284Y531D01*
X284Y529D01*
X280Y529D01*
X280Y527D01*
X166Y527D01*
X166Y461D01*
X308Y461D01*
X308Y535D01*
X288Y535D01*
G37*
D02*
G36*
X40Y461D02*
X40Y459D01*
X308Y459D01*
X308Y461D01*
X40Y461D01*
G37*
D02*
G36*
X40Y461D02*
X40Y459D01*
X308Y459D01*
X308Y461D01*
X40Y461D01*
G37*
D02*
G36*
X40Y459D02*
X40Y389D01*
X342Y389D01*
X342Y391D01*
X336Y391D01*
X336Y393D01*
X332Y393D01*
X332Y395D01*
X330Y395D01*
X330Y397D01*
X328Y397D01*
X328Y399D01*
X326Y399D01*
X326Y401D01*
X324Y401D01*
X324Y405D01*
X322Y405D01*
X322Y411D01*
X320Y411D01*
X320Y439D01*
X308Y439D01*
X308Y459D01*
X40Y459D01*
G37*
D02*
G36*
X40Y389D02*
X40Y387D01*
X454Y387D01*
X454Y389D01*
X40Y389D01*
G37*
D02*
G36*
X40Y389D02*
X40Y387D01*
X454Y387D01*
X454Y389D01*
X40Y389D01*
G37*
D02*
G36*
X40Y387D02*
X40Y347D01*
X392Y347D01*
X392Y237D01*
X532Y237D01*
X532Y297D01*
X530Y297D01*
X530Y299D01*
X528Y299D01*
X528Y301D01*
X526Y301D01*
X526Y305D01*
X524Y305D01*
X524Y307D01*
X522Y307D01*
X522Y309D01*
X520Y309D01*
X520Y311D01*
X518Y311D01*
X518Y313D01*
X516Y313D01*
X516Y317D01*
X514Y317D01*
X514Y319D01*
X512Y319D01*
X512Y321D01*
X510Y321D01*
X510Y323D01*
X508Y323D01*
X508Y325D01*
X506Y325D01*
X506Y327D01*
X504Y327D01*
X504Y331D01*
X502Y331D01*
X502Y333D01*
X500Y333D01*
X500Y335D01*
X498Y335D01*
X498Y337D01*
X496Y337D01*
X496Y339D01*
X494Y339D01*
X494Y343D01*
X492Y343D01*
X492Y345D01*
X490Y345D01*
X490Y347D01*
X488Y347D01*
X488Y349D01*
X486Y349D01*
X486Y351D01*
X484Y351D01*
X484Y355D01*
X482Y355D01*
X482Y357D01*
X480Y357D01*
X480Y359D01*
X478Y359D01*
X478Y361D01*
X476Y361D01*
X476Y363D01*
X474Y363D01*
X474Y367D01*
X472Y367D01*
X472Y369D01*
X470Y369D01*
X470Y371D01*
X468Y371D01*
X468Y373D01*
X466Y373D01*
X466Y375D01*
X464Y375D01*
X464Y377D01*
X462Y377D01*
X462Y381D01*
X460Y381D01*
X460Y383D01*
X458Y383D01*
X458Y385D01*
X456Y385D01*
X456Y387D01*
X40Y387D01*
G37*
D02*
G36*
X40Y347D02*
X40Y323D01*
X166Y323D01*
X166Y237D01*
X308Y237D01*
X308Y347D01*
X40Y347D01*
G37*
D02*
G36*
X40Y323D02*
X40Y165D01*
X60Y165D01*
X60Y169D01*
X62Y169D01*
X62Y171D01*
X64Y171D01*
X64Y173D01*
X66Y173D01*
X66Y175D01*
X68Y175D01*
X68Y177D01*
X70Y177D01*
X70Y179D01*
X72Y179D01*
X72Y181D01*
X74Y181D01*
X74Y183D01*
X78Y183D01*
X78Y185D01*
X80Y185D01*
X80Y187D01*
X84Y187D01*
X84Y189D01*
X86Y189D01*
X86Y191D01*
X92Y191D01*
X92Y193D01*
X96Y193D01*
X96Y213D01*
X82Y213D01*
X82Y323D01*
X40Y323D01*
G37*
D02*
G36*
X166Y237D02*
X166Y235D01*
X532Y235D01*
X532Y237D01*
X166Y237D01*
G37*
D02*
G36*
X166Y237D02*
X166Y235D01*
X532Y235D01*
X532Y237D01*
X166Y237D01*
G37*
D02*
G36*
X166Y235D02*
X166Y213D01*
X152Y213D01*
X152Y199D01*
X350Y199D01*
X350Y197D01*
X360Y197D01*
X360Y195D01*
X364Y195D01*
X364Y193D01*
X368Y193D01*
X368Y191D01*
X370Y191D01*
X370Y189D01*
X372Y189D01*
X372Y185D01*
X374Y185D01*
X374Y183D01*
X376Y183D01*
X376Y179D01*
X378Y179D01*
X378Y157D01*
X376Y157D01*
X376Y153D01*
X374Y153D01*
X374Y151D01*
X372Y151D01*
X372Y149D01*
X450Y149D01*
X450Y147D01*
X460Y147D01*
X460Y145D01*
X464Y145D01*
X464Y143D01*
X468Y143D01*
X468Y141D01*
X470Y141D01*
X470Y139D01*
X472Y139D01*
X472Y135D01*
X494Y135D01*
X494Y137D01*
X496Y137D01*
X496Y139D01*
X498Y139D01*
X498Y141D01*
X500Y141D01*
X500Y143D01*
X502Y143D01*
X502Y145D01*
X504Y145D01*
X504Y147D01*
X506Y147D01*
X506Y149D01*
X508Y149D01*
X508Y151D01*
X510Y151D01*
X510Y153D01*
X512Y153D01*
X512Y155D01*
X514Y155D01*
X514Y157D01*
X516Y157D01*
X516Y159D01*
X546Y159D01*
X546Y161D01*
X548Y161D01*
X548Y163D01*
X550Y163D01*
X550Y165D01*
X552Y165D01*
X552Y167D01*
X554Y167D01*
X554Y169D01*
X556Y169D01*
X556Y171D01*
X558Y171D01*
X558Y173D01*
X560Y173D01*
X560Y175D01*
X562Y175D01*
X562Y177D01*
X564Y177D01*
X564Y179D01*
X566Y179D01*
X566Y181D01*
X568Y181D01*
X568Y183D01*
X570Y183D01*
X570Y185D01*
X572Y185D01*
X572Y187D01*
X574Y187D01*
X574Y189D01*
X576Y189D01*
X576Y191D01*
X578Y191D01*
X578Y193D01*
X580Y193D01*
X580Y195D01*
X582Y195D01*
X582Y215D01*
X532Y215D01*
X532Y235D01*
X166Y235D01*
G37*
D02*
G36*
X152Y199D02*
X152Y193D01*
X158Y193D01*
X158Y191D01*
X162Y191D01*
X162Y189D01*
X166Y189D01*
X166Y187D01*
X168Y187D01*
X168Y185D01*
X172Y185D01*
X172Y183D01*
X174Y183D01*
X174Y181D01*
X176Y181D01*
X176Y179D01*
X178Y179D01*
X178Y177D01*
X182Y177D01*
X182Y173D01*
X184Y173D01*
X184Y171D01*
X186Y171D01*
X186Y169D01*
X188Y169D01*
X188Y167D01*
X190Y167D01*
X190Y163D01*
X192Y163D01*
X192Y161D01*
X194Y161D01*
X194Y157D01*
X196Y157D01*
X196Y153D01*
X198Y153D01*
X198Y149D01*
X200Y149D01*
X200Y143D01*
X202Y143D01*
X202Y137D01*
X204Y137D01*
X204Y121D01*
X206Y121D01*
X206Y115D01*
X204Y115D01*
X204Y101D01*
X202Y101D01*
X202Y93D01*
X200Y93D01*
X200Y87D01*
X198Y87D01*
X198Y83D01*
X196Y83D01*
X196Y79D01*
X194Y79D01*
X194Y77D01*
X192Y77D01*
X192Y73D01*
X190Y73D01*
X190Y71D01*
X188Y71D01*
X188Y67D01*
X186Y67D01*
X186Y65D01*
X184Y65D01*
X184Y63D01*
X182Y63D01*
X182Y61D01*
X180Y61D01*
X180Y41D01*
X308Y41D01*
X308Y99D01*
X334Y99D01*
X334Y143D01*
X332Y143D01*
X332Y145D01*
X330Y145D01*
X330Y147D01*
X328Y147D01*
X328Y149D01*
X326Y149D01*
X326Y151D01*
X324Y151D01*
X324Y155D01*
X322Y155D01*
X322Y161D01*
X320Y161D01*
X320Y177D01*
X322Y177D01*
X322Y181D01*
X324Y181D01*
X324Y185D01*
X326Y185D01*
X326Y187D01*
X328Y187D01*
X328Y189D01*
X330Y189D01*
X330Y191D01*
X332Y191D01*
X332Y193D01*
X334Y193D01*
X334Y195D01*
X338Y195D01*
X338Y197D01*
X348Y197D01*
X348Y199D01*
X152Y199D01*
G37*
D02*
G36*
X370Y149D02*
X370Y147D01*
X368Y147D01*
X368Y145D01*
X366Y145D01*
X366Y99D01*
X392Y99D01*
X392Y41D01*
X436Y41D01*
X436Y63D01*
X434Y63D01*
X434Y93D01*
X432Y93D01*
X432Y95D01*
X430Y95D01*
X430Y97D01*
X428Y97D01*
X428Y99D01*
X426Y99D01*
X426Y101D01*
X424Y101D01*
X424Y105D01*
X422Y105D01*
X422Y111D01*
X420Y111D01*
X420Y127D01*
X422Y127D01*
X422Y131D01*
X424Y131D01*
X424Y135D01*
X426Y135D01*
X426Y137D01*
X428Y137D01*
X428Y139D01*
X430Y139D01*
X430Y141D01*
X432Y141D01*
X432Y143D01*
X434Y143D01*
X434Y145D01*
X438Y145D01*
X438Y147D01*
X448Y147D01*
X448Y149D01*
X370Y149D01*
G37*
D02*
G36*
X566Y735D02*
X566Y673D01*
X568Y673D01*
X568Y671D01*
X570Y671D01*
X570Y669D01*
X572Y669D01*
X572Y667D01*
X574Y667D01*
X574Y665D01*
X576Y665D01*
X576Y663D01*
X578Y663D01*
X578Y661D01*
X580Y661D01*
X580Y659D01*
X582Y659D01*
X582Y657D01*
X584Y657D01*
X584Y655D01*
X586Y655D01*
X586Y653D01*
X588Y653D01*
X588Y651D01*
X590Y651D01*
X590Y649D01*
X592Y649D01*
X592Y647D01*
X594Y647D01*
X594Y645D01*
X614Y645D01*
X614Y707D01*
X612Y707D01*
X612Y709D01*
X610Y709D01*
X610Y711D01*
X608Y711D01*
X608Y713D01*
X606Y713D01*
X606Y715D01*
X604Y715D01*
X604Y717D01*
X602Y717D01*
X602Y719D01*
X600Y719D01*
X600Y721D01*
X598Y721D01*
X598Y723D01*
X596Y723D01*
X596Y725D01*
X594Y725D01*
X594Y727D01*
X592Y727D01*
X592Y729D01*
X590Y729D01*
X590Y731D01*
X588Y731D01*
X588Y733D01*
X586Y733D01*
X586Y735D01*
X566Y735D01*
G37*
D02*
G36*
X1016Y693D02*
X1016Y573D01*
X1056Y573D01*
X1056Y571D01*
X1076Y571D01*
X1076Y627D01*
X1074Y627D01*
X1074Y629D01*
X1072Y629D01*
X1072Y635D01*
X1070Y635D01*
X1070Y651D01*
X1072Y651D01*
X1072Y657D01*
X1074Y657D01*
X1074Y661D01*
X1076Y661D01*
X1076Y663D01*
X1078Y663D01*
X1078Y665D01*
X1080Y665D01*
X1080Y667D01*
X1082Y667D01*
X1082Y669D01*
X1086Y669D01*
X1086Y671D01*
X1092Y671D01*
X1092Y673D01*
X1110Y673D01*
X1110Y691D01*
X1108Y691D01*
X1108Y693D01*
X1016Y693D01*
G37*
D02*
G36*
X1016Y573D02*
X1016Y569D01*
X1036Y569D01*
X1036Y571D01*
X1042Y571D01*
X1042Y573D01*
X1016Y573D01*
G37*
D02*
G36*
X1490Y687D02*
X1490Y587D01*
X1488Y587D01*
X1488Y585D01*
X1486Y585D01*
X1486Y581D01*
X1484Y581D01*
X1484Y579D01*
X1482Y579D01*
X1482Y575D01*
X1480Y575D01*
X1480Y573D01*
X1478Y573D01*
X1478Y569D01*
X1476Y569D01*
X1476Y567D01*
X1474Y567D01*
X1474Y565D01*
X1472Y565D01*
X1472Y561D01*
X1470Y561D01*
X1470Y559D01*
X1468Y559D01*
X1468Y555D01*
X1466Y555D01*
X1466Y553D01*
X1464Y553D01*
X1464Y551D01*
X1462Y551D01*
X1462Y547D01*
X1460Y547D01*
X1460Y545D01*
X1458Y545D01*
X1458Y541D01*
X1456Y541D01*
X1456Y539D01*
X1454Y539D01*
X1454Y537D01*
X1452Y537D01*
X1452Y533D01*
X1450Y533D01*
X1450Y531D01*
X1448Y531D01*
X1448Y509D01*
X1482Y509D01*
X1482Y547D01*
X1484Y547D01*
X1484Y549D01*
X1560Y549D01*
X1560Y577D01*
X1562Y577D01*
X1562Y583D01*
X1564Y583D01*
X1564Y587D01*
X1566Y587D01*
X1566Y591D01*
X1568Y591D01*
X1568Y593D01*
X1570Y593D01*
X1570Y595D01*
X1572Y595D01*
X1572Y597D01*
X1574Y597D01*
X1574Y599D01*
X1576Y599D01*
X1576Y601D01*
X1578Y601D01*
X1578Y603D01*
X1582Y603D01*
X1582Y605D01*
X1588Y605D01*
X1588Y607D01*
X1612Y607D01*
X1612Y679D01*
X1590Y679D01*
X1590Y681D01*
X1584Y681D01*
X1584Y683D01*
X1580Y683D01*
X1580Y685D01*
X1576Y685D01*
X1576Y687D01*
X1490Y687D01*
G37*
D02*
G36*
X740Y665D02*
X740Y663D01*
X738Y663D01*
X738Y659D01*
X736Y659D01*
X736Y657D01*
X734Y657D01*
X734Y655D01*
X732Y655D01*
X732Y653D01*
X730Y653D01*
X730Y651D01*
X728Y651D01*
X728Y649D01*
X726Y649D01*
X726Y647D01*
X724Y647D01*
X724Y645D01*
X722Y645D01*
X722Y643D01*
X720Y643D01*
X720Y641D01*
X718Y641D01*
X718Y621D01*
X750Y621D01*
X750Y611D01*
X770Y611D01*
X770Y613D01*
X772Y613D01*
X772Y615D01*
X774Y615D01*
X774Y617D01*
X776Y617D01*
X776Y619D01*
X778Y619D01*
X778Y621D01*
X780Y621D01*
X780Y623D01*
X782Y623D01*
X782Y625D01*
X784Y625D01*
X784Y627D01*
X786Y627D01*
X786Y629D01*
X788Y629D01*
X788Y631D01*
X792Y631D01*
X792Y633D01*
X796Y633D01*
X796Y635D01*
X868Y635D01*
X868Y655D01*
X864Y655D01*
X864Y657D01*
X862Y657D01*
X862Y661D01*
X860Y661D01*
X860Y665D01*
X740Y665D01*
G37*
D02*
G36*
X1204Y693D02*
X1204Y661D01*
X1202Y661D01*
X1202Y655D01*
X1200Y655D01*
X1200Y653D01*
X1198Y653D01*
X1198Y649D01*
X1196Y649D01*
X1196Y647D01*
X1194Y647D01*
X1194Y645D01*
X1192Y645D01*
X1192Y643D01*
X1188Y643D01*
X1188Y641D01*
X1182Y641D01*
X1182Y639D01*
X1234Y639D01*
X1234Y693D01*
X1204Y693D01*
G37*
D02*
G36*
X1128Y653D02*
X1128Y639D01*
X1166Y639D01*
X1166Y641D01*
X1162Y641D01*
X1162Y643D01*
X1158Y643D01*
X1158Y645D01*
X1156Y645D01*
X1156Y647D01*
X1152Y647D01*
X1152Y651D01*
X1150Y651D01*
X1150Y653D01*
X1128Y653D01*
G37*
D02*
G36*
X1128Y639D02*
X1128Y637D01*
X1234Y637D01*
X1234Y639D01*
X1128Y639D01*
G37*
D02*
G36*
X1128Y639D02*
X1128Y637D01*
X1234Y637D01*
X1234Y639D01*
X1128Y639D01*
G37*
D02*
G36*
X1128Y637D02*
X1128Y633D01*
X1126Y633D01*
X1126Y629D01*
X1124Y629D01*
X1124Y625D01*
X1122Y625D01*
X1122Y623D01*
X1120Y623D01*
X1120Y621D01*
X1118Y621D01*
X1118Y619D01*
X1114Y619D01*
X1114Y617D01*
X1110Y617D01*
X1110Y615D01*
X1108Y615D01*
X1108Y447D01*
X1170Y447D01*
X1170Y549D01*
X1172Y549D01*
X1172Y553D01*
X1174Y553D01*
X1174Y555D01*
X1176Y555D01*
X1176Y557D01*
X1178Y557D01*
X1178Y559D01*
X1180Y559D01*
X1180Y561D01*
X1182Y561D01*
X1182Y565D01*
X1184Y565D01*
X1184Y567D01*
X1186Y567D01*
X1186Y569D01*
X1188Y569D01*
X1188Y571D01*
X1190Y571D01*
X1190Y573D01*
X1192Y573D01*
X1192Y577D01*
X1194Y577D01*
X1194Y579D01*
X1196Y579D01*
X1196Y581D01*
X1198Y581D01*
X1198Y583D01*
X1200Y583D01*
X1200Y585D01*
X1202Y585D01*
X1202Y589D01*
X1204Y589D01*
X1204Y591D01*
X1206Y591D01*
X1206Y593D01*
X1208Y593D01*
X1208Y595D01*
X1210Y595D01*
X1210Y597D01*
X1212Y597D01*
X1212Y601D01*
X1214Y601D01*
X1214Y603D01*
X1216Y603D01*
X1216Y605D01*
X1218Y605D01*
X1218Y607D01*
X1220Y607D01*
X1220Y609D01*
X1222Y609D01*
X1222Y611D01*
X1224Y611D01*
X1224Y615D01*
X1226Y615D01*
X1226Y617D01*
X1228Y617D01*
X1228Y619D01*
X1230Y619D01*
X1230Y621D01*
X1232Y621D01*
X1232Y623D01*
X1234Y623D01*
X1234Y637D01*
X1128Y637D01*
G37*
D02*
G36*
X534Y641D02*
X534Y633D01*
X466Y633D01*
X466Y423D01*
X468Y423D01*
X468Y421D01*
X470Y421D01*
X470Y419D01*
X472Y419D01*
X472Y415D01*
X474Y415D01*
X474Y413D01*
X476Y413D01*
X476Y411D01*
X478Y411D01*
X478Y409D01*
X480Y409D01*
X480Y407D01*
X482Y407D01*
X482Y403D01*
X484Y403D01*
X484Y401D01*
X486Y401D01*
X486Y399D01*
X488Y399D01*
X488Y397D01*
X490Y397D01*
X490Y395D01*
X492Y395D01*
X492Y393D01*
X494Y393D01*
X494Y389D01*
X566Y389D01*
X566Y391D01*
X562Y391D01*
X562Y393D01*
X558Y393D01*
X558Y395D01*
X556Y395D01*
X556Y397D01*
X552Y397D01*
X552Y401D01*
X550Y401D01*
X550Y403D01*
X548Y403D01*
X548Y407D01*
X546Y407D01*
X546Y415D01*
X544Y415D01*
X544Y421D01*
X546Y421D01*
X546Y429D01*
X548Y429D01*
X548Y433D01*
X550Y433D01*
X550Y437D01*
X552Y437D01*
X552Y439D01*
X554Y439D01*
X554Y441D01*
X556Y441D01*
X556Y443D01*
X560Y443D01*
X560Y463D01*
X532Y463D01*
X532Y573D01*
X604Y573D01*
X604Y593D01*
X602Y593D01*
X602Y595D01*
X600Y595D01*
X600Y597D01*
X598Y597D01*
X598Y599D01*
X596Y599D01*
X596Y601D01*
X594Y601D01*
X594Y603D01*
X592Y603D01*
X592Y605D01*
X590Y605D01*
X590Y607D01*
X588Y607D01*
X588Y609D01*
X586Y609D01*
X586Y611D01*
X584Y611D01*
X584Y613D01*
X582Y613D01*
X582Y615D01*
X580Y615D01*
X580Y617D01*
X578Y617D01*
X578Y619D01*
X576Y619D01*
X576Y621D01*
X574Y621D01*
X574Y623D01*
X570Y623D01*
X570Y625D01*
X568Y625D01*
X568Y627D01*
X566Y627D01*
X566Y629D01*
X564Y629D01*
X564Y631D01*
X562Y631D01*
X562Y633D01*
X560Y633D01*
X560Y635D01*
X558Y635D01*
X558Y637D01*
X556Y637D01*
X556Y639D01*
X554Y639D01*
X554Y641D01*
X534Y641D01*
G37*
D02*
G36*
X738Y511D02*
X738Y507D01*
X736Y507D01*
X736Y505D01*
X734Y505D01*
X734Y503D01*
X732Y503D01*
X732Y501D01*
X728Y501D01*
X728Y499D01*
X726Y499D01*
X726Y497D01*
X724Y497D01*
X724Y495D01*
X722Y495D01*
X722Y493D01*
X720Y493D01*
X720Y491D01*
X718Y491D01*
X718Y489D01*
X716Y489D01*
X716Y487D01*
X714Y487D01*
X714Y485D01*
X712Y485D01*
X712Y483D01*
X710Y483D01*
X710Y481D01*
X706Y481D01*
X706Y479D01*
X698Y479D01*
X698Y477D01*
X752Y477D01*
X752Y479D01*
X758Y479D01*
X758Y511D01*
X738Y511D01*
G37*
D02*
G36*
X616Y485D02*
X616Y477D01*
X650Y477D01*
X650Y479D01*
X642Y479D01*
X642Y481D01*
X638Y481D01*
X638Y483D01*
X636Y483D01*
X636Y485D01*
X616Y485D01*
G37*
D02*
G36*
X616Y477D02*
X616Y475D01*
X752Y475D01*
X752Y477D01*
X616Y477D01*
G37*
D02*
G36*
X616Y477D02*
X616Y475D01*
X752Y475D01*
X752Y477D01*
X616Y477D01*
G37*
D02*
G36*
X616Y475D02*
X616Y463D01*
X588Y463D01*
X588Y443D01*
X592Y443D01*
X592Y441D01*
X594Y441D01*
X594Y439D01*
X596Y439D01*
X596Y437D01*
X598Y437D01*
X598Y435D01*
X600Y435D01*
X600Y431D01*
X602Y431D01*
X602Y425D01*
X604Y425D01*
X604Y411D01*
X602Y411D01*
X602Y405D01*
X600Y405D01*
X600Y403D01*
X598Y403D01*
X598Y399D01*
X596Y399D01*
X596Y397D01*
X594Y397D01*
X594Y395D01*
X592Y395D01*
X592Y393D01*
X588Y393D01*
X588Y391D01*
X582Y391D01*
X582Y389D01*
X704Y389D01*
X704Y391D01*
X706Y391D01*
X706Y393D01*
X710Y393D01*
X710Y395D01*
X714Y395D01*
X714Y397D01*
X752Y397D01*
X752Y475D01*
X616Y475D01*
G37*
D02*
G36*
X496Y389D02*
X496Y387D01*
X702Y387D01*
X702Y389D01*
X496Y389D01*
G37*
D02*
G36*
X496Y389D02*
X496Y387D01*
X702Y387D01*
X702Y389D01*
X496Y389D01*
G37*
D02*
G36*
X498Y387D02*
X498Y385D01*
X500Y385D01*
X500Y383D01*
X502Y383D01*
X502Y381D01*
X504Y381D01*
X504Y377D01*
X506Y377D01*
X506Y375D01*
X508Y375D01*
X508Y373D01*
X510Y373D01*
X510Y371D01*
X512Y371D01*
X512Y369D01*
X514Y369D01*
X514Y365D01*
X516Y365D01*
X516Y363D01*
X518Y363D01*
X518Y361D01*
X520Y361D01*
X520Y359D01*
X522Y359D01*
X522Y357D01*
X524Y357D01*
X524Y353D01*
X526Y353D01*
X526Y351D01*
X528Y351D01*
X528Y349D01*
X530Y349D01*
X530Y347D01*
X532Y347D01*
X532Y345D01*
X534Y345D01*
X534Y343D01*
X536Y343D01*
X536Y339D01*
X538Y339D01*
X538Y337D01*
X540Y337D01*
X540Y335D01*
X542Y335D01*
X542Y333D01*
X544Y333D01*
X544Y331D01*
X546Y331D01*
X546Y327D01*
X548Y327D01*
X548Y325D01*
X616Y325D01*
X616Y293D01*
X680Y293D01*
X680Y291D01*
X682Y291D01*
X682Y289D01*
X684Y289D01*
X684Y287D01*
X686Y287D01*
X686Y285D01*
X688Y285D01*
X688Y283D01*
X690Y283D01*
X690Y281D01*
X712Y281D01*
X712Y283D01*
X716Y283D01*
X716Y285D01*
X720Y285D01*
X720Y287D01*
X728Y287D01*
X728Y289D01*
X736Y289D01*
X736Y291D01*
X740Y291D01*
X740Y339D01*
X716Y339D01*
X716Y341D01*
X712Y341D01*
X712Y343D01*
X708Y343D01*
X708Y345D01*
X706Y345D01*
X706Y347D01*
X702Y347D01*
X702Y351D01*
X700Y351D01*
X700Y353D01*
X698Y353D01*
X698Y357D01*
X696Y357D01*
X696Y365D01*
X694Y365D01*
X694Y371D01*
X696Y371D01*
X696Y379D01*
X698Y379D01*
X698Y383D01*
X700Y383D01*
X700Y387D01*
X498Y387D01*
G37*
D02*
G36*
X616Y293D02*
X616Y249D01*
X636Y249D01*
X636Y251D01*
X638Y251D01*
X638Y253D01*
X640Y253D01*
X640Y255D01*
X642Y255D01*
X642Y257D01*
X644Y257D01*
X644Y259D01*
X646Y259D01*
X646Y261D01*
X648Y261D01*
X648Y263D01*
X650Y263D01*
X650Y265D01*
X652Y265D01*
X652Y267D01*
X654Y267D01*
X654Y269D01*
X656Y269D01*
X656Y271D01*
X658Y271D01*
X658Y273D01*
X660Y273D01*
X660Y275D01*
X662Y275D01*
X662Y277D01*
X664Y277D01*
X664Y279D01*
X666Y279D01*
X666Y281D01*
X668Y281D01*
X668Y283D01*
X670Y283D01*
X670Y285D01*
X672Y285D01*
X672Y287D01*
X674Y287D01*
X674Y289D01*
X676Y289D01*
X676Y291D01*
X678Y291D01*
X678Y293D01*
X616Y293D01*
G37*
D02*
G36*
X806Y603D02*
X806Y601D01*
X804Y601D01*
X804Y599D01*
X802Y599D01*
X802Y597D01*
X800Y597D01*
X800Y595D01*
X798Y595D01*
X798Y593D01*
X796Y593D01*
X796Y591D01*
X794Y591D01*
X794Y589D01*
X792Y589D01*
X792Y587D01*
X790Y587D01*
X790Y549D01*
X810Y549D01*
X810Y553D01*
X812Y553D01*
X812Y555D01*
X814Y555D01*
X814Y557D01*
X816Y557D01*
X816Y559D01*
X820Y559D01*
X820Y561D01*
X822Y561D01*
X822Y563D01*
X824Y563D01*
X824Y565D01*
X826Y565D01*
X826Y567D01*
X828Y567D01*
X828Y569D01*
X830Y569D01*
X830Y571D01*
X834Y571D01*
X834Y573D01*
X836Y573D01*
X836Y575D01*
X838Y575D01*
X838Y577D01*
X840Y577D01*
X840Y579D01*
X842Y579D01*
X842Y581D01*
X846Y581D01*
X846Y583D01*
X848Y583D01*
X848Y603D01*
X806Y603D01*
G37*
D02*
G36*
X1240Y583D02*
X1240Y581D01*
X1238Y581D01*
X1238Y579D01*
X1236Y579D01*
X1236Y577D01*
X1234Y577D01*
X1234Y575D01*
X1232Y575D01*
X1232Y571D01*
X1230Y571D01*
X1230Y569D01*
X1228Y569D01*
X1228Y567D01*
X1226Y567D01*
X1226Y565D01*
X1224Y565D01*
X1224Y563D01*
X1222Y563D01*
X1222Y559D01*
X1220Y559D01*
X1220Y557D01*
X1218Y557D01*
X1218Y555D01*
X1216Y555D01*
X1216Y553D01*
X1214Y553D01*
X1214Y551D01*
X1212Y551D01*
X1212Y547D01*
X1210Y547D01*
X1210Y545D01*
X1208Y545D01*
X1208Y543D01*
X1206Y543D01*
X1206Y541D01*
X1204Y541D01*
X1204Y539D01*
X1202Y539D01*
X1202Y447D01*
X1260Y447D01*
X1260Y583D01*
X1240Y583D01*
G37*
D02*
G36*
X1566Y531D02*
X1566Y455D01*
X1588Y455D01*
X1588Y457D01*
X1612Y457D01*
X1612Y529D01*
X1590Y529D01*
X1590Y531D01*
X1566Y531D01*
G37*
D02*
G36*
X1372Y477D02*
X1372Y475D01*
X1326Y475D01*
X1326Y449D01*
X1390Y449D01*
X1390Y397D01*
X1484Y397D01*
X1484Y395D01*
X1488Y395D01*
X1488Y393D01*
X1492Y393D01*
X1492Y391D01*
X1494Y391D01*
X1494Y389D01*
X1496Y389D01*
X1496Y387D01*
X1498Y387D01*
X1498Y385D01*
X1500Y385D01*
X1500Y381D01*
X1502Y381D01*
X1502Y375D01*
X1504Y375D01*
X1504Y361D01*
X1502Y361D01*
X1502Y355D01*
X1500Y355D01*
X1500Y353D01*
X1498Y353D01*
X1498Y349D01*
X1496Y349D01*
X1496Y347D01*
X1494Y347D01*
X1494Y345D01*
X1492Y345D01*
X1492Y343D01*
X1490Y343D01*
X1490Y263D01*
X1488Y263D01*
X1488Y259D01*
X1486Y259D01*
X1486Y257D01*
X1484Y257D01*
X1484Y255D01*
X1482Y255D01*
X1482Y253D01*
X1480Y253D01*
X1480Y251D01*
X1478Y251D01*
X1478Y249D01*
X1476Y249D01*
X1476Y247D01*
X1474Y247D01*
X1474Y245D01*
X1472Y245D01*
X1472Y243D01*
X1470Y243D01*
X1470Y241D01*
X1468Y241D01*
X1468Y239D01*
X1466Y239D01*
X1466Y237D01*
X1464Y237D01*
X1464Y235D01*
X1462Y235D01*
X1462Y233D01*
X1460Y233D01*
X1460Y231D01*
X1458Y231D01*
X1458Y229D01*
X1456Y229D01*
X1456Y227D01*
X1454Y227D01*
X1454Y225D01*
X1452Y225D01*
X1452Y223D01*
X1450Y223D01*
X1450Y221D01*
X1448Y221D01*
X1448Y219D01*
X1446Y219D01*
X1446Y217D01*
X1444Y217D01*
X1444Y215D01*
X1442Y215D01*
X1442Y213D01*
X1440Y213D01*
X1440Y211D01*
X1438Y211D01*
X1438Y209D01*
X1436Y209D01*
X1436Y207D01*
X1434Y207D01*
X1434Y205D01*
X1430Y205D01*
X1430Y203D01*
X1390Y203D01*
X1390Y199D01*
X1538Y199D01*
X1538Y197D01*
X1546Y197D01*
X1546Y195D01*
X1552Y195D01*
X1552Y193D01*
X1558Y193D01*
X1558Y191D01*
X1562Y191D01*
X1562Y189D01*
X1566Y189D01*
X1566Y187D01*
X1568Y187D01*
X1568Y185D01*
X1572Y185D01*
X1572Y183D01*
X1574Y183D01*
X1574Y181D01*
X1576Y181D01*
X1576Y179D01*
X1578Y179D01*
X1578Y177D01*
X1582Y177D01*
X1582Y173D01*
X1584Y173D01*
X1584Y171D01*
X1586Y171D01*
X1586Y169D01*
X1588Y169D01*
X1588Y167D01*
X1590Y167D01*
X1590Y163D01*
X1592Y163D01*
X1592Y161D01*
X1612Y161D01*
X1612Y229D01*
X1590Y229D01*
X1590Y231D01*
X1584Y231D01*
X1584Y233D01*
X1580Y233D01*
X1580Y235D01*
X1576Y235D01*
X1576Y237D01*
X1574Y237D01*
X1574Y239D01*
X1572Y239D01*
X1572Y241D01*
X1570Y241D01*
X1570Y243D01*
X1568Y243D01*
X1568Y245D01*
X1566Y245D01*
X1566Y249D01*
X1564Y249D01*
X1564Y253D01*
X1562Y253D01*
X1562Y259D01*
X1560Y259D01*
X1560Y277D01*
X1562Y277D01*
X1562Y283D01*
X1564Y283D01*
X1564Y287D01*
X1566Y287D01*
X1566Y291D01*
X1568Y291D01*
X1568Y293D01*
X1570Y293D01*
X1570Y295D01*
X1572Y295D01*
X1572Y297D01*
X1574Y297D01*
X1574Y299D01*
X1576Y299D01*
X1576Y301D01*
X1578Y301D01*
X1578Y303D01*
X1582Y303D01*
X1582Y305D01*
X1588Y305D01*
X1588Y307D01*
X1612Y307D01*
X1612Y379D01*
X1590Y379D01*
X1590Y381D01*
X1584Y381D01*
X1584Y383D01*
X1580Y383D01*
X1580Y385D01*
X1576Y385D01*
X1576Y387D01*
X1574Y387D01*
X1574Y389D01*
X1572Y389D01*
X1572Y391D01*
X1570Y391D01*
X1570Y393D01*
X1568Y393D01*
X1568Y395D01*
X1566Y395D01*
X1566Y399D01*
X1564Y399D01*
X1564Y403D01*
X1562Y403D01*
X1562Y409D01*
X1560Y409D01*
X1560Y439D01*
X1482Y439D01*
X1482Y477D01*
X1372Y477D01*
G37*
D02*
G36*
X1390Y397D02*
X1390Y393D01*
X1410Y393D01*
X1410Y395D01*
X1414Y395D01*
X1414Y397D01*
X1390Y397D01*
G37*
D02*
G36*
X1434Y397D02*
X1434Y395D01*
X1438Y395D01*
X1438Y393D01*
X1460Y393D01*
X1460Y395D01*
X1464Y395D01*
X1464Y397D01*
X1434Y397D01*
G37*
D02*
G36*
X1390Y199D02*
X1390Y173D01*
X1432Y173D01*
X1432Y171D01*
X1438Y171D01*
X1438Y169D01*
X1440Y169D01*
X1440Y167D01*
X1460Y167D01*
X1460Y169D01*
X1462Y169D01*
X1462Y171D01*
X1464Y171D01*
X1464Y173D01*
X1466Y173D01*
X1466Y175D01*
X1468Y175D01*
X1468Y177D01*
X1470Y177D01*
X1470Y179D01*
X1472Y179D01*
X1472Y181D01*
X1474Y181D01*
X1474Y183D01*
X1478Y183D01*
X1478Y185D01*
X1480Y185D01*
X1480Y187D01*
X1484Y187D01*
X1484Y189D01*
X1486Y189D01*
X1486Y191D01*
X1492Y191D01*
X1492Y193D01*
X1496Y193D01*
X1496Y195D01*
X1502Y195D01*
X1502Y197D01*
X1512Y197D01*
X1512Y199D01*
X1390Y199D01*
G37*
D02*
G36*
X1390Y173D02*
X1390Y169D01*
X1412Y169D01*
X1412Y171D01*
X1418Y171D01*
X1418Y173D01*
X1390Y173D01*
G37*
D02*
G36*
X990Y383D02*
X990Y351D01*
X1110Y351D01*
X1110Y353D01*
X1112Y353D01*
X1112Y355D01*
X1114Y355D01*
X1114Y357D01*
X1116Y357D01*
X1116Y359D01*
X1120Y359D01*
X1120Y361D01*
X1122Y361D01*
X1122Y363D01*
X1124Y363D01*
X1124Y383D01*
X990Y383D01*
G37*
D02*
G36*
X1438Y343D02*
X1438Y341D01*
X1432Y341D01*
X1432Y339D01*
X1418Y339D01*
X1418Y337D01*
X1416Y337D01*
X1416Y335D01*
X1414Y335D01*
X1414Y333D01*
X1412Y333D01*
X1412Y331D01*
X1410Y331D01*
X1410Y329D01*
X1408Y329D01*
X1408Y327D01*
X1406Y327D01*
X1406Y325D01*
X1404Y325D01*
X1404Y323D01*
X1402Y323D01*
X1402Y321D01*
X1400Y321D01*
X1400Y319D01*
X1398Y319D01*
X1398Y317D01*
X1396Y317D01*
X1396Y299D01*
X1400Y299D01*
X1400Y297D01*
X1410Y297D01*
X1410Y295D01*
X1414Y295D01*
X1414Y293D01*
X1418Y293D01*
X1418Y291D01*
X1420Y291D01*
X1420Y289D01*
X1422Y289D01*
X1422Y285D01*
X1424Y285D01*
X1424Y283D01*
X1426Y283D01*
X1426Y279D01*
X1428Y279D01*
X1428Y265D01*
X1448Y265D01*
X1448Y267D01*
X1450Y267D01*
X1450Y269D01*
X1452Y269D01*
X1452Y271D01*
X1454Y271D01*
X1454Y273D01*
X1456Y273D01*
X1456Y275D01*
X1458Y275D01*
X1458Y343D01*
X1438Y343D01*
G37*
D02*
G36*
X978Y225D02*
X978Y223D01*
X976Y223D01*
X976Y221D01*
X974Y221D01*
X974Y219D01*
X972Y219D01*
X972Y217D01*
X970Y217D01*
X970Y215D01*
X968Y215D01*
X968Y213D01*
X966Y213D01*
X966Y211D01*
X964Y211D01*
X964Y209D01*
X962Y209D01*
X962Y207D01*
X960Y207D01*
X960Y205D01*
X958Y205D01*
X958Y203D01*
X856Y203D01*
X856Y201D01*
X854Y201D01*
X854Y181D01*
X892Y181D01*
X892Y155D01*
X918Y155D01*
X918Y153D01*
X924Y153D01*
X924Y151D01*
X928Y151D01*
X928Y149D01*
X930Y149D01*
X930Y147D01*
X932Y147D01*
X932Y145D01*
X934Y145D01*
X934Y143D01*
X936Y143D01*
X936Y139D01*
X938Y139D01*
X938Y133D01*
X940Y133D01*
X940Y123D01*
X938Y123D01*
X938Y117D01*
X936Y117D01*
X936Y115D01*
X934Y115D01*
X934Y95D01*
X938Y95D01*
X938Y93D01*
X972Y93D01*
X972Y87D01*
X996Y87D01*
X996Y191D01*
X998Y191D01*
X998Y193D01*
X1000Y193D01*
X1000Y213D01*
X998Y213D01*
X998Y225D01*
X978Y225D01*
G37*
D02*
G36*
X1148Y197D02*
X1148Y195D01*
X1146Y195D01*
X1146Y193D01*
X1144Y193D01*
X1144Y191D01*
X1142Y191D01*
X1142Y189D01*
X1140Y189D01*
X1140Y187D01*
X1138Y187D01*
X1138Y185D01*
X1136Y185D01*
X1136Y183D01*
X1134Y183D01*
X1134Y181D01*
X1132Y181D01*
X1132Y173D01*
X1052Y173D01*
X1052Y139D01*
X1132Y139D01*
X1132Y109D01*
X1168Y109D01*
X1168Y197D01*
X1148Y197D01*
G37*
D02*
G36*
X736Y211D02*
X736Y209D01*
X734Y209D01*
X734Y207D01*
X732Y207D01*
X732Y205D01*
X730Y205D01*
X730Y203D01*
X728Y203D01*
X728Y201D01*
X726Y201D01*
X726Y199D01*
X724Y199D01*
X724Y197D01*
X722Y197D01*
X722Y195D01*
X720Y195D01*
X720Y193D01*
X718Y193D01*
X718Y191D01*
X716Y191D01*
X716Y189D01*
X714Y189D01*
X714Y187D01*
X712Y187D01*
X712Y185D01*
X710Y185D01*
X710Y183D01*
X708Y183D01*
X708Y181D01*
X706Y181D01*
X706Y179D01*
X704Y179D01*
X704Y177D01*
X702Y177D01*
X702Y175D01*
X756Y175D01*
X756Y211D01*
X736Y211D01*
G37*
D02*
G36*
X664Y191D02*
X664Y189D01*
X666Y189D01*
X666Y175D01*
X698Y175D01*
X698Y177D01*
X696Y177D01*
X696Y179D01*
X694Y179D01*
X694Y181D01*
X692Y181D01*
X692Y183D01*
X690Y183D01*
X690Y185D01*
X688Y185D01*
X688Y187D01*
X686Y187D01*
X686Y189D01*
X684Y189D01*
X684Y191D01*
X664Y191D01*
G37*
D02*
G36*
X666Y175D02*
X666Y173D01*
X756Y173D01*
X756Y175D01*
X666Y175D01*
G37*
D02*
G36*
X666Y175D02*
X666Y173D01*
X756Y173D01*
X756Y175D01*
X666Y175D01*
G37*
D02*
G36*
X664Y173D02*
X664Y167D01*
X662Y167D01*
X662Y163D01*
X660Y163D01*
X660Y161D01*
X658Y161D01*
X658Y159D01*
X656Y159D01*
X656Y157D01*
X654Y157D01*
X654Y137D01*
X656Y137D01*
X656Y135D01*
X658Y135D01*
X658Y131D01*
X656Y131D01*
X656Y129D01*
X654Y129D01*
X654Y127D01*
X652Y127D01*
X652Y125D01*
X650Y125D01*
X650Y123D01*
X648Y123D01*
X648Y121D01*
X646Y121D01*
X646Y119D01*
X644Y119D01*
X644Y117D01*
X642Y117D01*
X642Y115D01*
X640Y115D01*
X640Y113D01*
X638Y113D01*
X638Y111D01*
X636Y111D01*
X636Y109D01*
X634Y109D01*
X634Y107D01*
X632Y107D01*
X632Y87D01*
X676Y87D01*
X676Y93D01*
X710Y93D01*
X710Y95D01*
X714Y95D01*
X714Y115D01*
X712Y115D01*
X712Y119D01*
X710Y119D01*
X710Y139D01*
X712Y139D01*
X712Y143D01*
X714Y143D01*
X714Y145D01*
X716Y145D01*
X716Y147D01*
X718Y147D01*
X718Y149D01*
X720Y149D01*
X720Y151D01*
X724Y151D01*
X724Y153D01*
X730Y153D01*
X730Y155D01*
X756Y155D01*
X756Y173D01*
X664Y173D01*
G37*
D02*
G36*
X1264Y169D02*
X1264Y167D01*
X1260Y167D01*
X1260Y165D01*
X1252Y165D01*
X1252Y163D01*
X1236Y163D01*
X1236Y99D01*
X1234Y99D01*
X1234Y97D01*
X1200Y97D01*
X1200Y95D01*
X1198Y95D01*
X1198Y75D01*
X1282Y75D01*
X1282Y77D01*
X1284Y77D01*
X1284Y169D01*
X1264Y169D01*
G37*
D02*
G36*
X1390Y119D02*
X1390Y91D01*
X1316Y91D01*
X1316Y63D01*
X1314Y63D01*
X1314Y41D01*
X1468Y41D01*
X1468Y61D01*
X1466Y61D01*
X1466Y63D01*
X1464Y63D01*
X1464Y65D01*
X1462Y65D01*
X1462Y69D01*
X1460Y69D01*
X1460Y71D01*
X1458Y71D01*
X1458Y73D01*
X1456Y73D01*
X1456Y77D01*
X1454Y77D01*
X1454Y81D01*
X1452Y81D01*
X1452Y85D01*
X1450Y85D01*
X1450Y89D01*
X1448Y89D01*
X1448Y95D01*
X1446Y95D01*
X1446Y103D01*
X1444Y103D01*
X1444Y113D01*
X1422Y113D01*
X1422Y115D01*
X1412Y115D01*
X1412Y117D01*
X1410Y117D01*
X1410Y119D01*
X1390Y119D01*
G37*
D02*
G36*
X578Y97D02*
X578Y41D01*
X622Y41D01*
X622Y85D01*
X608Y85D01*
X608Y87D01*
X606Y87D01*
X606Y89D01*
X604Y89D01*
X604Y91D01*
X602Y91D01*
X602Y93D01*
X600Y93D01*
X600Y95D01*
X598Y95D01*
X598Y97D01*
X578Y97D01*
G37*
D02*
G36*
X1028Y93D02*
X1028Y41D01*
X1050Y41D01*
X1050Y71D01*
X1058Y71D01*
X1058Y73D01*
X1060Y73D01*
X1060Y77D01*
X1062Y77D01*
X1062Y79D01*
X1064Y79D01*
X1064Y93D01*
X1028Y93D01*
G37*
D02*
G36*
X540Y432D02*
X564Y432D01*
X564Y407D01*
X540Y407D01*
X540Y432D01*
G37*
D02*
G36*
X1149Y1941D02*
X1194Y1941D01*
X1194Y1915D01*
X1149Y1915D01*
X1149Y1941D01*
G37*
D02*
G36*
X1122Y1918D02*
X1152Y1918D01*
X1152Y1873D01*
X1122Y1873D01*
X1122Y1918D01*
G37*
D02*
G36*
X1190Y1918D02*
X1224Y1918D01*
X1224Y1873D01*
X1190Y1873D01*
X1190Y1918D01*
G37*
D02*
G36*
X913Y483D02*
X930Y483D01*
X930Y429D01*
X913Y429D01*
X913Y483D01*
G37*
D02*
G36*
X1224Y1525D02*
X1270Y1525D01*
X1270Y1512D01*
X1224Y1512D01*
X1224Y1525D01*
G37*
D02*
G36*
X14Y1065D02*
X44Y1065D01*
X44Y1048D01*
X14Y1048D01*
X14Y1065D01*
G37*
D02*
G36*
X348Y319D02*
X392Y319D01*
X392Y268D01*
X348Y268D01*
X348Y319D01*
G37*
D02*
G36*
X105Y327D02*
X142Y327D01*
X142Y271D01*
X105Y271D01*
X105Y327D01*
G37*
D02*
G36*
X105Y269D02*
X142Y269D01*
X142Y213D01*
X105Y213D01*
X105Y269D01*
G37*
D02*
G36*
X78Y295D02*
X122Y295D01*
X122Y244D01*
X78Y244D01*
X78Y295D01*
G37*
D02*
G36*
X1224Y1463D02*
X1270Y1463D01*
X1270Y1450D01*
X1224Y1450D01*
X1224Y1463D01*
G37*
D02*
G36*
X1503Y743D02*
X1540Y743D01*
X1540Y687D01*
X1503Y687D01*
X1503Y743D01*
G37*
D02*
G36*
X1329Y147D02*
X1366Y147D01*
X1366Y91D01*
X1329Y91D01*
X1329Y147D01*
G37*
D02*
G36*
X1559Y851D02*
X1584Y851D01*
X1584Y827D01*
X1559Y827D01*
X1559Y851D01*
G37*
D02*
G36*
X1540Y832D02*
X1564Y832D01*
X1564Y807D01*
X1540Y807D01*
X1540Y832D01*
G37*
D02*
G36*
X1578Y832D02*
X1604Y832D01*
X1604Y807D01*
X1578Y807D01*
X1578Y832D01*
G37*
D02*
G36*
X909Y101D02*
X934Y101D01*
X934Y77D01*
X909Y77D01*
X909Y101D01*
G37*
D02*
G36*
X1409Y139D02*
X1434Y139D01*
X1434Y113D01*
X1409Y113D01*
X1409Y139D01*
G37*
D02*
G36*
X709Y101D02*
X734Y101D01*
X734Y77D01*
X709Y77D01*
X709Y101D01*
G37*
D02*
G36*
X978Y58D02*
X1028Y58D01*
X1028Y33D01*
X978Y33D01*
X978Y58D01*
G37*
D02*
G36*
X1578Y703D02*
X1613Y703D01*
X1613Y679D01*
X1578Y679D01*
X1578Y703D01*
G37*
D02*
G36*
X1612Y737D02*
X1632Y737D01*
X1632Y702D01*
X1612Y702D01*
X1612Y737D01*
G37*
D02*
G36*
X1318Y190D02*
X1381Y190D01*
X1381Y100D01*
X1318Y100D01*
X1318Y190D01*
G37*
D02*
G36*
X1318Y438D02*
X1381Y438D01*
X1381Y348D01*
X1318Y348D01*
X1318Y438D01*
G37*
D02*
G36*
X1493Y538D02*
X1556Y538D01*
X1556Y448D01*
X1493Y448D01*
X1493Y538D01*
G37*
D02*
G36*
X1493Y786D02*
X1556Y786D01*
X1556Y696D01*
X1493Y696D01*
X1493Y786D01*
G37*
D02*
G36*
X93Y313D02*
X156Y313D01*
X156Y223D01*
X93Y223D01*
X93Y313D01*
G37*
D02*
G36*
X93Y561D02*
X156Y561D01*
X156Y471D01*
X93Y471D01*
X93Y561D01*
G37*
D02*
G36*
X543Y315D02*
X606Y315D01*
X606Y225D01*
X543Y225D01*
X543Y315D01*
G37*
D02*
G36*
X543Y563D02*
X606Y563D01*
X606Y473D01*
X543Y473D01*
X543Y563D01*
G37*
D02*
G36*
X319Y337D02*
X382Y337D01*
X382Y247D01*
X319Y247D01*
X319Y337D01*
G37*
D02*
G36*
X319Y539D02*
X382Y539D01*
X382Y449D01*
X319Y449D01*
X319Y539D01*
G37*
D02*
G36*
X319Y787D02*
X382Y787D01*
X382Y697D01*
X319Y697D01*
X319Y787D01*
G37*
D02*
G36*
X1271Y482D02*
X1271Y500D01*
X1316Y500D01*
X1316Y482D01*
X1271Y482D01*
G37*
D02*
G36*
X1051Y392D02*
X1051Y437D01*
X1069Y437D01*
X1069Y392D01*
X1051Y392D01*
G37*
D02*
G36*
X962Y639D02*
X962Y657D01*
X1007Y657D01*
X1007Y639D01*
X962Y639D01*
G37*
D02*
G36*
X1271Y513D02*
X1271Y531D01*
X1316Y531D01*
X1316Y513D01*
X1271Y513D01*
G37*
D02*
G36*
X962Y513D02*
X962Y531D01*
X1007Y531D01*
X1007Y513D01*
X962Y513D01*
G37*
D02*
G36*
X1271Y545D02*
X1271Y563D01*
X1316Y563D01*
X1316Y545D01*
X1271Y545D01*
G37*
D02*
G36*
X1177Y392D02*
X1177Y437D01*
X1195Y437D01*
X1195Y392D01*
X1177Y392D01*
G37*
D02*
G36*
X1271Y576D02*
X1271Y594D01*
X1316Y594D01*
X1316Y576D01*
X1271Y576D01*
G37*
D02*
G36*
X962Y576D02*
X962Y594D01*
X1007Y594D01*
X1007Y576D01*
X962Y576D01*
G37*
D02*
G36*
X1271Y608D02*
X1271Y626D01*
X1316Y626D01*
X1316Y608D01*
X1271Y608D01*
G37*
D02*
G36*
X962Y450D02*
X962Y468D01*
X1007Y468D01*
X1007Y450D01*
X962Y450D01*
G37*
D02*
G36*
X1271Y639D02*
X1271Y657D01*
X1316Y657D01*
X1316Y639D01*
X1271Y639D01*
G37*
D02*
G36*
X1114Y392D02*
X1114Y437D01*
X1132Y437D01*
X1132Y392D01*
X1114Y392D01*
G37*
D02*
G36*
X1271Y671D02*
X1271Y689D01*
X1316Y689D01*
X1316Y671D01*
X1271Y671D01*
G37*
D02*
G36*
X1240Y392D02*
X1240Y437D01*
X1258Y437D01*
X1258Y392D01*
X1240Y392D01*
G37*
D02*
G36*
X1240Y702D02*
X1240Y747D01*
X1258Y747D01*
X1258Y702D01*
X1240Y702D01*
G37*
D02*
G36*
X962Y608D02*
X962Y626D01*
X1007Y626D01*
X1007Y608D01*
X962Y608D01*
G37*
D02*
G36*
X1209Y702D02*
X1209Y747D01*
X1226Y747D01*
X1226Y702D01*
X1209Y702D01*
G37*
D02*
G36*
X962Y545D02*
X962Y563D01*
X1007Y563D01*
X1007Y545D01*
X962Y545D01*
G37*
D02*
G36*
X1177Y702D02*
X1177Y747D01*
X1195Y747D01*
X1195Y702D01*
X1177Y702D01*
G37*
D02*
G36*
X962Y482D02*
X962Y500D01*
X1007Y500D01*
X1007Y482D01*
X962Y482D01*
G37*
D02*
G36*
X1146Y702D02*
X1146Y747D01*
X1163Y747D01*
X1163Y702D01*
X1146Y702D01*
G37*
D02*
G36*
X1020Y392D02*
X1020Y437D01*
X1037Y437D01*
X1037Y392D01*
X1020Y392D01*
G37*
D02*
G36*
X1114Y702D02*
X1114Y747D01*
X1132Y747D01*
X1132Y702D01*
X1114Y702D01*
G37*
D02*
G36*
X1083Y392D02*
X1083Y437D01*
X1100Y437D01*
X1100Y392D01*
X1083Y392D01*
G37*
D02*
G36*
X1083Y702D02*
X1083Y747D01*
X1100Y747D01*
X1100Y702D01*
X1083Y702D01*
G37*
D02*
G36*
X1146Y392D02*
X1146Y437D01*
X1163Y437D01*
X1163Y392D01*
X1146Y392D01*
G37*
D02*
G36*
X1051Y702D02*
X1051Y747D01*
X1069Y747D01*
X1069Y702D01*
X1051Y702D01*
G37*
D02*
G36*
X1209Y392D02*
X1209Y437D01*
X1226Y437D01*
X1226Y392D01*
X1209Y392D01*
G37*
D02*
G36*
X1271Y450D02*
X1271Y468D01*
X1316Y468D01*
X1316Y450D01*
X1271Y450D01*
G37*
D02*
G36*
X1239Y1179D02*
X1310Y1179D01*
X1310Y1164D01*
X1239Y1164D01*
X1239Y1179D01*
G37*
D02*
G36*
X1239Y1211D02*
X1310Y1211D01*
X1310Y1195D01*
X1239Y1195D01*
X1239Y1211D01*
G37*
D02*
G36*
X1239Y1242D02*
X1310Y1242D01*
X1310Y1227D01*
X1239Y1227D01*
X1239Y1242D01*
G37*
D02*
G36*
X1239Y1274D02*
X1310Y1274D01*
X1310Y1258D01*
X1239Y1258D01*
X1239Y1274D01*
G37*
D02*
G36*
X1239Y1305D02*
X1310Y1305D01*
X1310Y1290D01*
X1239Y1290D01*
X1239Y1305D01*
G37*
D02*
G36*
X1239Y1337D02*
X1310Y1337D01*
X1310Y1321D01*
X1239Y1321D01*
X1239Y1337D01*
G37*
D02*
G36*
X1239Y1368D02*
X1310Y1368D01*
X1310Y1353D01*
X1239Y1353D01*
X1239Y1368D01*
G37*
D02*
G36*
X1239Y1400D02*
X1310Y1400D01*
X1310Y1384D01*
X1239Y1384D01*
X1239Y1400D01*
G37*
D02*
G36*
X1239Y1431D02*
X1310Y1431D01*
X1310Y1416D01*
X1239Y1416D01*
X1239Y1431D01*
G37*
D02*
G36*
X1239Y1463D02*
X1310Y1463D01*
X1310Y1447D01*
X1239Y1447D01*
X1239Y1463D01*
G37*
D02*
G36*
X1239Y1494D02*
X1310Y1494D01*
X1310Y1479D01*
X1239Y1479D01*
X1239Y1494D01*
G37*
D02*
G36*
X1239Y1526D02*
X1310Y1526D01*
X1310Y1510D01*
X1239Y1510D01*
X1239Y1526D01*
G37*
D02*
G36*
X1239Y1557D02*
X1310Y1557D01*
X1310Y1541D01*
X1239Y1541D01*
X1239Y1557D01*
G37*
D02*
G36*
X1239Y1589D02*
X1310Y1589D01*
X1310Y1573D01*
X1239Y1573D01*
X1239Y1589D01*
G37*
D02*
G36*
X700Y188D02*
X645Y244D01*
X679Y279D01*
X735Y223D01*
X700Y188D01*
G37*
D02*
G36*
X610Y98D02*
X554Y153D01*
X589Y188D01*
X645Y132D01*
X610Y98D01*
G37*
D02*
G54D34*
X319Y90D02*
X381Y90D01*
X319Y89D02*
X381Y89D01*
X319Y88D02*
X381Y88D01*
X319Y87D02*
X381Y87D01*
X319Y86D02*
X381Y86D01*
X319Y85D02*
X381Y85D01*
X319Y84D02*
X381Y84D01*
X319Y83D02*
X381Y83D01*
X319Y82D02*
X381Y82D01*
X319Y81D02*
X381Y81D01*
X319Y80D02*
X381Y80D01*
X319Y79D02*
X381Y79D01*
X319Y78D02*
X381Y78D01*
X319Y77D02*
X381Y77D01*
X319Y76D02*
X381Y76D01*
X319Y75D02*
X381Y75D01*
X319Y74D02*
X381Y74D01*
X319Y73D02*
X381Y73D01*
X319Y72D02*
X381Y72D01*
X319Y71D02*
X381Y71D01*
X319Y70D02*
X381Y70D01*
X319Y69D02*
X381Y69D01*
X319Y68D02*
X381Y68D01*
X319Y67D02*
X381Y67D01*
X319Y66D02*
X381Y66D01*
X319Y65D02*
X381Y65D01*
X319Y64D02*
X381Y64D01*
X319Y63D02*
X381Y63D01*
X319Y62D02*
X381Y62D01*
X319Y61D02*
X381Y61D01*
X319Y60D02*
X381Y60D01*
X319Y59D02*
X381Y59D01*
X319Y58D02*
X381Y58D01*
X319Y57D02*
X381Y57D01*
X319Y56D02*
X381Y56D01*
X319Y55D02*
X381Y55D01*
X319Y54D02*
X381Y54D01*
X319Y53D02*
X381Y53D01*
X319Y52D02*
X381Y52D01*
X319Y51D02*
X381Y51D01*
X319Y50D02*
X381Y50D01*
X319Y49D02*
X381Y49D01*
X319Y48D02*
X381Y48D01*
X319Y47D02*
X381Y47D01*
X319Y46D02*
X381Y46D01*
X319Y45D02*
X381Y45D01*
X319Y44D02*
X381Y44D01*
X319Y43D02*
X381Y43D01*
X319Y42D02*
X381Y42D01*
X319Y41D02*
X381Y41D01*
X319Y40D02*
X381Y40D01*
X319Y39D02*
X381Y39D01*
X319Y38D02*
X381Y38D01*
X319Y37D02*
X381Y37D01*
X319Y36D02*
X381Y36D01*
X319Y35D02*
X381Y35D01*
X319Y34D02*
X381Y34D01*
X319Y33D02*
X381Y33D01*
X319Y32D02*
X381Y32D01*
X319Y31D02*
X381Y31D01*
X319Y30D02*
X381Y30D01*
X319Y29D02*
X381Y29D01*
X319Y28D02*
X381Y28D01*
X319Y27D02*
X381Y27D01*
X319Y26D02*
X381Y26D01*
X319Y25D02*
X381Y25D01*
X319Y24D02*
X381Y24D01*
X319Y23D02*
X381Y23D01*
X319Y22D02*
X381Y22D01*
X319Y21D02*
X381Y21D01*
X319Y20D02*
X381Y20D01*
X319Y19D02*
X381Y19D01*
X319Y18D02*
X381Y18D01*
X319Y17D02*
X381Y17D01*
X319Y16D02*
X381Y16D01*
X319Y15D02*
X381Y15D01*
X319Y14D02*
X381Y14D01*
X319Y13D02*
X381Y13D01*
X319Y12D02*
X381Y12D01*
X319Y11D02*
X381Y11D01*
X319Y10D02*
X381Y10D01*
X319Y9D02*
X381Y9D01*
X319Y8D02*
X381Y8D01*
X319Y7D02*
X381Y7D01*
X319Y6D02*
X381Y6D01*
X319Y5D02*
X381Y5D01*
X319Y4D02*
X381Y4D01*
X319Y3D02*
X381Y3D01*
X319Y2D02*
X381Y2D01*
X319Y1D02*
X381Y1D01*
D02*
G04 End of Copper1*
M02*