G04 MADE WITH FRITZING*
G04 WWW.FRITZING.ORG*
G04 DOUBLE SIDED*
G04 HOLES PLATED*
G04 CONTOUR ON CENTER OF CONTOUR VECTOR*
%ASAXBY*%
%FSLAX23Y23*%
%MOIN*%
%OFA0B0*%
%SFA1.0B1.0*%
%ADD10C,0.008*%
%LNCONTOUR*%
G90*
G70*
G54D10*
X66Y1969D02*
X67Y1969D01*
X68Y1969D01*
X69Y1969D01*
X70Y1969D01*
X71Y1969D01*
X72Y1969D01*
X73Y1969D01*
X74Y1969D01*
X75Y1969D01*
X76Y1969D01*
X77Y1969D01*
X78Y1969D01*
X79Y1969D01*
X80Y1969D01*
X81Y1969D01*
X82Y1969D01*
X83Y1969D01*
X84Y1969D01*
X85Y1969D01*
X86Y1969D01*
X87Y1969D01*
X88Y1969D01*
X89Y1969D01*
X90Y1969D01*
X91Y1969D01*
X92Y1969D01*
X93Y1969D01*
X94Y1969D01*
X95Y1969D01*
X96Y1969D01*
X97Y1969D01*
X98Y1969D01*
X99Y1969D01*
X100Y1969D01*
X101Y1969D01*
X102Y1969D01*
X103Y1969D01*
X104Y1969D01*
X105Y1969D01*
X106Y1969D01*
X107Y1969D01*
X108Y1969D01*
X109Y1969D01*
X110Y1969D01*
X111Y1969D01*
X112Y1969D01*
X113Y1969D01*
X114Y1969D01*
X115Y1969D01*
X116Y1969D01*
X117Y1969D01*
X118Y1969D01*
X119Y1969D01*
X120Y1969D01*
X121Y1969D01*
X122Y1969D01*
X123Y1969D01*
X124Y1969D01*
X125Y1969D01*
X126Y1969D01*
X127Y1969D01*
X128Y1969D01*
X129Y1969D01*
X130Y1969D01*
X131Y1969D01*
X132Y1969D01*
X133Y1969D01*
X134Y1969D01*
X135Y1969D01*
X136Y1969D01*
X137Y1969D01*
X138Y1969D01*
X139Y1969D01*
X140Y1969D01*
X141Y1969D01*
X142Y1969D01*
X143Y1969D01*
X144Y1969D01*
X145Y1969D01*
X146Y1969D01*
X147Y1969D01*
X148Y1969D01*
X149Y1969D01*
X150Y1969D01*
X151Y1969D01*
X152Y1969D01*
X153Y1969D01*
X154Y1969D01*
X155Y1969D01*
X156Y1969D01*
X157Y1969D01*
X158Y1969D01*
X159Y1969D01*
X160Y1969D01*
X161Y1969D01*
X162Y1969D01*
X163Y1969D01*
X164Y1969D01*
X165Y1969D01*
X166Y1969D01*
X167Y1969D01*
X168Y1969D01*
X169Y1969D01*
X170Y1969D01*
X171Y1969D01*
X172Y1969D01*
X173Y1969D01*
X174Y1969D01*
X175Y1969D01*
X176Y1969D01*
X177Y1969D01*
X178Y1969D01*
X179Y1969D01*
X180Y1969D01*
X181Y1969D01*
X182Y1969D01*
X183Y1969D01*
X184Y1969D01*
X185Y1969D01*
X186Y1969D01*
X187Y1969D01*
X188Y1969D01*
X189Y1969D01*
X190Y1969D01*
X191Y1969D01*
X192Y1969D01*
X193Y1969D01*
X194Y1969D01*
X195Y1969D01*
X196Y1969D01*
X197Y1969D01*
X198Y1969D01*
X199Y1969D01*
X200Y1969D01*
X201Y1969D01*
X202Y1969D01*
X203Y1969D01*
X204Y1969D01*
X205Y1969D01*
X206Y1969D01*
X207Y1969D01*
X208Y1969D01*
X209Y1969D01*
X210Y1969D01*
X211Y1969D01*
X212Y1969D01*
X213Y1969D01*
X214Y1969D01*
X215Y1969D01*
X216Y1969D01*
X217Y1969D01*
X218Y1969D01*
X219Y1969D01*
X220Y1969D01*
X221Y1969D01*
X222Y1969D01*
X223Y1969D01*
X224Y1969D01*
X225Y1969D01*
X226Y1969D01*
X227Y1969D01*
X228Y1969D01*
X229Y1969D01*
X230Y1969D01*
X231Y1969D01*
X232Y1969D01*
X233Y1969D01*
X234Y1969D01*
X235Y1969D01*
X236Y1969D01*
X237Y1969D01*
X238Y1969D01*
X239Y1969D01*
X240Y1969D01*
X241Y1969D01*
X242Y1969D01*
X243Y1969D01*
X244Y1969D01*
X245Y1969D01*
X246Y1969D01*
X247Y1969D01*
X248Y1969D01*
X249Y1969D01*
X250Y1969D01*
X251Y1969D01*
X252Y1969D01*
X253Y1969D01*
X254Y1969D01*
X255Y1969D01*
X256Y1969D01*
X257Y1969D01*
X258Y1969D01*
X259Y1969D01*
X260Y1969D01*
X261Y1969D01*
X262Y1969D01*
X263Y1969D01*
X264Y1969D01*
X265Y1969D01*
X266Y1969D01*
X267Y1969D01*
X268Y1969D01*
X269Y1969D01*
X270Y1969D01*
X271Y1969D01*
X272Y1969D01*
X273Y1969D01*
X274Y1969D01*
X275Y1969D01*
X276Y1969D01*
X277Y1969D01*
X278Y1969D01*
X279Y1969D01*
X280Y1969D01*
X281Y1969D01*
X282Y1969D01*
X283Y1969D01*
X284Y1969D01*
X285Y1969D01*
X286Y1969D01*
X287Y1969D01*
X288Y1969D01*
X289Y1969D01*
X290Y1969D01*
X291Y1969D01*
X292Y1969D01*
X293Y1969D01*
X294Y1969D01*
X295Y1969D01*
X296Y1969D01*
X297Y1969D01*
X298Y1969D01*
X299Y1969D01*
X300Y1969D01*
X301Y1969D01*
X302Y1969D01*
X303Y1969D01*
X304Y1969D01*
X305Y1969D01*
X306Y1969D01*
X307Y1969D01*
X308Y1969D01*
X309Y1969D01*
X310Y1969D01*
X311Y1969D01*
X312Y1969D01*
X313Y1969D01*
X314Y1969D01*
X315Y1969D01*
X316Y1969D01*
X317Y1969D01*
X318Y1969D01*
X319Y1969D01*
X320Y1969D01*
X321Y1969D01*
X322Y1969D01*
X323Y1969D01*
X324Y1969D01*
X325Y1969D01*
X326Y1969D01*
X327Y1969D01*
X328Y1969D01*
X329Y1969D01*
X330Y1969D01*
X331Y1969D01*
X332Y1969D01*
X333Y1969D01*
X334Y1969D01*
X335Y1969D01*
X336Y1969D01*
X337Y1969D01*
X338Y1969D01*
X339Y1969D01*
X340Y1969D01*
X341Y1969D01*
X342Y1969D01*
X343Y1969D01*
X344Y1969D01*
X345Y1969D01*
X346Y1969D01*
X347Y1969D01*
X348Y1969D01*
X349Y1969D01*
X350Y1969D01*
X351Y1969D01*
X352Y1969D01*
X353Y1969D01*
X354Y1969D01*
X355Y1969D01*
X356Y1969D01*
X357Y1969D01*
X358Y1969D01*
X359Y1969D01*
X360Y1969D01*
X361Y1969D01*
X362Y1969D01*
X363Y1969D01*
X364Y1969D01*
X365Y1969D01*
X366Y1969D01*
X367Y1969D01*
X368Y1969D01*
X369Y1969D01*
X370Y1969D01*
X371Y1969D01*
X372Y1969D01*
X373Y1969D01*
X374Y1969D01*
X375Y1969D01*
X376Y1969D01*
X377Y1969D01*
X378Y1969D01*
X379Y1969D01*
X380Y1969D01*
X381Y1969D01*
X382Y1969D01*
X383Y1969D01*
X384Y1969D01*
X385Y1969D01*
X386Y1969D01*
X387Y1969D01*
X388Y1969D01*
X389Y1969D01*
X390Y1969D01*
X391Y1969D01*
X392Y1969D01*
X393Y1969D01*
X394Y1969D01*
X395Y1969D01*
X396Y1969D01*
X397Y1969D01*
X398Y1969D01*
X399Y1969D01*
X400Y1969D01*
X401Y1969D01*
X402Y1969D01*
X403Y1969D01*
X404Y1969D01*
X405Y1969D01*
X406Y1969D01*
X407Y1969D01*
X408Y1969D01*
X409Y1969D01*
X410Y1969D01*
X411Y1969D01*
X412Y1969D01*
X413Y1969D01*
X414Y1969D01*
X415Y1969D01*
X416Y1969D01*
X417Y1969D01*
X418Y1969D01*
X419Y1969D01*
X420Y1969D01*
X421Y1969D01*
X422Y1969D01*
X423Y1969D01*
X424Y1969D01*
X425Y1969D01*
X426Y1969D01*
X427Y1969D01*
X428Y1969D01*
X429Y1969D01*
X430Y1969D01*
X431Y1969D01*
X432Y1969D01*
X433Y1969D01*
X434Y1969D01*
X435Y1969D01*
X436Y1969D01*
X437Y1969D01*
X438Y1969D01*
X439Y1969D01*
X440Y1969D01*
X441Y1969D01*
X442Y1969D01*
X443Y1969D01*
X444Y1969D01*
X445Y1969D01*
X446Y1969D01*
X447Y1969D01*
X448Y1969D01*
X449Y1969D01*
X450Y1969D01*
X451Y1969D01*
X452Y1969D01*
X453Y1969D01*
X454Y1969D01*
X455Y1969D01*
X456Y1969D01*
X457Y1969D01*
X458Y1969D01*
X459Y1969D01*
X460Y1969D01*
X461Y1969D01*
X462Y1969D01*
X463Y1969D01*
X464Y1969D01*
X465Y1969D01*
X466Y1969D01*
X467Y1969D01*
X468Y1969D01*
X469Y1969D01*
X470Y1969D01*
X471Y1969D01*
X472Y1969D01*
X473Y1969D01*
X474Y1969D01*
X475Y1969D01*
X476Y1969D01*
X477Y1969D01*
X478Y1969D01*
X479Y1969D01*
X480Y1969D01*
X481Y1969D01*
X482Y1969D01*
X483Y1969D01*
X484Y1969D01*
X485Y1969D01*
X486Y1969D01*
X487Y1969D01*
X488Y1969D01*
X489Y1969D01*
X490Y1969D01*
X491Y1969D01*
X492Y1969D01*
X493Y1969D01*
X494Y1969D01*
X495Y1969D01*
X496Y1969D01*
X497Y1969D01*
X498Y1969D01*
X499Y1969D01*
X500Y1969D01*
X501Y1969D01*
X502Y1969D01*
X503Y1969D01*
X504Y1969D01*
X505Y1969D01*
X506Y1969D01*
X507Y1969D01*
X508Y1969D01*
X509Y1969D01*
X510Y1969D01*
X511Y1969D01*
X512Y1969D01*
X513Y1969D01*
X514Y1969D01*
X515Y1969D01*
X516Y1969D01*
X517Y1969D01*
X518Y1969D01*
X519Y1969D01*
X520Y1969D01*
X521Y1969D01*
X522Y1969D01*
X523Y1969D01*
X524Y1969D01*
X525Y1969D01*
X526Y1969D01*
X527Y1969D01*
X528Y1969D01*
X529Y1969D01*
X530Y1969D01*
X531Y1969D01*
X532Y1969D01*
X533Y1969D01*
X534Y1969D01*
X535Y1969D01*
X536Y1969D01*
X537Y1969D01*
X538Y1969D01*
X539Y1969D01*
X540Y1969D01*
X541Y1969D01*
X542Y1969D01*
X543Y1969D01*
X544Y1969D01*
X545Y1969D01*
X546Y1969D01*
X547Y1969D01*
X548Y1969D01*
X549Y1969D01*
X550Y1969D01*
X551Y1969D01*
X552Y1969D01*
X553Y1969D01*
X554Y1969D01*
X555Y1969D01*
X556Y1969D01*
X557Y1969D01*
X558Y1969D01*
X559Y1969D01*
X560Y1969D01*
X561Y1969D01*
X562Y1969D01*
X563Y1969D01*
X564Y1969D01*
X565Y1969D01*
X566Y1969D01*
X567Y1969D01*
X568Y1969D01*
X569Y1969D01*
X570Y1969D01*
X571Y1969D01*
X572Y1969D01*
X573Y1969D01*
X574Y1969D01*
X575Y1969D01*
X576Y1969D01*
X577Y1969D01*
X578Y1969D01*
X579Y1969D01*
X580Y1969D01*
X581Y1969D01*
X582Y1969D01*
X583Y1969D01*
X584Y1969D01*
X585Y1969D01*
X586Y1969D01*
X587Y1969D01*
X588Y1969D01*
X589Y1969D01*
X590Y1969D01*
X591Y1969D01*
X592Y1969D01*
X593Y1969D01*
X594Y1969D01*
X595Y1969D01*
X596Y1969D01*
X597Y1969D01*
X598Y1969D01*
X599Y1969D01*
X600Y1969D01*
X601Y1969D01*
X602Y1969D01*
X603Y1969D01*
X604Y1969D01*
X605Y1969D01*
X606Y1969D01*
X607Y1969D01*
X608Y1969D01*
X609Y1969D01*
X610Y1969D01*
X611Y1969D01*
X612Y1969D01*
X613Y1969D01*
X614Y1969D01*
X615Y1969D01*
X616Y1969D01*
X617Y1969D01*
X618Y1969D01*
X619Y1969D01*
X620Y1969D01*
X621Y1969D01*
X622Y1969D01*
X623Y1969D01*
X624Y1969D01*
X625Y1969D01*
X626Y1969D01*
X627Y1969D01*
X628Y1969D01*
X629Y1969D01*
X630Y1969D01*
X631Y1969D01*
X632Y1969D01*
X633Y1969D01*
X634Y1969D01*
X635Y1969D01*
X636Y1969D01*
X637Y1969D01*
X638Y1969D01*
X639Y1969D01*
X640Y1969D01*
X641Y1969D01*
X642Y1969D01*
X643Y1969D01*
X644Y1969D01*
X645Y1969D01*
X646Y1969D01*
X647Y1969D01*
X648Y1969D01*
X649Y1969D01*
X650Y1969D01*
X651Y1969D01*
X652Y1969D01*
X653Y1969D01*
X654Y1969D01*
X655Y1969D01*
X656Y1969D01*
X657Y1969D01*
X658Y1969D01*
X659Y1969D01*
X660Y1969D01*
X661Y1969D01*
X662Y1969D01*
X663Y1969D01*
X664Y1969D01*
X665Y1969D01*
X666Y1969D01*
X667Y1969D01*
X668Y1969D01*
X669Y1969D01*
X670Y1969D01*
X671Y1969D01*
X672Y1969D01*
X673Y1969D01*
X674Y1969D01*
X675Y1969D01*
X676Y1969D01*
X677Y1969D01*
X678Y1969D01*
X679Y1969D01*
X680Y1969D01*
X681Y1969D01*
X682Y1969D01*
X683Y1969D01*
X684Y1969D01*
X685Y1969D01*
X686Y1969D01*
X687Y1969D01*
X688Y1969D01*
X689Y1969D01*
X690Y1969D01*
X691Y1969D01*
X692Y1969D01*
X693Y1969D01*
X694Y1969D01*
X695Y1969D01*
X696Y1969D01*
X697Y1969D01*
X698Y1969D01*
X699Y1969D01*
X700Y1969D01*
X701Y1969D01*
X702Y1969D01*
X703Y1969D01*
X704Y1969D01*
X705Y1969D01*
X706Y1969D01*
X707Y1969D01*
X708Y1969D01*
X709Y1969D01*
X710Y1969D01*
X711Y1969D01*
X712Y1969D01*
X713Y1969D01*
X714Y1969D01*
X715Y1969D01*
X716Y1969D01*
X717Y1969D01*
X718Y1969D01*
X719Y1969D01*
X720Y1969D01*
X721Y1969D01*
X722Y1969D01*
X723Y1969D01*
X724Y1969D01*
X725Y1969D01*
X726Y1969D01*
X727Y1969D01*
X728Y1969D01*
X729Y1969D01*
X730Y1969D01*
X731Y1969D01*
X732Y1969D01*
X733Y1969D01*
X734Y1969D01*
X735Y1969D01*
X736Y1969D01*
X737Y1969D01*
X738Y1969D01*
X739Y1969D01*
X740Y1969D01*
X741Y1969D01*
X742Y1969D01*
X743Y1969D01*
X744Y1969D01*
X745Y1969D01*
X746Y1969D01*
X747Y1969D01*
X748Y1969D01*
X749Y1969D01*
X750Y1969D01*
X751Y1969D01*
X752Y1969D01*
X753Y1969D01*
X754Y1969D01*
X755Y1969D01*
X756Y1969D01*
X757Y1969D01*
X758Y1969D01*
X759Y1969D01*
X760Y1969D01*
X761Y1969D01*
X762Y1969D01*
X763Y1969D01*
X764Y1969D01*
X765Y1969D01*
X766Y1969D01*
X767Y1969D01*
X768Y1969D01*
X769Y1969D01*
X770Y1969D01*
X771Y1969D01*
X772Y1969D01*
X773Y1969D01*
X774Y1969D01*
X775Y1969D01*
X776Y1969D01*
X777Y1969D01*
X778Y1969D01*
X779Y1969D01*
X780Y1969D01*
X781Y1969D01*
X782Y1969D01*
X783Y1969D01*
X784Y1969D01*
X785Y1969D01*
X786Y1969D01*
X787Y1969D01*
X788Y1969D01*
X789Y1969D01*
X790Y1969D01*
X791Y1969D01*
X792Y1969D01*
X793Y1969D01*
X794Y1969D01*
X795Y1969D01*
X796Y1969D01*
X797Y1969D01*
X798Y1969D01*
X799Y1969D01*
X800Y1969D01*
X801Y1969D01*
X802Y1969D01*
X803Y1969D01*
X804Y1969D01*
X805Y1969D01*
X806Y1969D01*
X807Y1969D01*
X808Y1969D01*
X809Y1969D01*
X810Y1969D01*
X811Y1969D01*
X812Y1969D01*
X813Y1969D01*
X814Y1969D01*
X815Y1969D01*
X816Y1969D01*
X817Y1969D01*
X818Y1969D01*
X819Y1969D01*
X820Y1969D01*
X821Y1969D01*
X822Y1969D01*
X823Y1969D01*
X824Y1969D01*
X825Y1969D01*
X826Y1969D01*
X827Y1969D01*
X828Y1969D01*
X829Y1969D01*
X830Y1969D01*
X831Y1969D01*
X832Y1969D01*
X833Y1969D01*
X834Y1969D01*
X835Y1969D01*
X836Y1969D01*
X837Y1969D01*
X838Y1969D01*
X839Y1969D01*
X840Y1969D01*
X841Y1969D01*
X842Y1969D01*
X843Y1969D01*
X844Y1969D01*
X845Y1969D01*
X846Y1969D01*
X847Y1969D01*
X848Y1969D01*
X849Y1969D01*
X850Y1969D01*
X851Y1969D01*
X852Y1969D01*
X853Y1969D01*
X854Y1969D01*
X855Y1969D01*
X856Y1969D01*
X857Y1969D01*
X858Y1969D01*
X859Y1969D01*
X860Y1969D01*
X861Y1969D01*
X862Y1969D01*
X863Y1969D01*
X864Y1969D01*
X865Y1969D01*
X866Y1969D01*
X867Y1969D01*
X868Y1969D01*
X869Y1969D01*
X870Y1969D01*
X871Y1969D01*
X872Y1969D01*
X873Y1969D01*
X874Y1969D01*
X875Y1969D01*
X876Y1969D01*
X877Y1969D01*
X878Y1969D01*
X879Y1969D01*
X880Y1969D01*
X881Y1969D01*
X882Y1969D01*
X883Y1969D01*
X884Y1969D01*
X885Y1969D01*
X886Y1969D01*
X887Y1969D01*
X888Y1969D01*
X889Y1969D01*
X890Y1969D01*
X891Y1969D01*
X892Y1969D01*
X893Y1969D01*
X894Y1969D01*
X895Y1969D01*
X896Y1969D01*
X897Y1969D01*
X898Y1969D01*
X899Y1969D01*
X900Y1969D01*
X901Y1969D01*
X902Y1969D01*
X903Y1969D01*
X904Y1969D01*
X905Y1969D01*
X906Y1969D01*
X907Y1969D01*
X908Y1969D01*
X909Y1969D01*
X910Y1969D01*
X911Y1969D01*
X912Y1969D01*
X913Y1969D01*
X914Y1969D01*
X915Y1969D01*
X916Y1969D01*
X917Y1969D01*
X918Y1969D01*
X919Y1969D01*
X920Y1969D01*
X921Y1969D01*
X922Y1969D01*
X923Y1969D01*
X924Y1969D01*
X925Y1969D01*
X926Y1969D01*
X927Y1969D01*
X928Y1969D01*
X929Y1969D01*
X930Y1969D01*
X931Y1969D01*
X932Y1969D01*
X933Y1969D01*
X934Y1969D01*
X935Y1969D01*
X936Y1969D01*
X937Y1969D01*
X938Y1969D01*
X939Y1969D01*
X940Y1969D01*
X941Y1969D01*
X942Y1969D01*
X943Y1969D01*
X944Y1969D01*
X945Y1969D01*
X946Y1969D01*
X947Y1969D01*
X948Y1969D01*
X949Y1969D01*
X950Y1969D01*
X951Y1969D01*
X952Y1969D01*
X953Y1969D01*
X954Y1969D01*
X955Y1969D01*
X956Y1969D01*
X957Y1969D01*
X958Y1969D01*
X959Y1969D01*
X960Y1969D01*
X961Y1969D01*
X962Y1969D01*
X963Y1969D01*
X964Y1969D01*
X965Y1969D01*
X966Y1969D01*
X967Y1969D01*
X968Y1969D01*
X969Y1969D01*
X970Y1969D01*
X971Y1969D01*
X972Y1969D01*
X973Y1969D01*
X974Y1969D01*
X975Y1969D01*
X976Y1969D01*
X977Y1969D01*
X978Y1969D01*
X979Y1969D01*
X980Y1969D01*
X981Y1969D01*
X982Y1969D01*
X983Y1969D01*
X984Y1969D01*
X985Y1969D01*
X986Y1969D01*
X987Y1969D01*
X988Y1969D01*
X989Y1969D01*
X990Y1969D01*
X991Y1969D01*
X992Y1969D01*
X993Y1969D01*
X994Y1969D01*
X995Y1969D01*
X996Y1969D01*
X997Y1969D01*
X998Y1969D01*
X999Y1969D01*
X1000Y1969D01*
X1001Y1969D01*
X1002Y1969D01*
X1003Y1969D01*
X1004Y1969D01*
X1005Y1969D01*
X1006Y1969D01*
X1007Y1969D01*
X1008Y1969D01*
X1009Y1969D01*
X1010Y1969D01*
X1011Y1969D01*
X1012Y1969D01*
X1013Y1969D01*
X1014Y1969D01*
X1015Y1969D01*
X1016Y1969D01*
X1017Y1969D01*
X1018Y1969D01*
X1019Y1969D01*
X1020Y1969D01*
X1021Y1969D01*
X1022Y1969D01*
X1023Y1969D01*
X1024Y1969D01*
X1025Y1969D01*
X1026Y1969D01*
X1027Y1969D01*
X1028Y1969D01*
X1029Y1969D01*
X1030Y1969D01*
X1031Y1969D01*
X1032Y1969D01*
X1033Y1969D01*
X1034Y1969D01*
X1035Y1969D01*
X1036Y1969D01*
X1037Y1969D01*
X1038Y1969D01*
X1039Y1969D01*
X1040Y1969D01*
X1041Y1969D01*
X1042Y1969D01*
X1043Y1969D01*
X1044Y1969D01*
X1045Y1969D01*
X1046Y1969D01*
X1047Y1969D01*
X1048Y1969D01*
X1049Y1969D01*
X1050Y1969D01*
X1051Y1969D01*
X1052Y1969D01*
X1053Y1969D01*
X1054Y1969D01*
X1055Y1969D01*
X1056Y1969D01*
X1057Y1969D01*
X1058Y1969D01*
X1059Y1969D01*
X1060Y1969D01*
X1061Y1969D01*
X1062Y1969D01*
X1063Y1969D01*
X1064Y1969D01*
X1065Y1969D01*
X1066Y1969D01*
X1067Y1969D01*
X1068Y1969D01*
X1069Y1969D01*
X1070Y1969D01*
X1071Y1969D01*
X1072Y1969D01*
X1073Y1969D01*
X1074Y1969D01*
X1075Y1969D01*
X1076Y1969D01*
X1077Y1969D01*
X1078Y1969D01*
X1079Y1969D01*
X1080Y1969D01*
X1081Y1969D01*
X1082Y1969D01*
X1083Y1969D01*
X1084Y1969D01*
X1085Y1969D01*
X1086Y1969D01*
X1087Y1969D01*
X1088Y1969D01*
X1089Y1969D01*
X1090Y1969D01*
X1091Y1969D01*
X1092Y1969D01*
X1093Y1969D01*
X1094Y1969D01*
X1095Y1969D01*
X1096Y1969D01*
X1097Y1969D01*
X1098Y1969D01*
X1099Y1969D01*
X1100Y1969D01*
X1101Y1969D01*
X1102Y1969D01*
X1103Y1969D01*
X1104Y1969D01*
X1105Y1969D01*
X1106Y1969D01*
X1107Y1969D01*
X1108Y1969D01*
X1109Y1969D01*
X1110Y1969D01*
X1111Y1969D01*
X1112Y1969D01*
X1113Y1969D01*
X1114Y1969D01*
X1115Y1969D01*
X1116Y1969D01*
X1117Y1969D01*
X1118Y1969D01*
X1119Y1969D01*
X1120Y1969D01*
X1121Y1969D01*
X1122Y1969D01*
X1123Y1969D01*
X1124Y1969D01*
X1125Y1969D01*
X1126Y1969D01*
X1127Y1969D01*
X1128Y1969D01*
X1129Y1969D01*
X1130Y1969D01*
X1131Y1969D01*
X1132Y1969D01*
X1133Y1969D01*
X1134Y1969D01*
X1135Y1969D01*
X1136Y1969D01*
X1137Y1969D01*
X1138Y1969D01*
X1139Y1969D01*
X1140Y1969D01*
X1141Y1969D01*
X1142Y1969D01*
X1143Y1969D01*
X1144Y1969D01*
X1145Y1969D01*
X1146Y1969D01*
X1147Y1969D01*
X1148Y1969D01*
X1149Y1969D01*
X1150Y1969D01*
X1151Y1969D01*
X1152Y1969D01*
X1153Y1969D01*
X1154Y1969D01*
X1155Y1969D01*
X1156Y1969D01*
X1157Y1969D01*
X1158Y1969D01*
X1159Y1969D01*
X1160Y1969D01*
X1161Y1969D01*
X1162Y1969D01*
X1163Y1969D01*
X1164Y1969D01*
X1165Y1969D01*
X1166Y1969D01*
X1167Y1969D01*
X1168Y1969D01*
X1169Y1969D01*
X1170Y1969D01*
X1171Y1969D01*
X1172Y1969D01*
X1173Y1969D01*
X1174Y1969D01*
X1175Y1969D01*
X1176Y1969D01*
X1177Y1969D01*
X1178Y1969D01*
X1179Y1969D01*
X1180Y1969D01*
X1181Y1969D01*
X1182Y1969D01*
X1183Y1969D01*
X1184Y1969D01*
X1185Y1969D01*
X1186Y1969D01*
X1187Y1969D01*
X1188Y1969D01*
X1189Y1969D01*
X1190Y1969D01*
X1191Y1969D01*
X1192Y1969D01*
X1193Y1969D01*
X1194Y1969D01*
X1195Y1969D01*
X1196Y1969D01*
X1197Y1969D01*
X1198Y1969D01*
X1199Y1969D01*
X1200Y1969D01*
X1201Y1969D01*
X1202Y1969D01*
X1203Y1969D01*
X1204Y1969D01*
X1205Y1969D01*
X1206Y1969D01*
X1207Y1969D01*
X1208Y1969D01*
X1209Y1969D01*
X1210Y1969D01*
X1211Y1969D01*
X1212Y1969D01*
X1213Y1969D01*
X1214Y1969D01*
X1215Y1969D01*
X1216Y1969D01*
X1217Y1969D01*
X1218Y1969D01*
X1219Y1969D01*
X1220Y1969D01*
X1221Y1969D01*
X1222Y1969D01*
X1223Y1969D01*
X1224Y1969D01*
X1225Y1969D01*
X1226Y1969D01*
X1227Y1969D01*
X1228Y1969D01*
X1229Y1969D01*
X1230Y1969D01*
X1231Y1969D01*
X1232Y1969D01*
X1233Y1969D01*
X1234Y1969D01*
X1235Y1969D01*
X1236Y1969D01*
X1237Y1969D01*
X1238Y1969D01*
X1239Y1969D01*
X1240Y1969D01*
X1241Y1969D01*
X1242Y1969D01*
X1243Y1969D01*
X1244Y1969D01*
X1245Y1969D01*
X1246Y1969D01*
X1247Y1969D01*
X1248Y1969D01*
X1249Y1969D01*
X1250Y1969D01*
X1251Y1969D01*
X1252Y1969D01*
X1253Y1969D01*
X1254Y1969D01*
X1255Y1969D01*
X1256Y1969D01*
X1257Y1969D01*
X1258Y1969D01*
X1259Y1969D01*
X1260Y1969D01*
X1261Y1969D01*
X1262Y1969D01*
X1263Y1969D01*
X1264Y1969D01*
X1265Y1969D01*
X1266Y1969D01*
X1267Y1969D01*
X1268Y1969D01*
X1269Y1969D01*
X1270Y1969D01*
X1271Y1969D01*
X1272Y1969D01*
X1273Y1969D01*
X1274Y1969D01*
X1275Y1969D01*
X1276Y1969D01*
X1277Y1969D01*
X1278Y1969D01*
X1279Y1969D01*
X1280Y1969D01*
X1281Y1969D01*
X1282Y1969D01*
X1283Y1969D01*
X1284Y1969D01*
X1285Y1969D01*
X1286Y1969D01*
X1287Y1969D01*
X1288Y1969D01*
X1289Y1969D01*
X1290Y1969D01*
X1291Y1969D01*
X1292Y1969D01*
X1293Y1969D01*
X1294Y1969D01*
X1295Y1969D01*
X1296Y1969D01*
X1297Y1969D01*
X1298Y1969D01*
X1299Y1969D01*
X1300Y1969D01*
X1301Y1969D01*
X1302Y1969D01*
X1303Y1969D01*
X1304Y1969D01*
X1305Y1969D01*
X1306Y1969D01*
X1307Y1969D01*
X1308Y1969D01*
X1309Y1969D01*
X1310Y1969D01*
X1311Y1969D01*
X1312Y1969D01*
X1313Y1969D01*
X1314Y1969D01*
X1315Y1969D01*
X1316Y1969D01*
X1317Y1969D01*
X1318Y1969D01*
X1319Y1969D01*
X1320Y1969D01*
X1321Y1969D01*
X1322Y1969D01*
X1323Y1969D01*
X1324Y1969D01*
X1325Y1969D01*
X1326Y1969D01*
X1327Y1969D01*
X1328Y1969D01*
X1329Y1969D01*
X1330Y1969D01*
X1331Y1969D01*
X1332Y1969D01*
X1333Y1969D01*
X1334Y1969D01*
X1335Y1969D01*
X1336Y1969D01*
X1337Y1969D01*
X1338Y1969D01*
X1339Y1969D01*
X1340Y1969D01*
X1341Y1969D01*
X1342Y1969D01*
X1343Y1969D01*
X1344Y1969D01*
X1345Y1969D01*
X1346Y1969D01*
X1347Y1969D01*
X1348Y1969D01*
X1349Y1969D01*
X1350Y1969D01*
X1351Y1969D01*
X1352Y1969D01*
X1353Y1969D01*
X1354Y1969D01*
X1355Y1969D01*
X1356Y1969D01*
X1357Y1969D01*
X1358Y1969D01*
X1359Y1969D01*
X1360Y1969D01*
X1361Y1969D01*
X1362Y1969D01*
X1363Y1969D01*
X1364Y1969D01*
X1365Y1969D01*
X1366Y1969D01*
X1367Y1969D01*
X1368Y1969D01*
X1369Y1969D01*
X1370Y1969D01*
X1371Y1969D01*
X1372Y1969D01*
X1373Y1969D01*
X1374Y1969D01*
X1375Y1969D01*
X1376Y1969D01*
X1377Y1969D01*
X1378Y1969D01*
X1379Y1969D01*
X1380Y1969D01*
X1381Y1969D01*
X1382Y1969D01*
X1383Y1969D01*
X1384Y1969D01*
X1385Y1969D01*
X1386Y1969D01*
X1387Y1969D01*
X1388Y1969D01*
X1389Y1969D01*
X1390Y1969D01*
X1391Y1969D01*
X1392Y1969D01*
X1393Y1969D01*
X1394Y1969D01*
X1395Y1969D01*
X1396Y1969D01*
X1397Y1969D01*
X1398Y1969D01*
X1399Y1969D01*
X1400Y1969D01*
X1401Y1969D01*
X1402Y1969D01*
X1403Y1969D01*
X1404Y1969D01*
X1405Y1969D01*
X1406Y1969D01*
X1407Y1969D01*
X1408Y1969D01*
X1409Y1969D01*
X1410Y1969D01*
X1411Y1969D01*
X1412Y1969D01*
X1413Y1969D01*
X1414Y1969D01*
X1415Y1969D01*
X1416Y1969D01*
X1417Y1969D01*
X1418Y1969D01*
X1419Y1969D01*
X1420Y1969D01*
X1421Y1969D01*
X1422Y1969D01*
X1423Y1969D01*
X1424Y1969D01*
X1425Y1969D01*
X1426Y1969D01*
X1427Y1969D01*
X1428Y1969D01*
X1429Y1969D01*
X1430Y1969D01*
X1431Y1969D01*
X1432Y1969D01*
X1433Y1969D01*
X1434Y1969D01*
X1435Y1969D01*
X1436Y1969D01*
X1437Y1969D01*
X1438Y1969D01*
X1439Y1969D01*
X1440Y1969D01*
X1441Y1969D01*
X1442Y1969D01*
X1443Y1969D01*
X1444Y1969D01*
X1445Y1969D01*
X1446Y1969D01*
X1447Y1969D01*
X1448Y1969D01*
X1449Y1969D01*
X1450Y1969D01*
X1451Y1969D01*
X1452Y1969D01*
X1453Y1969D01*
X1454Y1969D01*
X1455Y1969D01*
X1456Y1969D01*
X1457Y1969D01*
X1458Y1969D01*
X1459Y1969D01*
X1460Y1969D01*
X1461Y1969D01*
X1462Y1969D01*
X1463Y1969D01*
X1464Y1969D01*
X1465Y1969D01*
X1466Y1969D01*
X1467Y1969D01*
X1468Y1969D01*
X1469Y1969D01*
X1470Y1969D01*
X1471Y1969D01*
X1472Y1969D01*
X1473Y1969D01*
X1474Y1969D01*
X1475Y1969D01*
X1476Y1969D01*
X1477Y1969D01*
X1478Y1969D01*
X1479Y1969D01*
X1480Y1969D01*
X1481Y1969D01*
X1482Y1969D01*
X1483Y1969D01*
X1484Y1969D01*
X1485Y1969D01*
X1486Y1969D01*
X1487Y1969D01*
X1488Y1969D01*
X1489Y1969D01*
X1490Y1969D01*
X1491Y1969D01*
X1492Y1969D01*
X1493Y1969D01*
X1494Y1969D01*
X1495Y1969D01*
X1496Y1969D01*
X1497Y1969D01*
X1498Y1969D01*
X1499Y1969D01*
X1500Y1969D01*
X1501Y1969D01*
X1502Y1969D01*
X1503Y1969D01*
X1504Y1969D01*
X1505Y1969D01*
X1506Y1969D01*
X1507Y1969D01*
X1508Y1969D01*
X1509Y1969D01*
X1510Y1969D01*
X1511Y1969D01*
X1512Y1969D01*
X1513Y1969D01*
X1514Y1969D01*
X1515Y1969D01*
X1516Y1969D01*
X1517Y1969D01*
X1518Y1969D01*
X1519Y1969D01*
X1520Y1969D01*
X1521Y1969D01*
X1522Y1969D01*
X1523Y1969D01*
X1524Y1969D01*
X1525Y1969D01*
X1526Y1969D01*
X1527Y1969D01*
X1528Y1969D01*
X1529Y1969D01*
X1530Y1969D01*
X1531Y1969D01*
X1532Y1969D01*
X1533Y1969D01*
X1534Y1969D01*
X1535Y1969D01*
X1536Y1969D01*
X1537Y1969D01*
X1538Y1969D01*
X1539Y1969D01*
X1540Y1969D01*
X1541Y1969D01*
X1542Y1969D01*
X1543Y1969D01*
X1544Y1969D01*
X1545Y1969D01*
X1546Y1969D01*
X1547Y1969D01*
X1548Y1969D01*
X1549Y1969D01*
X1550Y1969D01*
X1551Y1969D01*
X1552Y1969D01*
X1553Y1969D01*
X1554Y1969D01*
X1555Y1969D01*
X1556Y1969D01*
X1557Y1969D01*
X1558Y1969D01*
X1559Y1969D01*
X1560Y1969D01*
X1561Y1969D01*
X1562Y1969D01*
X1563Y1969D01*
X1564Y1969D01*
X1565Y1969D01*
X1566Y1969D01*
X1567Y1969D01*
X1568Y1969D01*
X1569Y1969D01*
X1570Y1969D01*
X1571Y1969D01*
X1572Y1969D01*
X1573Y1969D01*
X1574Y1969D01*
X1575Y1969D01*
X1576Y1969D01*
X1577Y1969D01*
X1578Y1969D01*
X1579Y1969D01*
X1580Y1969D01*
X1581Y1969D01*
X1582Y1969D01*
X1583Y1969D01*
X1584Y1969D01*
X1585Y1969D01*
X1586Y1969D01*
X1587Y1968D01*
X1588Y1968D01*
X1589Y1968D01*
X1590Y1968D01*
X1591Y1968D01*
X1592Y1968D01*
X1593Y1968D01*
X1594Y1967D01*
X1595Y1967D01*
X1596Y1967D01*
X1597Y1967D01*
X1598Y1966D01*
X1599Y1966D01*
X1600Y1966D01*
X1601Y1966D01*
X1602Y1965D01*
X1603Y1965D01*
X1604Y1965D01*
X1605Y1964D01*
X1606Y1964D01*
X1607Y1964D01*
X1608Y1963D01*
X1609Y1963D01*
X1610Y1962D01*
X1611Y1962D01*
X1612Y1961D01*
X1613Y1961D01*
X1614Y1960D01*
X1615Y1960D01*
X1616Y1959D01*
X1617Y1959D01*
X1618Y1958D01*
X1619Y1958D01*
X1620Y1957D01*
X1621Y1956D01*
X1622Y1956D01*
X1623Y1955D01*
X1624Y1954D01*
X1625Y1954D01*
X1626Y1953D01*
X1627Y1952D01*
X1628Y1951D01*
X1629Y1950D01*
X1630Y1949D01*
X1631Y1949D01*
X1632Y1948D01*
X1633Y1947D01*
X1633Y1946D01*
X1634Y1945D01*
X1635Y1944D01*
X1636Y1943D01*
X1637Y1942D01*
X1638Y1941D01*
X1639Y1940D01*
X1639Y1939D01*
X1640Y1938D01*
X1641Y1937D01*
X1641Y1936D01*
X1642Y1935D01*
X1643Y1934D01*
X1643Y1933D01*
X1644Y1932D01*
X1644Y1931D01*
X1645Y1930D01*
X1645Y1929D01*
X1646Y1928D01*
X1646Y1927D01*
X1647Y1926D01*
X1647Y1925D01*
X1648Y1924D01*
X1648Y1922D01*
X1649Y1921D01*
X1649Y1919D01*
X1650Y1918D01*
X1650Y1915D01*
X1651Y1914D01*
X1651Y1909D01*
X1652Y1908D01*
X1652Y63D01*
X1651Y62D01*
X1651Y57D01*
X1650Y56D01*
X1650Y53D01*
X1649Y52D01*
X1649Y50D01*
X1648Y49D01*
X1648Y47D01*
X1647Y46D01*
X1647Y45D01*
X1646Y44D01*
X1646Y43D01*
X1645Y42D01*
X1645Y41D01*
X1644Y40D01*
X1644Y39D01*
X1643Y38D01*
X1643Y37D01*
X1642Y36D01*
X1641Y35D01*
X1641Y34D01*
X1640Y33D01*
X1639Y32D01*
X1639Y31D01*
X1638Y30D01*
X1637Y29D01*
X1636Y28D01*
X1635Y27D01*
X1634Y26D01*
X1633Y25D01*
X1633Y24D01*
X1632Y23D01*
X1631Y22D01*
X1630Y22D01*
X1629Y21D01*
X1628Y20D01*
X1627Y19D01*
X1626Y18D01*
X1625Y17D01*
X1624Y17D01*
X1623Y16D01*
X1622Y15D01*
X1621Y15D01*
X1620Y14D01*
X1619Y13D01*
X1618Y13D01*
X1617Y12D01*
X1616Y12D01*
X1615Y11D01*
X1614Y11D01*
X1613Y10D01*
X1612Y10D01*
X1611Y9D01*
X1610Y9D01*
X1609Y8D01*
X1608Y8D01*
X1607Y7D01*
X1606Y7D01*
X1605Y7D01*
X1604Y6D01*
X1603Y6D01*
X1602Y6D01*
X1601Y5D01*
X1600Y5D01*
X1599Y5D01*
X1598Y5D01*
X1597Y4D01*
X1596Y4D01*
X1595Y4D01*
X1594Y4D01*
X1593Y3D01*
X1592Y3D01*
X1591Y3D01*
X1590Y3D01*
X1589Y3D01*
X1588Y3D01*
X1587Y3D01*
X1586Y2D01*
X1585Y2D01*
X1584Y2D01*
X1583Y2D01*
X1582Y2D01*
X1581Y2D01*
X1580Y2D01*
X1579Y2D01*
X1578Y2D01*
X1577Y2D01*
X1576Y2D01*
X1575Y2D01*
X1574Y2D01*
X1573Y2D01*
X1572Y2D01*
X1571Y2D01*
X1570Y2D01*
X1569Y2D01*
X1568Y2D01*
X1567Y2D01*
X1566Y2D01*
X1565Y2D01*
X1564Y2D01*
X1563Y2D01*
X1562Y2D01*
X1561Y2D01*
X1560Y2D01*
X1559Y2D01*
X1558Y2D01*
X1557Y2D01*
X1556Y2D01*
X1555Y2D01*
X1554Y2D01*
X1553Y2D01*
X1552Y2D01*
X1551Y2D01*
X1550Y2D01*
X1549Y2D01*
X1548Y2D01*
X1547Y2D01*
X1546Y2D01*
X1545Y2D01*
X1544Y2D01*
X1543Y2D01*
X1542Y2D01*
X1541Y2D01*
X1540Y2D01*
X1539Y2D01*
X1538Y2D01*
X1537Y2D01*
X1536Y2D01*
X1535Y2D01*
X1534Y2D01*
X1533Y2D01*
X1532Y2D01*
X1531Y2D01*
X1530Y2D01*
X1529Y2D01*
X1528Y2D01*
X1527Y2D01*
X1526Y2D01*
X1525Y2D01*
X1524Y2D01*
X1523Y2D01*
X1522Y2D01*
X1521Y2D01*
X1520Y2D01*
X1519Y2D01*
X1518Y2D01*
X1517Y2D01*
X1516Y2D01*
X1515Y2D01*
X1514Y2D01*
X1513Y2D01*
X1512Y2D01*
X1511Y2D01*
X1510Y2D01*
X1509Y2D01*
X1508Y2D01*
X1507Y2D01*
X1506Y2D01*
X1505Y2D01*
X1504Y2D01*
X1503Y2D01*
X1502Y2D01*
X1501Y2D01*
X1500Y2D01*
X1499Y2D01*
X1498Y2D01*
X1497Y2D01*
X1496Y2D01*
X1495Y2D01*
X1494Y2D01*
X1493Y2D01*
X1492Y2D01*
X1491Y2D01*
X1490Y2D01*
X1489Y2D01*
X1488Y2D01*
X1487Y2D01*
X1486Y2D01*
X1485Y2D01*
X1484Y2D01*
X1483Y2D01*
X1482Y2D01*
X1481Y2D01*
X1480Y2D01*
X1479Y2D01*
X1478Y2D01*
X1477Y2D01*
X1476Y2D01*
X1475Y2D01*
X1474Y2D01*
X1473Y2D01*
X1472Y2D01*
X1471Y2D01*
X1470Y2D01*
X1469Y2D01*
X1468Y2D01*
X1467Y2D01*
X1466Y2D01*
X1465Y2D01*
X1464Y2D01*
X1463Y2D01*
X1462Y2D01*
X1461Y2D01*
X1460Y2D01*
X1459Y2D01*
X1458Y2D01*
X1457Y2D01*
X1456Y2D01*
X1455Y2D01*
X1454Y2D01*
X1453Y2D01*
X1452Y2D01*
X1451Y2D01*
X1450Y2D01*
X1449Y2D01*
X1448Y2D01*
X1447Y2D01*
X1446Y2D01*
X1445Y2D01*
X1444Y2D01*
X1443Y2D01*
X1442Y2D01*
X1441Y2D01*
X1440Y2D01*
X1439Y2D01*
X1438Y2D01*
X1437Y2D01*
X1436Y2D01*
X1435Y2D01*
X1434Y2D01*
X1433Y2D01*
X1432Y2D01*
X1431Y2D01*
X1430Y2D01*
X1429Y2D01*
X1428Y2D01*
X1427Y2D01*
X1426Y2D01*
X1425Y2D01*
X1424Y2D01*
X1423Y2D01*
X1422Y2D01*
X1421Y2D01*
X1420Y2D01*
X1419Y2D01*
X1418Y2D01*
X1417Y2D01*
X1416Y2D01*
X1415Y2D01*
X1414Y2D01*
X1413Y2D01*
X1412Y2D01*
X1411Y2D01*
X1410Y2D01*
X1409Y2D01*
X1408Y2D01*
X1407Y2D01*
X1406Y2D01*
X1405Y2D01*
X1404Y2D01*
X1403Y2D01*
X1402Y2D01*
X1401Y2D01*
X1400Y2D01*
X1399Y2D01*
X1398Y2D01*
X1397Y2D01*
X1396Y2D01*
X1395Y2D01*
X1394Y2D01*
X1393Y2D01*
X1392Y2D01*
X1391Y2D01*
X1390Y2D01*
X1389Y2D01*
X1388Y2D01*
X1387Y2D01*
X1386Y2D01*
X1385Y2D01*
X1384Y2D01*
X1383Y2D01*
X1382Y2D01*
X1381Y2D01*
X1380Y2D01*
X1379Y2D01*
X1378Y2D01*
X1377Y2D01*
X1376Y2D01*
X1375Y2D01*
X1374Y2D01*
X1373Y2D01*
X1372Y2D01*
X1371Y2D01*
X1370Y2D01*
X1369Y2D01*
X1368Y2D01*
X1367Y2D01*
X1366Y2D01*
X1365Y2D01*
X1364Y2D01*
X1363Y2D01*
X1362Y2D01*
X1361Y2D01*
X1360Y2D01*
X1359Y2D01*
X1358Y2D01*
X1357Y2D01*
X1356Y2D01*
X1355Y2D01*
X1354Y2D01*
X1353Y2D01*
X1352Y2D01*
X1351Y2D01*
X1350Y2D01*
X1349Y2D01*
X1348Y2D01*
X1347Y2D01*
X1346Y2D01*
X1345Y2D01*
X1344Y2D01*
X1343Y2D01*
X1342Y2D01*
X1341Y2D01*
X1340Y2D01*
X1339Y2D01*
X1338Y2D01*
X1337Y2D01*
X1336Y2D01*
X1335Y2D01*
X1334Y2D01*
X1333Y2D01*
X1332Y2D01*
X1331Y2D01*
X1330Y2D01*
X1329Y2D01*
X1328Y2D01*
X1327Y2D01*
X1326Y2D01*
X1325Y2D01*
X1324Y2D01*
X1323Y2D01*
X1322Y2D01*
X1321Y2D01*
X1320Y2D01*
X1319Y2D01*
X1318Y2D01*
X1317Y2D01*
X1316Y2D01*
X1315Y2D01*
X1314Y2D01*
X1313Y2D01*
X1312Y2D01*
X1311Y2D01*
X1310Y2D01*
X1309Y2D01*
X1308Y2D01*
X1307Y2D01*
X1306Y2D01*
X1305Y2D01*
X1304Y2D01*
X1303Y2D01*
X1302Y2D01*
X1301Y2D01*
X1300Y2D01*
X1299Y2D01*
X1298Y2D01*
X1297Y2D01*
X1296Y2D01*
X1295Y2D01*
X1294Y2D01*
X1293Y2D01*
X1292Y2D01*
X1291Y2D01*
X1290Y2D01*
X1289Y2D01*
X1288Y2D01*
X1287Y2D01*
X1286Y2D01*
X1285Y2D01*
X1284Y2D01*
X1283Y2D01*
X1282Y2D01*
X1281Y2D01*
X1280Y2D01*
X1279Y2D01*
X1278Y2D01*
X1277Y2D01*
X1276Y2D01*
X1275Y2D01*
X1274Y2D01*
X1273Y2D01*
X1272Y2D01*
X1271Y2D01*
X1270Y2D01*
X1269Y2D01*
X1268Y2D01*
X1267Y2D01*
X1266Y2D01*
X1265Y2D01*
X1264Y2D01*
X1263Y2D01*
X1262Y2D01*
X1261Y2D01*
X1260Y2D01*
X1259Y2D01*
X1258Y2D01*
X1257Y2D01*
X1256Y2D01*
X1255Y2D01*
X1254Y2D01*
X1253Y2D01*
X1252Y2D01*
X1251Y2D01*
X1250Y2D01*
X1249Y2D01*
X1248Y2D01*
X1247Y2D01*
X1246Y2D01*
X1245Y2D01*
X1244Y2D01*
X1243Y2D01*
X1242Y2D01*
X1241Y2D01*
X1240Y2D01*
X1239Y2D01*
X1238Y2D01*
X1237Y2D01*
X1236Y2D01*
X1235Y2D01*
X1234Y2D01*
X1233Y2D01*
X1232Y2D01*
X1231Y2D01*
X1230Y2D01*
X1229Y2D01*
X1228Y2D01*
X1227Y2D01*
X1226Y2D01*
X1225Y2D01*
X1224Y2D01*
X1223Y2D01*
X1222Y2D01*
X1221Y2D01*
X1220Y2D01*
X1219Y2D01*
X1218Y2D01*
X1217Y2D01*
X1216Y2D01*
X1215Y2D01*
X1214Y2D01*
X1213Y2D01*
X1212Y2D01*
X1211Y2D01*
X1210Y2D01*
X1209Y2D01*
X1208Y2D01*
X1207Y2D01*
X1206Y2D01*
X1205Y2D01*
X1204Y2D01*
X1203Y2D01*
X1202Y2D01*
X1201Y2D01*
X1200Y2D01*
X1199Y2D01*
X1198Y2D01*
X1197Y2D01*
X1196Y2D01*
X1195Y2D01*
X1194Y2D01*
X1193Y2D01*
X1192Y2D01*
X1191Y2D01*
X1190Y2D01*
X1189Y2D01*
X1188Y2D01*
X1187Y2D01*
X1186Y2D01*
X1185Y2D01*
X1184Y2D01*
X1183Y2D01*
X1182Y2D01*
X1181Y2D01*
X1180Y2D01*
X1179Y2D01*
X1178Y2D01*
X1177Y2D01*
X1176Y2D01*
X1175Y2D01*
X1174Y2D01*
X1173Y2D01*
X1172Y2D01*
X1171Y2D01*
X1170Y2D01*
X1169Y2D01*
X1168Y2D01*
X1167Y2D01*
X1166Y2D01*
X1165Y2D01*
X1164Y2D01*
X1163Y2D01*
X1162Y2D01*
X1161Y2D01*
X1160Y2D01*
X1159Y2D01*
X1158Y2D01*
X1157Y2D01*
X1156Y2D01*
X1155Y2D01*
X1154Y2D01*
X1153Y2D01*
X1152Y2D01*
X1151Y2D01*
X1150Y2D01*
X1149Y2D01*
X1148Y2D01*
X1147Y2D01*
X1146Y2D01*
X1145Y2D01*
X1144Y2D01*
X1143Y2D01*
X1142Y2D01*
X1141Y2D01*
X1140Y2D01*
X1139Y2D01*
X1138Y2D01*
X1137Y2D01*
X1136Y2D01*
X1135Y2D01*
X1134Y2D01*
X1133Y2D01*
X1132Y2D01*
X1131Y2D01*
X1130Y2D01*
X1129Y2D01*
X1128Y2D01*
X1127Y2D01*
X1126Y2D01*
X1125Y2D01*
X1124Y2D01*
X1123Y2D01*
X1122Y2D01*
X1121Y2D01*
X1120Y2D01*
X1119Y2D01*
X1118Y2D01*
X1117Y2D01*
X1116Y2D01*
X1115Y2D01*
X1114Y2D01*
X1113Y2D01*
X1112Y2D01*
X1111Y2D01*
X1110Y2D01*
X1109Y2D01*
X1108Y2D01*
X1107Y2D01*
X1106Y2D01*
X1105Y2D01*
X1104Y2D01*
X1103Y2D01*
X1102Y2D01*
X1101Y2D01*
X1100Y2D01*
X1099Y2D01*
X1098Y2D01*
X1097Y2D01*
X1096Y2D01*
X1095Y2D01*
X1094Y2D01*
X1093Y2D01*
X1092Y2D01*
X1091Y2D01*
X1090Y2D01*
X1089Y2D01*
X1088Y2D01*
X1087Y2D01*
X1086Y2D01*
X1085Y2D01*
X1084Y2D01*
X1083Y2D01*
X1082Y2D01*
X1081Y2D01*
X1080Y2D01*
X1079Y2D01*
X1078Y2D01*
X1077Y2D01*
X1076Y2D01*
X1075Y2D01*
X1074Y2D01*
X1073Y2D01*
X1072Y2D01*
X1071Y2D01*
X1070Y2D01*
X1069Y2D01*
X1068Y2D01*
X1067Y2D01*
X1066Y2D01*
X1065Y2D01*
X1064Y2D01*
X1063Y2D01*
X1062Y2D01*
X1061Y2D01*
X1060Y2D01*
X1059Y2D01*
X1058Y2D01*
X1057Y2D01*
X1056Y2D01*
X1055Y2D01*
X1054Y2D01*
X1053Y2D01*
X1052Y2D01*
X1051Y2D01*
X1050Y2D01*
X1049Y2D01*
X1048Y2D01*
X1047Y2D01*
X1046Y2D01*
X1045Y2D01*
X1044Y2D01*
X1043Y2D01*
X1042Y2D01*
X1041Y2D01*
X1040Y2D01*
X1039Y2D01*
X1038Y2D01*
X1037Y2D01*
X1036Y2D01*
X1035Y2D01*
X1034Y2D01*
X1033Y2D01*
X1032Y2D01*
X1031Y2D01*
X1030Y2D01*
X1029Y2D01*
X1028Y2D01*
X1027Y2D01*
X1026Y2D01*
X1025Y2D01*
X1024Y2D01*
X1023Y2D01*
X1022Y2D01*
X1021Y2D01*
X1020Y2D01*
X1019Y2D01*
X1018Y2D01*
X1017Y2D01*
X1016Y2D01*
X1015Y2D01*
X1014Y2D01*
X1013Y2D01*
X1012Y2D01*
X1011Y2D01*
X1010Y2D01*
X1009Y2D01*
X1008Y2D01*
X1007Y2D01*
X1006Y2D01*
X1005Y2D01*
X1004Y2D01*
X1003Y2D01*
X1002Y2D01*
X1001Y2D01*
X1000Y2D01*
X999Y2D01*
X998Y2D01*
X997Y2D01*
X996Y2D01*
X995Y2D01*
X994Y2D01*
X993Y2D01*
X992Y2D01*
X991Y2D01*
X990Y2D01*
X989Y2D01*
X988Y2D01*
X987Y2D01*
X986Y2D01*
X985Y2D01*
X984Y2D01*
X983Y2D01*
X982Y2D01*
X981Y2D01*
X980Y2D01*
X979Y2D01*
X978Y2D01*
X977Y2D01*
X976Y2D01*
X975Y2D01*
X974Y2D01*
X973Y2D01*
X972Y2D01*
X971Y2D01*
X970Y2D01*
X969Y2D01*
X968Y2D01*
X967Y2D01*
X966Y2D01*
X965Y2D01*
X964Y2D01*
X963Y2D01*
X962Y2D01*
X961Y2D01*
X960Y2D01*
X959Y2D01*
X958Y2D01*
X957Y2D01*
X956Y2D01*
X955Y2D01*
X954Y2D01*
X953Y2D01*
X952Y2D01*
X951Y2D01*
X950Y2D01*
X949Y2D01*
X948Y2D01*
X947Y2D01*
X946Y2D01*
X945Y2D01*
X944Y2D01*
X943Y2D01*
X942Y2D01*
X941Y2D01*
X940Y2D01*
X939Y2D01*
X938Y2D01*
X937Y2D01*
X936Y2D01*
X935Y2D01*
X934Y2D01*
X933Y2D01*
X932Y2D01*
X931Y2D01*
X930Y2D01*
X929Y2D01*
X928Y2D01*
X927Y2D01*
X926Y2D01*
X925Y2D01*
X924Y2D01*
X923Y2D01*
X922Y2D01*
X921Y2D01*
X920Y2D01*
X919Y2D01*
X918Y2D01*
X917Y2D01*
X916Y2D01*
X915Y2D01*
X914Y2D01*
X913Y2D01*
X912Y2D01*
X911Y2D01*
X910Y2D01*
X909Y2D01*
X908Y2D01*
X907Y2D01*
X906Y2D01*
X905Y2D01*
X904Y2D01*
X903Y2D01*
X902Y2D01*
X901Y2D01*
X900Y2D01*
X899Y2D01*
X898Y2D01*
X897Y2D01*
X896Y2D01*
X895Y2D01*
X894Y2D01*
X893Y2D01*
X892Y2D01*
X891Y2D01*
X890Y2D01*
X889Y2D01*
X888Y2D01*
X887Y2D01*
X886Y2D01*
X885Y2D01*
X884Y2D01*
X883Y2D01*
X882Y2D01*
X881Y2D01*
X880Y2D01*
X879Y2D01*
X878Y2D01*
X877Y2D01*
X876Y2D01*
X875Y2D01*
X874Y2D01*
X873Y2D01*
X872Y2D01*
X871Y2D01*
X870Y2D01*
X869Y2D01*
X868Y2D01*
X867Y2D01*
X866Y2D01*
X865Y2D01*
X864Y2D01*
X863Y2D01*
X862Y2D01*
X861Y2D01*
X860Y2D01*
X859Y2D01*
X858Y2D01*
X857Y2D01*
X856Y2D01*
X855Y2D01*
X854Y2D01*
X853Y2D01*
X852Y2D01*
X851Y2D01*
X850Y2D01*
X849Y2D01*
X848Y2D01*
X847Y2D01*
X846Y2D01*
X845Y2D01*
X844Y2D01*
X843Y2D01*
X842Y2D01*
X841Y2D01*
X840Y2D01*
X839Y2D01*
X838Y2D01*
X837Y2D01*
X836Y2D01*
X835Y2D01*
X834Y2D01*
X833Y2D01*
X832Y2D01*
X831Y2D01*
X830Y2D01*
X829Y2D01*
X828Y2D01*
X827Y2D01*
X826Y2D01*
X825Y2D01*
X824Y2D01*
X823Y2D01*
X822Y2D01*
X821Y2D01*
X820Y2D01*
X819Y2D01*
X818Y2D01*
X817Y2D01*
X816Y2D01*
X815Y2D01*
X814Y2D01*
X813Y2D01*
X812Y2D01*
X811Y2D01*
X810Y2D01*
X809Y2D01*
X808Y2D01*
X807Y2D01*
X806Y2D01*
X805Y2D01*
X804Y2D01*
X803Y2D01*
X802Y2D01*
X801Y2D01*
X800Y2D01*
X799Y2D01*
X798Y2D01*
X797Y2D01*
X796Y2D01*
X795Y2D01*
X794Y2D01*
X793Y2D01*
X792Y2D01*
X791Y2D01*
X790Y2D01*
X789Y2D01*
X788Y2D01*
X787Y2D01*
X786Y2D01*
X785Y2D01*
X784Y2D01*
X783Y2D01*
X782Y2D01*
X781Y2D01*
X780Y2D01*
X779Y2D01*
X778Y2D01*
X777Y2D01*
X776Y2D01*
X775Y2D01*
X774Y2D01*
X773Y2D01*
X772Y2D01*
X771Y2D01*
X770Y2D01*
X769Y2D01*
X768Y2D01*
X767Y2D01*
X766Y2D01*
X765Y2D01*
X764Y2D01*
X763Y2D01*
X762Y2D01*
X761Y2D01*
X760Y2D01*
X759Y2D01*
X758Y2D01*
X757Y2D01*
X756Y2D01*
X755Y2D01*
X754Y2D01*
X753Y2D01*
X752Y2D01*
X751Y2D01*
X750Y2D01*
X749Y2D01*
X748Y2D01*
X747Y2D01*
X746Y2D01*
X745Y2D01*
X744Y2D01*
X743Y2D01*
X742Y2D01*
X741Y2D01*
X740Y2D01*
X739Y2D01*
X738Y2D01*
X737Y2D01*
X736Y2D01*
X735Y2D01*
X734Y2D01*
X733Y2D01*
X732Y2D01*
X731Y2D01*
X730Y2D01*
X729Y2D01*
X728Y2D01*
X727Y2D01*
X726Y2D01*
X725Y2D01*
X724Y2D01*
X723Y2D01*
X722Y2D01*
X721Y2D01*
X720Y2D01*
X719Y2D01*
X718Y2D01*
X717Y2D01*
X716Y2D01*
X715Y2D01*
X714Y2D01*
X713Y2D01*
X712Y2D01*
X711Y2D01*
X710Y2D01*
X709Y2D01*
X708Y2D01*
X707Y2D01*
X706Y2D01*
X705Y2D01*
X704Y2D01*
X703Y2D01*
X702Y2D01*
X701Y2D01*
X700Y2D01*
X699Y2D01*
X698Y2D01*
X697Y2D01*
X696Y2D01*
X695Y2D01*
X694Y2D01*
X693Y2D01*
X692Y2D01*
X691Y2D01*
X690Y2D01*
X689Y2D01*
X688Y2D01*
X687Y2D01*
X686Y2D01*
X685Y2D01*
X684Y2D01*
X683Y2D01*
X682Y2D01*
X681Y2D01*
X680Y2D01*
X679Y2D01*
X678Y2D01*
X677Y2D01*
X676Y2D01*
X675Y2D01*
X674Y2D01*
X673Y2D01*
X672Y2D01*
X671Y2D01*
X670Y2D01*
X669Y2D01*
X668Y2D01*
X667Y2D01*
X666Y2D01*
X665Y2D01*
X664Y2D01*
X663Y2D01*
X662Y2D01*
X661Y2D01*
X660Y2D01*
X659Y2D01*
X658Y2D01*
X657Y2D01*
X656Y2D01*
X655Y2D01*
X654Y2D01*
X653Y2D01*
X652Y2D01*
X651Y2D01*
X650Y2D01*
X649Y2D01*
X648Y2D01*
X647Y2D01*
X646Y2D01*
X645Y2D01*
X644Y2D01*
X643Y2D01*
X642Y2D01*
X641Y2D01*
X640Y2D01*
X639Y2D01*
X638Y2D01*
X637Y2D01*
X636Y2D01*
X635Y2D01*
X634Y2D01*
X633Y2D01*
X632Y2D01*
X631Y2D01*
X630Y2D01*
X629Y2D01*
X628Y2D01*
X627Y2D01*
X626Y2D01*
X625Y2D01*
X624Y2D01*
X623Y2D01*
X622Y2D01*
X621Y2D01*
X620Y2D01*
X619Y2D01*
X618Y2D01*
X617Y2D01*
X616Y2D01*
X615Y2D01*
X614Y2D01*
X613Y2D01*
X612Y2D01*
X611Y2D01*
X610Y2D01*
X609Y2D01*
X608Y2D01*
X607Y2D01*
X606Y2D01*
X605Y2D01*
X604Y2D01*
X603Y2D01*
X602Y2D01*
X601Y2D01*
X600Y2D01*
X599Y2D01*
X598Y2D01*
X597Y2D01*
X596Y2D01*
X595Y2D01*
X594Y2D01*
X593Y2D01*
X592Y2D01*
X591Y2D01*
X590Y2D01*
X589Y2D01*
X588Y2D01*
X587Y2D01*
X586Y2D01*
X585Y2D01*
X584Y2D01*
X583Y2D01*
X582Y2D01*
X581Y2D01*
X580Y2D01*
X579Y2D01*
X578Y2D01*
X577Y2D01*
X576Y2D01*
X575Y2D01*
X574Y2D01*
X573Y2D01*
X572Y2D01*
X571Y2D01*
X570Y2D01*
X569Y2D01*
X568Y2D01*
X567Y2D01*
X566Y2D01*
X565Y2D01*
X564Y2D01*
X563Y2D01*
X562Y2D01*
X561Y2D01*
X560Y2D01*
X559Y2D01*
X558Y2D01*
X557Y2D01*
X556Y2D01*
X555Y2D01*
X554Y2D01*
X553Y2D01*
X552Y2D01*
X551Y2D01*
X550Y2D01*
X549Y2D01*
X548Y2D01*
X547Y2D01*
X546Y2D01*
X545Y2D01*
X544Y2D01*
X543Y2D01*
X542Y2D01*
X541Y2D01*
X540Y2D01*
X539Y2D01*
X538Y2D01*
X537Y2D01*
X536Y2D01*
X535Y2D01*
X534Y2D01*
X533Y2D01*
X532Y2D01*
X531Y2D01*
X530Y2D01*
X529Y2D01*
X528Y2D01*
X527Y2D01*
X526Y2D01*
X525Y2D01*
X524Y2D01*
X523Y2D01*
X522Y2D01*
X521Y2D01*
X520Y2D01*
X519Y2D01*
X518Y2D01*
X517Y2D01*
X516Y2D01*
X515Y2D01*
X514Y2D01*
X513Y2D01*
X512Y2D01*
X511Y2D01*
X510Y2D01*
X509Y2D01*
X508Y2D01*
X507Y2D01*
X506Y2D01*
X505Y2D01*
X504Y2D01*
X503Y2D01*
X502Y2D01*
X501Y2D01*
X500Y2D01*
X499Y2D01*
X498Y2D01*
X497Y2D01*
X496Y2D01*
X495Y2D01*
X494Y2D01*
X493Y2D01*
X492Y2D01*
X491Y2D01*
X490Y2D01*
X489Y2D01*
X488Y2D01*
X487Y2D01*
X486Y2D01*
X485Y2D01*
X484Y2D01*
X483Y2D01*
X482Y2D01*
X481Y2D01*
X480Y2D01*
X479Y2D01*
X478Y2D01*
X477Y2D01*
X476Y2D01*
X475Y2D01*
X474Y2D01*
X473Y2D01*
X472Y2D01*
X471Y2D01*
X470Y2D01*
X469Y2D01*
X468Y2D01*
X467Y2D01*
X466Y2D01*
X465Y2D01*
X464Y2D01*
X463Y2D01*
X462Y2D01*
X461Y2D01*
X460Y2D01*
X459Y2D01*
X458Y2D01*
X457Y2D01*
X456Y2D01*
X455Y2D01*
X454Y2D01*
X453Y2D01*
X452Y2D01*
X451Y2D01*
X450Y2D01*
X449Y2D01*
X448Y2D01*
X447Y2D01*
X446Y2D01*
X445Y2D01*
X444Y2D01*
X443Y2D01*
X442Y2D01*
X441Y2D01*
X440Y2D01*
X439Y2D01*
X438Y2D01*
X437Y2D01*
X436Y2D01*
X435Y2D01*
X434Y2D01*
X433Y2D01*
X432Y2D01*
X431Y2D01*
X430Y2D01*
X429Y2D01*
X428Y2D01*
X427Y2D01*
X426Y2D01*
X425Y2D01*
X424Y2D01*
X423Y2D01*
X422Y2D01*
X421Y2D01*
X420Y2D01*
X419Y2D01*
X418Y2D01*
X417Y2D01*
X416Y2D01*
X415Y2D01*
X414Y2D01*
X413Y2D01*
X412Y2D01*
X411Y2D01*
X410Y2D01*
X409Y2D01*
X408Y2D01*
X407Y2D01*
X406Y2D01*
X405Y2D01*
X404Y2D01*
X403Y2D01*
X402Y2D01*
X401Y2D01*
X400Y2D01*
X399Y2D01*
X398Y2D01*
X397Y2D01*
X396Y2D01*
X395Y2D01*
X394Y2D01*
X393Y2D01*
X392Y2D01*
X391Y2D01*
X390Y2D01*
X389Y2D01*
X388Y2D01*
X387Y2D01*
X386Y2D01*
X385Y2D01*
X384Y2D01*
X383Y2D01*
X382Y2D01*
X381Y2D01*
X380Y2D01*
X379Y2D01*
X378Y2D01*
X377Y2D01*
X376Y2D01*
X375Y2D01*
X374Y2D01*
X373Y2D01*
X372Y2D01*
X371Y2D01*
X370Y2D01*
X369Y2D01*
X368Y2D01*
X367Y2D01*
X366Y2D01*
X365Y2D01*
X364Y2D01*
X363Y2D01*
X362Y2D01*
X361Y2D01*
X360Y2D01*
X359Y2D01*
X358Y2D01*
X357Y2D01*
X356Y2D01*
X355Y2D01*
X354Y2D01*
X353Y2D01*
X352Y2D01*
X351Y2D01*
X350Y2D01*
X349Y2D01*
X348Y2D01*
X347Y2D01*
X346Y2D01*
X345Y2D01*
X344Y2D01*
X343Y2D01*
X342Y2D01*
X341Y2D01*
X340Y2D01*
X339Y2D01*
X338Y2D01*
X337Y2D01*
X336Y2D01*
X335Y2D01*
X334Y2D01*
X333Y2D01*
X332Y2D01*
X331Y2D01*
X330Y2D01*
X329Y2D01*
X328Y2D01*
X327Y2D01*
X326Y2D01*
X325Y2D01*
X324Y2D01*
X323Y2D01*
X322Y2D01*
X321Y2D01*
X320Y2D01*
X319Y2D01*
X318Y2D01*
X317Y2D01*
X316Y2D01*
X315Y2D01*
X314Y2D01*
X313Y2D01*
X312Y2D01*
X311Y2D01*
X310Y2D01*
X309Y2D01*
X308Y2D01*
X307Y2D01*
X306Y2D01*
X305Y2D01*
X304Y2D01*
X303Y2D01*
X302Y2D01*
X301Y2D01*
X300Y2D01*
X299Y2D01*
X298Y2D01*
X297Y2D01*
X296Y2D01*
X295Y2D01*
X294Y2D01*
X293Y2D01*
X292Y2D01*
X291Y2D01*
X290Y2D01*
X289Y2D01*
X288Y2D01*
X287Y2D01*
X286Y2D01*
X285Y2D01*
X284Y2D01*
X283Y2D01*
X282Y2D01*
X281Y2D01*
X280Y2D01*
X279Y2D01*
X278Y2D01*
X277Y2D01*
X276Y2D01*
X275Y2D01*
X274Y2D01*
X273Y2D01*
X272Y2D01*
X271Y2D01*
X270Y2D01*
X269Y2D01*
X268Y2D01*
X267Y2D01*
X266Y2D01*
X265Y2D01*
X264Y2D01*
X263Y2D01*
X262Y2D01*
X261Y2D01*
X260Y2D01*
X259Y2D01*
X258Y2D01*
X257Y2D01*
X256Y2D01*
X255Y2D01*
X254Y2D01*
X253Y2D01*
X252Y2D01*
X251Y2D01*
X250Y2D01*
X249Y2D01*
X248Y2D01*
X247Y2D01*
X246Y2D01*
X245Y2D01*
X244Y2D01*
X243Y2D01*
X242Y2D01*
X241Y2D01*
X240Y2D01*
X239Y2D01*
X238Y2D01*
X237Y2D01*
X236Y2D01*
X235Y2D01*
X234Y2D01*
X233Y2D01*
X232Y2D01*
X231Y2D01*
X230Y2D01*
X229Y2D01*
X228Y2D01*
X227Y2D01*
X226Y2D01*
X225Y2D01*
X224Y2D01*
X223Y2D01*
X222Y2D01*
X221Y2D01*
X220Y2D01*
X219Y2D01*
X218Y2D01*
X217Y2D01*
X216Y2D01*
X215Y2D01*
X214Y2D01*
X213Y2D01*
X212Y2D01*
X211Y2D01*
X210Y2D01*
X209Y2D01*
X208Y2D01*
X207Y2D01*
X206Y2D01*
X205Y2D01*
X204Y2D01*
X203Y2D01*
X202Y2D01*
X201Y2D01*
X200Y2D01*
X199Y2D01*
X198Y2D01*
X197Y2D01*
X196Y2D01*
X195Y2D01*
X194Y2D01*
X193Y2D01*
X192Y2D01*
X191Y2D01*
X190Y2D01*
X189Y2D01*
X188Y2D01*
X187Y2D01*
X186Y2D01*
X185Y2D01*
X184Y2D01*
X183Y2D01*
X182Y2D01*
X181Y2D01*
X180Y2D01*
X179Y2D01*
X178Y2D01*
X177Y2D01*
X176Y2D01*
X175Y2D01*
X174Y2D01*
X173Y2D01*
X172Y2D01*
X171Y2D01*
X170Y2D01*
X169Y2D01*
X168Y2D01*
X167Y2D01*
X166Y2D01*
X165Y2D01*
X164Y2D01*
X163Y2D01*
X162Y2D01*
X161Y2D01*
X160Y2D01*
X159Y2D01*
X158Y2D01*
X157Y2D01*
X156Y2D01*
X155Y2D01*
X154Y2D01*
X153Y2D01*
X152Y2D01*
X151Y2D01*
X150Y2D01*
X149Y2D01*
X148Y2D01*
X147Y2D01*
X146Y2D01*
X145Y2D01*
X144Y2D01*
X143Y2D01*
X142Y2D01*
X141Y2D01*
X140Y2D01*
X139Y2D01*
X138Y2D01*
X137Y2D01*
X136Y2D01*
X135Y2D01*
X134Y2D01*
X133Y2D01*
X132Y2D01*
X131Y2D01*
X130Y2D01*
X129Y2D01*
X128Y2D01*
X127Y2D01*
X126Y2D01*
X125Y2D01*
X124Y2D01*
X123Y2D01*
X122Y2D01*
X121Y2D01*
X120Y2D01*
X119Y2D01*
X118Y2D01*
X117Y2D01*
X116Y2D01*
X115Y2D01*
X114Y2D01*
X113Y2D01*
X112Y2D01*
X111Y2D01*
X110Y2D01*
X109Y2D01*
X108Y2D01*
X107Y2D01*
X106Y2D01*
X105Y2D01*
X104Y2D01*
X103Y2D01*
X102Y2D01*
X101Y2D01*
X100Y2D01*
X99Y2D01*
X98Y2D01*
X97Y2D01*
X96Y2D01*
X95Y2D01*
X94Y2D01*
X93Y2D01*
X92Y2D01*
X91Y2D01*
X90Y2D01*
X89Y2D01*
X88Y2D01*
X87Y2D01*
X86Y2D01*
X85Y2D01*
X84Y2D01*
X83Y2D01*
X82Y2D01*
X81Y2D01*
X80Y2D01*
X79Y2D01*
X78Y2D01*
X77Y2D01*
X76Y2D01*
X75Y2D01*
X74Y2D01*
X73Y2D01*
X72Y2D01*
X71Y2D01*
X70Y2D01*
X69Y2D01*
X68Y2D01*
X67Y2D01*
X66Y2D01*
X65Y3D01*
X64Y3D01*
X63Y3D01*
X62Y3D01*
X61Y3D01*
X60Y3D01*
X59Y3D01*
X58Y4D01*
X57Y4D01*
X56Y4D01*
X55Y4D01*
X54Y5D01*
X53Y5D01*
X52Y5D01*
X51Y5D01*
X50Y6D01*
X49Y6D01*
X48Y6D01*
X47Y7D01*
X46Y7D01*
X45Y7D01*
X44Y8D01*
X43Y8D01*
X42Y9D01*
X41Y9D01*
X40Y10D01*
X39Y10D01*
X38Y11D01*
X37Y11D01*
X36Y12D01*
X35Y12D01*
X34Y13D01*
X33Y13D01*
X32Y14D01*
X31Y15D01*
X30Y15D01*
X29Y16D01*
X28Y17D01*
X27Y17D01*
X26Y18D01*
X25Y19D01*
X24Y20D01*
X23Y21D01*
X22Y22D01*
X21Y22D01*
X20Y23D01*
X19Y24D01*
X19Y25D01*
X18Y26D01*
X17Y27D01*
X16Y28D01*
X15Y29D01*
X14Y30D01*
X13Y31D01*
X13Y32D01*
X12Y33D01*
X11Y34D01*
X11Y35D01*
X10Y36D01*
X9Y37D01*
X9Y38D01*
X8Y39D01*
X8Y40D01*
X7Y41D01*
X7Y42D01*
X6Y43D01*
X6Y44D01*
X5Y45D01*
X5Y46D01*
X4Y47D01*
X4Y49D01*
X3Y50D01*
X3Y52D01*
X2Y53D01*
X2Y56D01*
X1Y57D01*
X1Y62D01*
X0Y63D01*
X0Y1908D01*
X1Y1909D01*
X1Y1914D01*
X2Y1915D01*
X2Y1918D01*
X3Y1919D01*
X3Y1921D01*
X4Y1922D01*
X4Y1924D01*
X5Y1925D01*
X5Y1926D01*
X6Y1927D01*
X6Y1928D01*
X7Y1929D01*
X7Y1930D01*
X8Y1931D01*
X8Y1932D01*
X9Y1933D01*
X9Y1934D01*
X10Y1935D01*
X11Y1936D01*
X11Y1937D01*
X12Y1938D01*
X13Y1939D01*
X13Y1940D01*
X14Y1941D01*
X15Y1942D01*
X16Y1943D01*
X17Y1944D01*
X18Y1945D01*
X19Y1946D01*
X19Y1947D01*
X20Y1948D01*
X21Y1949D01*
X22Y1949D01*
X23Y1950D01*
X24Y1951D01*
X25Y1952D01*
X26Y1953D01*
X27Y1954D01*
X28Y1954D01*
X29Y1955D01*
X30Y1956D01*
X31Y1956D01*
X32Y1957D01*
X33Y1958D01*
X34Y1958D01*
X35Y1959D01*
X36Y1959D01*
X37Y1960D01*
X38Y1960D01*
X39Y1961D01*
X40Y1961D01*
X41Y1962D01*
X42Y1962D01*
X43Y1963D01*
X44Y1963D01*
X45Y1964D01*
X46Y1964D01*
X47Y1964D01*
X48Y1965D01*
X49Y1965D01*
X50Y1965D01*
X51Y1966D01*
X52Y1966D01*
X53Y1966D01*
X54Y1966D01*
X55Y1967D01*
X56Y1967D01*
X57Y1967D01*
X58Y1967D01*
X59Y1968D01*
X60Y1968D01*
X61Y1968D01*
X62Y1968D01*
X63Y1968D01*
X64Y1968D01*
X65Y1968D01*
X66Y1969D01*
D02*
G04 End of contour*
M02*