; NON-PLATED HOLES START AT T1
; THROUGH (PLATED) HOLES START AT T100
M48
INCH
T1C0.031496
T2C0.035433
T100C0.035433
T101C0.038000
T102C0.015748
T103C0.102362
%
T1
X007347Y001282
X009139Y001282
T2
X000554Y015133
X000554Y016314
T100
X015993Y005678
X015993Y004178
X015993Y007178
X015993Y002678
T101
X009493Y008928
X008493Y008928
X011743Y018928
X013743Y018928
X010493Y008928
X007493Y008928
T102
X010493Y005428
X008493Y000428
X004493Y001178
X003493Y004178
X000993Y010928
X007993Y000428
X001243Y008678
X006365Y001801
X009243Y005428
X007743Y000678
X011743Y006678
X006743Y000428
X005743Y004178
X007243Y003678
X009243Y000678
X007243Y000678
X007243Y007178
X012743Y007678
X001993Y014928
X009158Y003204
X015743Y008178
X013993Y002678
X010493Y004928
X006493Y008178
X003493Y001678
X008743Y005178
X011743Y002428
X008743Y000678
X010993Y006428
X014743Y003678
X007492Y000428
X008993Y000428
X014243Y001428
X009743Y000428
X014243Y003678
X001993Y008678
X008243Y000678
X012493Y001928
T103
X015243Y018428
X001243Y001178
X001243Y018428
X015243Y001178
T00
M30
