<?xml version="1.0" encoding="UTF-8" standalone="no"?>
<!-- Created with Fritzing (http://www.fritzing.org/) -->

<svg
   xmlns:dc="http://purl.org/dc/elements/1.1/"
   xmlns:cc="http://creativecommons.org/ns#"
   xmlns:rdf="http://www.w3.org/1999/02/22-rdf-syntax-ns#"
   xmlns:svg="http://www.w3.org/2000/svg"
   xmlns="http://www.w3.org/2000/svg"
   xmlns:sodipodi="http://sodipodi.sourceforge.net/DTD/sodipodi-0.dtd"
   xmlns:inkscape="http://www.inkscape.org/namespaces/inkscape"
   version="1.2"
   x="0in"
   y="0in"
   width="1.125342in"
   height="0.67257768in"
   viewBox="0 0 81.02425 48.425616"
   id="svg4148"
   sodipodi:docname="gg10_doodle.svg"
   inkscape:version="0.92.2 (5c3e80d, 2017-08-06)">
  <metadata
     id="metadata4154">
    <rdf:RDF>
      <cc:Work
         rdf:about="">
        <dc:title></dc:title>
        <dc:format>image/svg+xml</dc:format>
        <dc:type
           rdf:resource="http://purl.org/dc/dcmitype/StillImage" />
      </cc:Work>
    </rdf:RDF>
  </metadata>
  <defs
     id="defs4152">
    <defs
       id="defs4" />
    <defs
       id="defs2" />
  </defs>
  <sodipodi:namedview
     pagecolor="#ffffff"
     bordercolor="#666666"
     borderopacity="1"
     objecttolerance="10"
     gridtolerance="10"
     guidetolerance="10"
     inkscape:pageopacity="0"
     inkscape:pageshadow="2"
     inkscape:window-width="1272"
     inkscape:window-height="1032"
     id="namedview4150"
     showgrid="false"
     fit-margin-top="0"
     fit-margin-left="0"
     fit-margin-right="0"
     fit-margin-bottom="0"
     showguides="true"
     inkscape:guide-bbox="true"
     inkscape:object-paths="true"
     inkscape:snap-bbox="true"
     inkscape:bbox-paths="true"
     inkscape:snap-bbox-edge-midpoints="true"
     inkscape:bbox-nodes="true"
     inkscape:zoom="11.9581"
     inkscape:cx="24.473381"
     inkscape:cy="24.250289"
     inkscape:window-x="0"
     inkscape:window-y="0"
     inkscape:window-maximized="0"
     inkscape:current-layer="svg4148" />
  <path
     inkscape:connector-curvature="0"
     id="path1129"
     d="m 9.3927163,13.596012 c -2.1390296,2.758223 -5.2693211,4.580228 -9.39258273029,5.4668 v 3.990236 C 1.5533981,23.060248 3.2200407,22.988983 4.6436907,23.474923 c 0.601825,0.205424 0.9280347,0.667879 1.054688,1.202638 0.1266525,0.534757 0.1904296,2.125356 0.1904296,4.770998 V 47.770833 H 14.417133 V 13.596012 Z"
     style="font-style:normal;font-variant:normal;font-weight:normal;font-stretch:condensed;font-size:43.23091507px;line-height:67.54808807px;font-family:Impact;-inkscape-font-specification:'Impact, Condensed';font-variant-ligatures:normal;font-variant-caps:normal;font-variant-numeric:normal;font-feature-settings:normal;text-align:start;letter-spacing:0px;word-spacing:0px;writing-mode:lr-tb;text-anchor:start;fill:#000000;fill-opacity:1;stroke:none;stroke-width:0.75000024px;stroke-linecap:butt;stroke-linejoin:miter;stroke-opacity:1" />
  <path
     style="font-style:normal;font-variant:normal;font-weight:normal;font-stretch:condensed;font-size:43.23091507px;line-height:67.54808807px;font-family:Impact;-inkscape-font-specification:'Impact, Condensed';font-variant-ligatures:normal;font-variant-caps:normal;font-variant-numeric:normal;font-feature-settings:normal;text-align:start;letter-spacing:0px;word-spacing:0px;writing-mode:lr-tb;text-anchor:start;fill:#000000;fill-opacity:1;stroke:none;stroke-width:0.99999988px;stroke-linecap:butt;stroke-linejoin:miter;stroke-opacity:1"
     d="M 37.685547 17.255859 C 31.814578 17.360934 26.679914 19.044211 24.232422 25.333984 C 23.670627 26.777736 23.556641 29.160599 23.556641 32.369141 L 23.556641 48.271484 C 23.556641 52.455724 23.885301 55.599164 24.626953 57.671875 C 26.28979 62.31904 31.768064 64.518506 36.841797 64.568359 C 42.15978 64.620607 48.13697 62.069341 50.013672 55.814453 C 50.478062 54.266676 50.546875 51.723951 50.546875 48.271484 L 50.546875 33.074219 C 50.546875 29.621752 50.394587 27.098645 49.984375 25.53125 C 48.743082 20.788348 43.153886 17.157993 37.685547 17.255859 z M 37.126953 24.255859 C 37.732131 24.290581 38.317029 24.647704 38.726562 25.193359 C 39.11559 25.711695 39.09375 27.304129 39.09375 29.724609 L 39.09375 52.296875 C 39.09375 54.529722 39.078684 56.027323 38.699219 56.603516 C 37.761851 58.026855 36.268647 57.75483 35.376953 56.744141 C 34.982443 56.296985 35.011719 54.604626 35.011719 51.958984 L 35.011719 29.724609 C 35.011719 27.379182 35.025732 25.8255 35.40625 25.25 C 35.89632 24.508818 36.521776 24.221138 37.126953 24.255859 z "
     transform="matrix(0.75000034,0,0,0.75000034,-2.0411077e-4,0)"
     id="path1131" />
  <g
     id="layer1"
     transform="matrix(-0.96592585,-0.25881896,-0.25881896,0.96592585,113.32499,69.908583)">
    <g
       transform="scale(0.26458333)"
       id="g23">
      <g
         id="g21" />
    </g>
  </g>
  <g
     style="stroke-width:0"
     transform="matrix(0,1,1.77165,0,33.519846,77.927443)"
     id="g1066">
    <g
       id="g1064">
      <g
         id="g1062">
        <g
           gorn="0.3.0.0.0.1.0.0"
           id="g1060"
           style="stroke-width:0">
          <g
             gorn="0.3.0.0.0.1.0.0.0"
             id="g4"
             style="stroke-width:0" />
        </g>
      </g>
    </g>
  </g>
  <g
     style="stroke-width:0"
     transform="matrix(-1,0,0,1.77165,63.363046,49.473943)"
     id="g1075">
    <g
       id="g1073">
      <g
         id="g1071">
        <g
           gorn="0.3.0.0.0.2.0.0"
           id="g11"
           style="stroke-width:0">
          <g
             gorn="0.3.0.0.0.2.0.0.0"
             id="g9"
             style="stroke-width:0" />
        </g>
      </g>
    </g>
  </g>
  <g
     style="stroke-width:0"
     transform="matrix(-1,0,0,1.77165,63.363046,68.588843)"
     id="g1086">
    <g
       id="g1084">
      <g
         id="g1082">
        <g
           gorn="0.3.0.0.0.4.0.0"
           id="g17"
           style="stroke-width:0">
          <g
             gorn="0.3.0.0.0.4.0.0.0"
             id="g15"
             style="stroke-width:0" />
        </g>
      </g>
    </g>
  </g>
  <g
     style="stroke-width:0"
     transform="matrix(0,1,1.77165,0,24.448986,83.59674)"
     id="g1099">
    <g
       id="g1097">
      <g
         id="g1095">
        <g
           gorn="0.3.0.0.0.6.0.0"
           id="g1093"
           style="stroke-width:0">
          <g
             gorn="0.3.0.0.0.6.0.0.0"
             id="g1091"
             style="stroke-width:0" />
        </g>
      </g>
    </g>
  </g>
  <g
     style="stroke-width:0"
     transform="matrix(-1,0,0,1.77165,63.363046,59.031243)"
     id="g1110">
    <g
       id="g1108">
      <g
         id="g1106">
        <g
           gorn="0.3.0.0.0.8.0.0"
           id="g29"
           style="stroke-width:0">
          <g
             gorn="0.3.0.0.0.8.0.0.0"
             id="g27"
             style="stroke-width:0" />
        </g>
      </g>
    </g>
  </g>
  <g
     style="stroke-width:0"
     transform="matrix(-1,0,0,-1.77165,63.363046,101.51566)"
     id="g1121">
    <g
       id="g1119">
      <g
         id="g1117">
        <g
           gorn="0.3.0.0.0.10.0.0"
           id="g35"
           style="stroke-width:0">
          <g
             gorn="0.3.0.0.0.10.0.0.0"
             id="g33"
             style="stroke-width:0" />
        </g>
      </g>
    </g>
  </g>
  <g
     style="stroke-width:0"
     transform="matrix(0,1,1.77165,0,28.984446,80.762043)"
     id="g1132">
    <g
       id="g1130">
      <g
         id="g1128">
        <g
           gorn="0.3.0.0.0.12.0.0"
           id="g41"
           style="stroke-width:0">
          <g
             gorn="0.3.0.0.0.12.0.0.0"
             id="g39"
             style="stroke-width:0" />
        </g>
      </g>
    </g>
  </g>
  <g
     style="stroke-width:0"
     transform="matrix(0,1,1.77165,0,19.913546,86.43139)"
     id="g1142">
    <g
       id="g1140">
      <g
         id="g1138">
        <g
           gorn="0.3.0.0.0.14.0.0"
           id="g47"
           style="stroke-width:0">
          <g
             gorn="0.3.0.0.0.14.0.0.0"
             id="g45"
             style="stroke-width:0" />
        </g>
      </g>
    </g>
  </g>
  <g
     style="stroke-width:0"
     transform="matrix(0,-1,-1.77165,0,60.851946,77.364543)"
     id="g1153">
    <g
       id="g1151">
      <g
         id="g1149">
        <g
           gorn="0.3.0.0.0.15.0.0"
           id="g1147"
           style="stroke-width:0">
          <g
             gorn="0.3.0.0.0.15.0.0.0"
             id="g1145"
             style="stroke-width:0" />
        </g>
      </g>
    </g>
  </g>
  <g
     style="stroke-width:0"
     transform="matrix(-1,0,0,1.77165,63.363046,54.252643)"
     id="g1163">
    <g
       id="g1161">
      <g
         id="g1159">
        <g
           gorn="0.3.0.0.0.16.0.0"
           id="g1157"
           style="stroke-width:0">
          <g
             gorn="0.3.0.0.0.16.0.0.0"
             id="g55"
             style="stroke-width:0" />
        </g>
      </g>
    </g>
  </g>
  <g
     style="stroke-width:0"
     transform="matrix(0,-1,-1.77165,0,63.119646,78.781843)"
     id="g1172">
    <g
       id="g1170">
      <g
         id="g1168">
        <g
           gorn="0.3.0.0.0.17.0.0"
           id="g62"
           style="stroke-width:0">
          <g
             gorn="0.3.0.0.0.17.0.0.0"
             id="g60"
             style="stroke-width:0" />
        </g>
      </g>
    </g>
  </g>
  <g
     style="stroke-width:0"
     transform="matrix(-1,0,0,1.77165,63.363046,63.810143)"
     id="g1183">
    <g
       id="g1181">
      <g
         id="g1179">
        <g
           gorn="0.3.0.0.0.18.0.0"
           id="g1177"
           style="stroke-width:0">
          <g
             gorn="0.3.0.0.0.18.0.0.0"
             id="g1175"
             style="stroke-width:0" />
        </g>
      </g>
    </g>
  </g>
  <g
     style="stroke-width:0"
     transform="matrix(0,-1,-1.77165,0,65.387346,80.199143)"
     id="g1192">
    <g
       id="g1190">
      <g
         id="g1188">
        <g
           gorn="0.3.0.0.0.19.0.0"
           id="g72"
           style="stroke-width:0">
          <g
             gorn="0.3.0.0.0.19.0.0.0"
             id="g70"
             style="stroke-width:0" />
        </g>
      </g>
    </g>
  </g>
  <g
     style="stroke-width:0"
     transform="matrix(-1,0,0,1.77165,63.363046,73.367543)"
     id="g1201">
    <g
       id="g1199">
      <g
         id="g1197">
        <g
           gorn="0.3.0.0.0.20.0.0"
           id="g77"
           style="stroke-width:0">
          <g
             gorn="0.3.0.0.0.20.0.0.0"
             id="g75"
             style="stroke-width:0" />
        </g>
      </g>
    </g>
  </g>
  <g
     style="stroke-width:0"
     transform="matrix(0,-1,-1.77165,0,67.655046,81.61644)"
     id="g1210">
    <g
       id="g1208">
      <g
         id="g1206">
        <g
           gorn="0.3.0.0.0.21.0.0"
           id="g82"
           style="stroke-width:0">
          <g
             gorn="0.3.0.0.0.21.0.0.0"
             id="g80"
             style="stroke-width:0" />
        </g>
      </g>
    </g>
  </g>
  <g
     style="stroke-width:0"
     transform="matrix(0,1,1.77165,0,35.787546,76.510143)"
     id="g1221">
    <g
       id="g1219">
      <g
         id="g1217">
        <g
           gorn="0.3.0.0.0.22.0.0"
           id="g1215"
           style="stroke-width:0">
          <g
             gorn="0.3.0.0.0.22.0.0.0"
             id="g1213"
             style="stroke-width:0" />
        </g>
      </g>
    </g>
  </g>
  <g
     style="stroke-width:0"
     transform="matrix(0,-1,-1.77165,0,69.922746,83.03384)"
     id="g1230">
    <g
       id="g1228">
      <g
         id="g1226">
        <g
           gorn="0.3.0.0.0.23.0.0"
           id="g92"
           style="stroke-width:0">
          <g
             gorn="0.3.0.0.0.23.0.0.0"
             id="g90"
             style="stroke-width:0" />
        </g>
      </g>
    </g>
  </g>
  <g
     style="stroke-width:0"
     transform="matrix(0,1,1.77165,0,31.252146,79.344743)"
     id="g1239">
    <g
       id="g1237">
      <g
         id="g1235">
        <g
           gorn="0.3.0.0.0.24.0.0"
           id="g97"
           style="stroke-width:0">
          <g
             gorn="0.3.0.0.0.24.0.0.0"
             id="g95"
             style="stroke-width:0" />
        </g>
      </g>
    </g>
  </g>
  <g
     style="stroke-width:0"
     transform="matrix(0,-1,-1.77165,0,72.190446,84.45114)"
     id="g1248">
    <g
       id="g1246">
      <g
         id="g1244">
        <g
           gorn="0.3.0.0.0.25.0.0"
           id="g102"
           style="stroke-width:0">
          <g
             gorn="0.3.0.0.0.25.0.0.0"
             id="g100"
             style="stroke-width:0" />
        </g>
      </g>
    </g>
  </g>
  <g
     style="stroke-width:0"
     transform="matrix(0,1,1.77165,0,26.716696,82.17944)"
     id="g1259">
    <g
       id="g1257">
      <g
         id="g1255">
        <g
           gorn="0.3.0.0.0.26.0.0"
           id="g1253"
           style="stroke-width:0">
          <g
             gorn="0.3.0.0.0.26.0.0.0"
             id="g1251"
             style="stroke-width:0" />
        </g>
      </g>
    </g>
  </g>
  <g
     style="stroke-width:0"
     transform="matrix(0,-1,-1.77165,0,74.458246,85.86844)"
     id="g1268">
    <g
       id="g1266">
      <g
         id="g1264">
        <g
           gorn="0.3.0.0.0.27.0.0"
           id="g112"
           style="stroke-width:0">
          <g
             gorn="0.3.0.0.0.27.0.0.0"
             id="g110"
             style="stroke-width:0" />
        </g>
      </g>
    </g>
  </g>
  <g
     style="stroke-width:0"
     transform="matrix(0,1,1.77165,0,22.181266,85.01407)"
     id="g1279">
    <g
       id="g1277">
      <g
         id="g1275">
        <g
           gorn="0.3.0.0.0.28.0.0"
           id="g1273"
           style="stroke-width:0">
          <g
             gorn="0.3.0.0.0.28.0.0.0"
             id="g1271"
             style="stroke-width:0" />
        </g>
      </g>
    </g>
  </g>
  <g
     style="stroke-width:0"
     transform="matrix(0,-1,-1.77165,0,76.725946,87.28574)"
     id="g1288">
    <g
       id="g1286">
      <g
         id="g1284">
        <g
           gorn="0.3.0.0.0.29.0.0"
           id="g122"
           style="stroke-width:0">
          <g
             gorn="0.3.0.0.0.29.0.0.0"
             id="g120"
             style="stroke-width:0" />
        </g>
      </g>
    </g>
  </g>
  <g
     style="stroke-width:0"
     transform="matrix(-1,0,0,1.77165,63.363046,44.695043)"
     id="g1298">
    <g
       id="g1296">
      <g
         id="g1294">
        <g
           gorn="0.3.0.0.0.30.0.0"
           id="g1292"
           style="stroke-width:0">
          <g
             gorn="0.3.0.0.0.30.0.0.0"
             id="g125"
             style="stroke-width:0" />
        </g>
      </g>
    </g>
  </g>
  <g
     gorn="0.3.0.0.14"
     id="g1464"
     transform="matrix(0,-1,-1,0,27.324356,55.179953)" />
  <g
     id="g3783"
     transform="rotate(90,5.1235962,58.697649)">
    <g
       id="g3781">
      <!-- 120 -->
    </g>
  </g>
  <g
     id="g3808"
     transform="rotate(90,25.823597,7.3976499)">
    <g
       id="g3806">
      <!-- 120 -->
    </g>
  </g>
  <path
     sodipodi:type="inkscape:offset"
     inkscape:radius="0.25433642"
     inkscape:original="M -69.128906 64.966797 C -70.102865 64.966797 -70.933594 65.307942 -71.621094 65.990234 C -72.308594 66.667318 -72.652344 67.485026 -72.652344 68.443359 L -72.652344 73.294922 C -72.652344 74.253255 -72.308594 75.073567 -71.621094 75.755859 C -70.938802 76.432943 -70.108073 76.771484 -69.128906 76.771484 C -68.154948 76.771484 -67.324218 76.432943 -66.636719 75.755859 C -65.949219 75.073567 -65.605469 74.253255 -65.605469 73.294922 L -65.605469 70.248047 L -68.628906 70.248047 L -69.175781 71.498047 L -66.855469 71.498047 L -66.855469 73.318359 C -66.855469 73.953776 -67.079427 74.485026 -67.527344 74.912109 C -67.996094 75.354818 -68.529948 75.576172 -69.128906 75.576172 C -69.759115 75.576172 -70.295573 75.354818 -70.738281 74.912109 C -71.180989 74.469401 -71.402344 73.938151 -71.402344 73.318359 L -71.402344 68.419922 C -71.402344 67.794922 -71.180989 67.263672 -70.738281 66.826172 C -70.295573 66.383464 -69.759115 66.162109 -69.128906 66.162109 C -68.509115 66.162109 -67.97526 66.383464 -67.527344 66.826172 C -67.079427 67.26888 -66.855469 67.80013 -66.855469 68.419922 L -66.855469 69.083984 L -65.605469 68.513672 L -65.605469 68.443359 C -65.605469 67.495442 -65.949219 66.677734 -66.636719 65.990234 C -67.313802 65.307942 -68.144532 64.966797 -69.128906 64.966797 z M -79.824219 68.021484 L -81.074219 68.568359 L -81.074219 79.818359 L -79.824219 79.271484 L -79.824219 76.240234 C -79.329428 76.594401 -78.761719 76.771484 -78.121094 76.771484 C -77.308594 76.771484 -76.615885 76.485026 -76.042969 75.912109 C -75.470052 75.339193 -75.183594 74.646484 -75.183594 73.833984 L -75.183594 68.021484 L -76.433594 68.568359 L -76.433594 73.810547 L -76.433594 73.833984 C -76.433594 74.292317 -76.597656 74.685547 -76.925781 75.013672 C -77.253906 75.341797 -77.636719 75.505859 -78.074219 75.505859 C -78.574219 75.505859 -78.990886 75.341797 -79.324219 75.013672 C -79.647134 74.695964 -79.813801 74.294922 -79.824219 73.810547 L -79.824219 68.021484 z M -60.121094 68.021484 C -60.933594 68.021484 -61.605468 68.302734 -62.136719 68.865234 C -62.761718 69.531901 -63.074219 70.229818 -63.074219 70.958984 L -63.074219 71.646484 L -61.824219 71.091797 L -61.824219 70.982422 C -61.813799 70.498047 -61.647135 70.097005 -61.324219 69.779297 C -60.990885 69.451172 -60.605468 69.287109 -60.167969 69.287109 C -59.667968 69.287109 -59.253906 69.45638 -58.925781 69.794922 C -58.597656 70.128255 -58.433594 70.542318 -58.433594 71.037109 L -61.613281 72.341797 C -62.608073 72.748046 -63.105469 73.438151 -63.105469 74.412109 L -63.105469 74.474609 C -63.105469 75.016276 -62.902344 75.495443 -62.496094 75.912109 C -61.891927 76.485026 -61.199218 76.771484 -60.417969 76.771484 C -59.923177 76.771484 -59.472657 76.664714 -59.066406 76.451172 L -59.535156 75.271484 C -59.790365 75.427735 -60.084636 75.505859 -60.417969 75.505859 C -60.964843 75.505859 -61.36328 75.339193 -61.613281 75.005859 C -61.748697 74.823567 -61.816406 74.646484 -61.816406 74.474609 C -61.816406 74.047526 -61.545573 73.706381 -61.003906 73.451172 L -58.433594 72.404297 L -58.433594 76.771484 L -57.183594 76.224609 L -57.183594 70.958984 C -57.183594 70.146484 -57.470052 69.453776 -58.042969 68.880859 C -58.615885 68.307943 -59.308594 68.021484 -60.121094 68.021484 z M -52.628906 68.021484 C -53.217448 68.021484 -53.720052 68.229818 -54.136719 68.646484 C -54.553386 69.063151 -54.761719 69.56315 -54.761719 70.146484 L -54.761719 76.771484 L -53.511719 76.224609 L -53.503906 70.185547 C -53.503906 69.925131 -53.415366 69.703777 -53.238281 69.521484 C -53.061198 69.339193 -52.852864 69.248047 -52.613281 69.248047 C -52.378906 69.248047 -52.175782 69.339197 -52.003906 69.521484 C -51.832032 69.703777 -51.746094 69.925131 -51.746094 70.185547 L -51.753906 76.771484 L -50.503906 76.224609 L -50.496094 70.185547 L -50.496094 70.177734 C -50.496094 69.927734 -50.407554 69.708985 -50.230469 69.521484 C -50.058594 69.339193 -49.850261 69.248047 -49.605469 69.248047 C -49.371094 69.248047 -49.167968 69.339197 -48.996094 69.521484 C -48.824218 69.703777 -48.738281 69.925131 -48.738281 70.185547 L -48.746094 76.771484 L -47.496094 76.224609 L -47.496094 70.154297 C -47.501294 69.55013 -47.701824 69.042318 -48.097656 68.630859 C -48.488282 68.22461 -48.996094 68.021484 -49.621094 68.021484 C -50.204427 68.021484 -50.704426 68.22461 -51.121094 68.630859 C -51.516926 68.22461 -52.019531 68.021484 -52.628906 68.021484 z M -42.136719 68.021484 C -42.949219 68.021484 -43.641927 68.307943 -44.214844 68.880859 C -44.787761 69.453776 -45.074219 70.146484 -45.074219 70.958984 L -45.074219 73.833984 C -45.074219 74.646484 -44.787761 75.339193 -44.214844 75.912109 C -43.641927 76.485026 -42.949219 76.771484 -42.136719 76.771484 C -41.32422 76.771484 -40.652344 76.490235 -40.121094 75.927734 C -39.496094 75.261068 -39.183594 74.563151 -39.183594 73.833984 L -39.183594 73.146484 L -40.433594 73.701172 L -40.433594 73.810547 C -40.444014 74.294922 -40.610677 74.695964 -40.933594 75.013672 C -41.266927 75.341797 -41.652344 75.505859 -42.089844 75.505859 C -42.589844 75.505859 -43.003906 75.339193 -43.332031 75.005859 C -43.660156 74.667317 -43.824219 74.250651 -43.824219 73.755859 L -39.183594 71.693359 L -39.183594 70.958984 C -39.183594 70.115235 -39.472656 69.422527 -40.050781 68.880859 C -40.660156 68.307943 -41.355469 68.021484 -42.136719 68.021484 z M -42.183594 69.287109 C -41.683593 69.287109 -41.266927 69.451172 -40.933594 69.779297 C -40.631514 70.076171 -40.467451 70.443359 -40.441406 70.880859 L -43.824219 72.388672 L -43.824219 70.982422 L -43.824219 70.958984 C -43.824219 70.500651 -43.660156 70.107422 -43.332031 69.779297 C -43.003906 69.451172 -42.621093 69.287109 -42.183594 69.287109 z "
     style="font-style:normal;font-variant:normal;font-weight:normal;font-stretch:normal;font-size:12.00000572px;line-height:18.75000954px;font-family:NovaMono;-inkscape-font-specification:'NovaMono, Normal';font-variant-ligatures:normal;font-variant-caps:normal;font-variant-numeric:normal;font-feature-settings:normal;text-align:start;letter-spacing:0px;word-spacing:0px;writing-mode:lr-tb;text-anchor:start;fill:#000000;fill-opacity:1;stroke:none;stroke-width:0.84016883px;stroke-linecap:butt;stroke-linejoin:miter;stroke-opacity:1"
     id="path9202"
     d="m -69.128906,64.712891 c -1.032405,0 -1.940142,0.372416 -2.669922,1.095703 -0.730242,0.719178 -1.107422,1.615613 -1.107422,2.634765 v 4.851563 c 0,1.019152 0.37571,1.916394 1.105469,2.640625 0.725471,0.719933 1.634084,1.089844 2.671875,1.089844 1.032895,0 1.939642,-0.368674 2.669922,-1.087891 a 0.25436185,0.25436185 0 0 0 0.002,-0.002 c 0.729759,-0.724231 1.105469,-1.621473 1.105469,-2.640625 v -3.046875 a 0.25436185,0.25436185 0 0 0 -0.253907,-0.253906 h -3.023437 a 0.25436185,0.25436185 0 0 0 -0.232422,0.152343 l -0.546875,1.25 a 0.25436185,0.25436185 0 0 0 0.232422,0.355469 h 2.066406 v 1.566406 c 0,0.574644 -0.190921,1.025032 -0.591797,1.408203 -4.31e-4,4.07e-4 -0.0015,-4.06e-4 -0.002,0 -4.14e-4,3.95e-4 4.14e-4,0.0016 0,0.002 -0.428824,0.404178 -0.890383,0.59375 -1.425781,0.59375 -0.570654,0 -1.029648,-0.189804 -1.429688,-0.589844 -0.400744,-0.400745 -0.589843,-0.854827 -0.589844,-1.414063 v -4.898437 c 0,-0.564948 0.190205,-1.017172 0.589844,-1.41211 a 0.25436185,0.25436185 0 0 0 0,-0.002 c 0.40004,-0.400039 0.859034,-0.589843 1.429688,-0.589843 0.559234,0 1.015673,0.190318 1.421875,0.591796 0.405711,0.400994 0.597656,0.853586 0.597656,1.41211 v 0.664062 A 0.25436185,0.25436185 0 0 0 -66.75,69.314453 l 1.25,-0.570312 a 0.25436185,0.25436185 0 0 0 0.148438,-0.230469 v -0.07031 c 0,-1.009405 -0.376642,-1.903985 -1.105469,-2.632812 -0.720492,-0.726035 -1.628739,-1.097656 -2.671875,-1.097656 z m -10.703125,3.054687 a 0.25436185,0.25436185 0 0 0 -0.09375,0.02148 l -1.25,0.546876 a 0.25436185,0.25436185 0 0 0 -0.152344,0.232421 v 11.25 a 0.25436185,0.25436185 0 0 0 0.355469,0.232422 l 1.25,-0.546875 a 0.25436185,0.25436185 0 0 0 0.152344,-0.232422 v -2.623046 c 0.443379,0.22758 0.920923,0.376953 1.449218,0.376953 0.87228,0 1.642388,-0.318169 2.257813,-0.933594 0.615425,-0.615425 0.933594,-1.385533 0.933593,-2.257813 v -5.8125 a 0.25436185,0.25436185 0 0 0 -0.355468,-0.232422 l -1.25,0.546876 a 0.25436185,0.25436185 0 0 0 -0.152344,0.232421 v 5.242188 0.02344 c 0,0.39764 -0.131712,0.713744 -0.417969,1 -0.288159,0.28816 -0.594834,0.417969 -0.96875,0.417969 -0.444364,0 -0.78424,-0.136397 -1.072265,-0.419922 -0.276458,-0.271999 -0.41339,-0.595532 -0.423828,-1.021484 v -0.0059 -5.783204 a 0.25436185,0.25436185 0 0 0 -0.261719,-0.253906 z m 19.710937,0 c -0.871193,0 -1.625479,0.314273 -2.201172,0.923828 -0.656642,0.700421 -1.005859,1.465745 -1.005859,2.267578 v 0.6875 a 0.25436185,0.25436185 0 0 0 0.357422,0.232422 l 1.25,-0.554687 a 0.25436185,0.25436185 0 0 0 0.150391,-0.232422 v -0.103516 -0.0059 c 0.01044,-0.425953 0.14737,-0.749485 0.423828,-1.021484 0.293689,-0.289101 0.604601,-0.419922 0.978515,-0.419922 0.442599,0 0.775402,0.139458 1.058594,0.43164 a 0.25436185,0.25436185 0 0 0 0.002,0 c 0.2458,0.249701 0.36091,0.549532 0.392578,0.90625 l -2.99414,1.228516 v -0.002 c -1.060652,0.433144 -1.650391,1.24609 -1.650391,2.30664 v 0.0625 c 0,0.605251 0.236933,1.159125 0.681641,1.615235 a 0.25436185,0.25436185 0 0 0 0.0059,0.0059 c 0.643885,0.610581 1.410486,0.929688 2.253906,0.929688 0.531381,0 1.02681,-0.116281 1.470703,-0.34961 a 0.25436185,0.25436185 0 0 0 0.117188,-0.318359 l -0.46875,-1.179688 a 0.25436185,0.25436185 0 0 0 -0.369141,-0.123046 c -0.213153,0.130502 -0.456406,0.197265 -0.75,0.197265 -0.494411,0 -0.793627,-0.137134 -0.990234,-0.398437 -0.112599,-0.151577 -0.154297,-0.273828 -0.154297,-0.378907 0,-0.319155 0.175255,-0.561341 0.666016,-0.792968 h 0.002 l 2.207031,-0.898438 v 3.988281 a 0.25436185,0.25436185 0 0 0 0.355469,0.232422 l 1.25,-0.546875 a 0.25436185,0.25436185 0 0 0 0.152343,-0.232422 v -5.265625 c 0,-0.872279 -0.318168,-1.642387 -0.933593,-2.257812 -0.615425,-0.615425 -1.385533,-0.933594 -2.257813,-0.933594 z m 7.492188,0 c -0.648563,0 -1.228495,0.240215 -1.6875,0.699219 -0.45863,0.45863 -0.699219,1.035797 -0.699219,1.679687 v 6.625 a 0.25436185,0.25436185 0 0 0 0.355469,0.232422 l 1.25,-0.546875 a 0.25436185,0.25436185 0 0 0 0.152344,-0.232422 l 0.0078,-6.039062 c 0,-0.202767 0.05845,-0.347453 0.193359,-0.486328 0.137139,-0.141172 0.268283,-0.197266 0.44336,-0.197266 0.168433,0 0.291535,0.05305 0.423828,0.193359 C -52.059048,69.833622 -52,69.981085 -52,70.185547 l -0.0078,6.585937 a 0.25436185,0.25436185 0 0 0 0.355468,0.232422 l 1.25,-0.546875 A 0.25436185,0.25436185 0 0 0 -50.25,76.224609 l 0.0078,-6.039062 v -0.0078 c 0,-0.189949 0.05893,-0.335944 0.197266,-0.482422 0.13053,-0.13844 0.257794,-0.193359 0.439453,-0.193359 0.168433,0 0.291539,0.05306 0.423828,0.193359 0.130406,0.13831 0.189454,0.285773 0.189453,0.490235 L -49,76.771484 a 0.25436185,0.25436185 0 0 0 0.355469,0.232422 l 1.25,-0.546875 a 0.25436185,0.25436185 0 0 0 0.152343,-0.232422 v -6.070312 a 0.25436185,0.25436185 0 0 0 0,-0.002 c -0.0057,-0.659213 -0.233311,-1.241388 -0.671874,-1.697266 -0.437599,-0.4551 -1.026925,-0.6875 -1.707032,-0.6875 -0.567923,0 -1.070716,0.210761 -1.5,0.5625 -0.417606,-0.352346 -0.921566,-0.5625 -1.507812,-0.5625 z m 10.492187,0 c -0.87228,0 -1.642387,0.31817 -2.257812,0.933594 -0.615426,0.615425 -0.933594,1.385533 -0.933594,2.257812 v 2.875 c 0,0.87228 0.318168,1.642388 0.933594,2.257813 0.615425,0.615425 1.385532,0.933594 2.257812,0.933594 0.871192,0 1.62548,-0.314271 2.201172,-0.923829 0.656644,-0.700419 1.005859,-1.465743 1.005859,-2.267578 v -0.6875 a 0.25436185,0.25436185 0 0 0 -0.357421,-0.232422 l -1.25,0.554688 a 0.25436185,0.25436185 0 0 0 -0.150391,0.232422 v 0.109375 c -0.01044,0.425954 -0.14737,0.749485 -0.423828,1.021484 -0.293689,0.2891 -0.6046,0.419922 -0.978516,0.419922 -0.442849,0 -0.776031,-0.137358 -1.058594,-0.423828 -0.247737,-0.255602 -0.363514,-0.558345 -0.394531,-0.917969 l 4.462891,-1.984375 a 0.25436185,0.25436185 0 0 0 0.15039,-0.232422 v -0.734375 c 0,-0.901838 -0.321058,-1.676953 -0.947265,-2.263672 -0.648894,-0.61007 -1.416344,-0.927734 -2.259766,-0.927734 z m -0.04687,1.773438 c 0.444365,0 0.78424,0.136396 1.072266,0.419922 0.218797,0.215026 0.329774,0.471596 0.378906,0.771484 l -2.83789,1.263672 v -1.013672 -0.02344 c 0,-0.397638 0.131711,-0.713743 0.417968,-1 0.28816,-0.28816 0.594836,-0.417968 0.96875,-0.417968 z"
     transform="matrix(0.89267817,0,0,0.89267817,72.599534,-57.767785)" />
  <g
     id="g9283"
     transform="matrix(1.2507915,0,0,1.2505463,-19.331544,-28.565352)"
     style="stroke-width:0.79957217">
    <rect
       y="25.589359"
       rx="1.390101"
       ry="1.3981558"
       x="-79.66729"
       id="rect9235"
       width="29.192148"
       style="opacity:1;fill:none;fill-opacity:1;stroke:#000000;stroke-width:1.13324976;stroke-linecap:round;stroke-linejoin:round;stroke-miterlimit:4;stroke-dasharray:none;stroke-dashoffset:0;stroke-opacity:1;paint-order:markers stroke fill"
       height="34.953896"
       transform="scale(-1,1)" />
    <rect
       transform="scale(-1,1)"
       height="18.306147"
       style="opacity:1;fill:#000000;fill-opacity:1;stroke:none;stroke-width:1.13324976;stroke-linecap:round;stroke-linejoin:round;stroke-miterlimit:4;stroke-dasharray:none;stroke-dashoffset:0;stroke-opacity:1;paint-order:markers stroke fill"
       width="23.452415"
       id="rect9237"
       x="-76.694"
       ry="1.2921705"
       rx="1.2921705"
       y="27.928722" />
    <rect
       y="51.628048"
       rx="0.70866179"
       ry="0.70866179"
       x="-55.649155"
       id="rect9239"
       width="3.5433087"
       style="opacity:1;fill:#000000;fill-opacity:1;stroke:none;stroke-width:1.13324976;stroke-linecap:round;stroke-linejoin:round;stroke-miterlimit:4;stroke-dasharray:none;stroke-dashoffset:0;stroke-opacity:1;paint-order:markers stroke fill"
       height="3.5433087"
       transform="scale(-1,1)" />
    <rect
       transform="scale(-1,1)"
       height="3.5433087"
       style="opacity:1;fill:#000000;fill-opacity:1;stroke:none;stroke-width:1.13324976;stroke-linecap:round;stroke-linejoin:round;stroke-miterlimit:4;stroke-dasharray:none;stroke-dashoffset:0;stroke-opacity:1;paint-order:markers stroke fill"
       width="3.5433087"
       id="rect9249"
       x="-59.192463"
       ry="0.70866179"
       rx="0.70866179"
       y="55.171352" />
    <rect
       y="51.628048"
       rx="0.70866179"
       ry="0.70866179"
       x="-62.735771"
       id="rect9259"
       width="3.5433087"
       style="opacity:1;fill:#000000;fill-opacity:1;stroke:none;stroke-width:1.13324976;stroke-linecap:round;stroke-linejoin:round;stroke-miterlimit:4;stroke-dasharray:none;stroke-dashoffset:0;stroke-opacity:1;paint-order:markers stroke fill"
       height="3.5433087"
       transform="scale(-1,1)" />
    <rect
       transform="scale(-1,1)"
       height="3.5433087"
       style="opacity:1;fill:#000000;fill-opacity:1;stroke:none;stroke-width:1.13324976;stroke-linecap:round;stroke-linejoin:round;stroke-miterlimit:4;stroke-dasharray:none;stroke-dashoffset:0;stroke-opacity:1;paint-order:markers stroke fill"
       width="3.5433087"
       id="rect9261"
       x="-59.192463"
       ry="0.70866179"
       rx="0.70866179"
       y="48.08474" />
    <rect
       y="48.08474"
       rx="0.70866179"
       ry="0.70866179"
       x="-77.829742"
       id="rect9263"
       width="3.5433087"
       style="opacity:1;fill:#000000;fill-opacity:1;stroke:none;stroke-width:1.13324976;stroke-linecap:round;stroke-linejoin:round;stroke-miterlimit:4;stroke-dasharray:none;stroke-dashoffset:0;stroke-opacity:1;paint-order:markers stroke fill"
       height="3.5433087"
       transform="scale(-1,1)" />
    <rect
       transform="scale(-1,1)"
       height="3.5433087"
       style="opacity:1;fill:#000000;fill-opacity:1;stroke:none;stroke-width:1.13324976;stroke-linecap:round;stroke-linejoin:round;stroke-miterlimit:4;stroke-dasharray:none;stroke-dashoffset:0;stroke-opacity:1;paint-order:markers stroke fill"
       width="3.5433087"
       id="rect9273"
       x="-75.660995"
       ry="0.70866179"
       rx="0.70866179"
       y="54.126293" />
  </g>
</svg>
