<?xml version='1.0' encoding='UTF-8' standalone='no'?>
<!-- Created with Fritzing (http://www.fritzing.org/) -->
<svg xmlns="http://www.w3.org/2000/svg" version="1.2" y="0in" width="0.3in" viewBox="0 0 300 400"  x="0in" baseProfile="tiny" height="0.4in">
    <desc>
        <referenceFile>sparkfun-poweric_sot23-5_breadboard.svg</referenceFile>
    </desc>
    <desc >Fritzing breadboard generated by brd2svg</desc>
    <g  id="breadboard" gorn="0.1">
        <g  id="icon" gorn="0.1.0">
            <path stroke="none" stroke-width="0"  fill="#1F7A34" d="M0,0L0,170A30,30 0 0 1 0,230L0,400L300,400L300,0L0,0z"/>
            <g transform="translate(90,125.193)" >
                <g >
                    <g transform="matrix(0.5, 0, 0, 0.5, 30, 37.4035)" >
                        <g >
                            <rect stroke="none" stroke-linecap="round" stroke-width="0" y="102.37" width="21.6535" connectorname="1"  x="11.7717" fill="#8c8c8c" height="47.244"/>
                            <rect stroke="none" stroke-linecap="round" stroke-width="0" y="102.37" width="21.6535" connectorname="2"  x="49.1732" fill="#8c8c8c" height="47.244"/>
                            <rect stroke="none" stroke-linecap="round" stroke-width="0" y="102.37" width="21.6535" connectorname="3"  x="86.5748" fill="#8c8c8c" height="47.244"/>
                            <rect stroke="none" stroke-linecap="round" stroke-width="0" y="0" width="21.6535" connectorname="4"  x="86.5748" fill="#8c8c8c" height="47.244"/>
                            <rect stroke="none" stroke-linecap="round" stroke-width="0" y="0" width="21.6535" connectorname="5"  x="11.7717" fill="#8c8c8c" height="47.244"/>
                            <rect stroke="none" stroke-width="0" y="46.4016" width="120"  x="0" fill="#303030" height="56.811"/>
                            <polygon points="0,46.4016 120,46.4016 110,56.4016 10,56.4016"  fill="#1f1f1f"/>
                            <polygon points="0,103.213 120,103.213 110,93.2126 10,93.2126"  fill="#1f1f1f"/>
                            <polygon points="0,46.4016 0,103.213 10,93.2126 10,56.4016"  fill="#000000"/>
                            <polygon points="120,46.4016 120,103.213 110,93.2126 110,56.4016"  fill="#3d3d3d"/>
                            <circle stroke="none" stroke-width="0" r="10" cx="30"  fill="#1f1f1f" cy="73.2126"/>
                        </g>
                    </g>
                </g>
            </g>
            <text font-family="OCRA" stroke="none" stroke-width="0" y="224.375" text-anchor="start" font-size="65"  x="50" fill="white" id="label" gorn="0.1.0.2">SOT23-5</text>
            <g transform="translate(63.5,326.05)" >
                <g >
                    <g transform="rotate(-90)" >
                        <g >
                            <text font-family="OCRA" stroke="none" stroke-width="0" y="0" text-anchor="start" font-size="45"  x="0" fill="white">1</text>
                        </g>
                    </g>
                </g>
            </g>
            <g transform="translate(163.5,326.05)" >
                <g >
                    <g transform="rotate(-90)" >
                        <g >
                            <text font-family="OCRA" stroke="none" stroke-width="0" y="0" text-anchor="start" font-size="45"  x="0" fill="white">2</text>
                        </g>
                    </g>
                </g>
            </g>
            <g transform="translate(163.5,73.95)" >
                <g >
                    <g transform="rotate(-90)" >
                        <g >
                            <text font-family="OCRA" stroke="none" stroke-width="0" y="0" text-anchor="end" font-size="45"  x="0" fill="white">5</text>
                        </g>
                    </g>
                </g>
            </g>
            <g transform="translate(263.5,326.05)" >
                <g >
                    <g transform="rotate(-90)" >
                        <g >
                            <text font-family="OCRA" stroke="none" stroke-width="0" y="0" text-anchor="start" font-size="45"  x="0" fill="white">3</text>
                        </g>
                    </g>
                </g>
            </g>
            <g transform="translate(263.5,73.95)" >
                <g >
                    <g transform="rotate(-90)" >
                        <g >
                            <text font-family="OCRA" stroke="none" stroke-width="0" y="0" text-anchor="end" font-size="45"  x="0" fill="white">4</text>
                        </g>
                    </g>
                </g>
            </g>
        </g>
        <g transform="translate(34.035,334.05)" >
            <g >
                <rect y="0" width="31.93"  x="0" fill="#8D8C8C" id="connector0pin" height="31.9" gorn="0.1.1.0.0"/>
                <rect y="7.73544" width="16.4442"  x="7.79153" fill="#8C8663" height="16.4152"/>
                <polygon points="0,31.9,7.79153,24.1368,7.79153,6.97162,0,0"  fill="#B8AF82"/>
                <polygon points="24.2079,7.76321,7.90264,7.76321,0,0,31.93,0"  fill="#80795B"/>
                <polygon points="24.2079,24.1368,24.2079,7.76321,31.93,0,31.93,31.9"  fill="#5E5B43"/>
                <polygon points="0,31.9,7.87486,24.1368,24.2079,24.1368,31.93,31.9"  fill="#9A916C"/>
            </g>
        </g>
        <g transform="translate(134.035,334.05)" >
            <g >
                <rect y="0" width="31.93"  x="0" fill="#8D8C8C" id="connector1pin" height="31.9" gorn="0.1.2.0.0"/>
                <rect y="7.73544" width="16.4442"  x="7.79153" fill="#8C8663" height="16.4152"/>
                <polygon points="0,31.9,7.79153,24.1368,7.79153,6.97162,0,0"  fill="#B8AF82"/>
                <polygon points="24.2079,7.76321,7.90264,7.76321,0,0,31.93,0"  fill="#80795B"/>
                <polygon points="24.2079,24.1368,24.2079,7.76321,31.93,0,31.93,31.9"  fill="#5E5B43"/>
                <polygon points="0,31.9,7.87486,24.1368,24.2079,24.1368,31.93,31.9"  fill="#9A916C"/>
            </g>
        </g>
        <g transform="translate(134.035,34.05)" >
            <g >
                <rect y="0" width="31.93"  x="0" fill="#8D8C8C" id="connector4pin" height="31.9" gorn="0.1.3.0.0"/>
                <rect y="7.73544" width="16.4442"  x="7.79153" fill="#8C8663" height="16.4152"/>
                <polygon points="0,31.9,7.79153,24.1368,7.79153,6.97162,0,0"  fill="#B8AF82"/>
                <polygon points="24.2079,7.76321,7.90264,7.76321,0,0,31.93,0"  fill="#80795B"/>
                <polygon points="24.2079,24.1368,24.2079,7.76321,31.93,0,31.93,31.9"  fill="#5E5B43"/>
                <polygon points="0,31.9,7.87486,24.1368,24.2079,24.1368,31.93,31.9"  fill="#9A916C"/>
            </g>
        </g>
        <g transform="translate(234.035,334.05)" >
            <g >
                <rect y="0" width="31.93"  x="0" fill="#8D8C8C" id="connector2pin" height="31.9" gorn="0.1.4.0.0"/>
                <rect y="7.73544" width="16.4442"  x="7.79153" fill="#8C8663" height="16.4152"/>
                <polygon points="0,31.9,7.79153,24.1368,7.79153,6.97162,0,0"  fill="#B8AF82"/>
                <polygon points="24.2079,7.76321,7.90264,7.76321,0,0,31.93,0"  fill="#80795B"/>
                <polygon points="24.2079,24.1368,24.2079,7.76321,31.93,0,31.93,31.9"  fill="#5E5B43"/>
                <polygon points="0,31.9,7.87486,24.1368,24.2079,24.1368,31.93,31.9"  fill="#9A916C"/>
            </g>
        </g>
        <g transform="translate(234.035,34.05)" >
            <g >
                <rect y="0" width="31.93"  x="0" fill="#8D8C8C" id="connector3pin" height="31.9" gorn="0.1.5.0.0"/>
                <rect y="7.73544" width="16.4442"  x="7.79153" fill="#8C8663" height="16.4152"/>
                <polygon points="0,31.9,7.79153,24.1368,7.79153,6.97162,0,0"  fill="#B8AF82"/>
                <polygon points="24.2079,7.76321,7.90264,7.76321,0,0,31.93,0"  fill="#80795B"/>
                <polygon points="24.2079,24.1368,24.2079,7.76321,31.93,0,31.93,31.9"  fill="#5E5B43"/>
                <polygon points="0,31.9,7.87486,24.1368,24.2079,24.1368,31.93,31.9"  fill="#9A916C"/>
            </g>
        </g>
    </g>
</svg>
