<?xml version='1.0' encoding='UTF-8' standalone='no'?>
<!-- Created with Fritzing (http://www.fritzing.org/) -->
<svg xmlns="http://www.w3.org/2000/svg" x="0in" version="1.2" viewBox="0 0 300 400" width="0.3in"  y="0in" baseProfile="tiny" height="0.4in">
    <desc >
        <referenceFile >sparkfun-analogic_sot23-6_breadboard.svg</referenceFile>
    </desc>
    <desc >Fritzing breadboard generated by brd2svg</desc>
    <g id="breadboard" gorn="0.2" >
        <g id="icon" gorn="0.2.0" >
            <path stroke-width="0" d="M0,0L0,170A30,30 0 0 1 0,230L0,400L300,400L300,0L0,0z" stroke="none"  fill="#1F7A34"/>
            <g  transform="translate(90,125.193)">
                <g >
                    <g >
                        <g  transform="matrix(0.5, 0, 0, 0.5, 30, 37.4035)">
                            <g >
                                <g >
                                    <rect stroke-width="0" x="11.7717" stroke="none" width="21.6535"  y="102.37" fill="#8c8c8c" stroke-linecap="round" connectorname="3" height="47.244"/>
                                    <rect stroke-width="0" x="49.1732" stroke="none" width="21.6535"  y="102.37" fill="#8c8c8c" stroke-linecap="round" connectorname="2" height="47.244"/>
                                    <rect stroke-width="0" x="86.5748" stroke="none" width="21.6535"  y="102.37" fill="#8c8c8c" stroke-linecap="round" connectorname="1" height="47.244"/>
                                    <rect stroke-width="0" x="86.5748" stroke="none" width="21.6535"  y="0" fill="#8c8c8c" stroke-linecap="round" connectorname="6" height="47.244"/>
                                    <rect stroke-width="0" x="11.7717" stroke="none" width="21.6535"  y="0" fill="#8c8c8c" stroke-linecap="round" connectorname="4" height="47.244"/>
                                    <rect stroke-width="0" x="49.1732" stroke="none" width="21.6535"  y="0" fill="#8c8c8c" stroke-linecap="round" connectorname="5" height="47.244"/>
                                    <rect stroke-width="0" x="0" stroke="none" width="120"  y="38.9016" fill="#303030" height="71.811"/>
                                    <polygon points="0,38.9016 120,38.9016 110,48.9016 10,48.9016"  fill="#1f1f1f"/>
                                    <polygon points="0,110.713 120,110.713 110,100.713 10,100.713"  fill="#1f1f1f"/>
                                    <polygon points="0,38.9016 0,110.713 10,100.713 10,48.9016"  fill="#000000"/>
                                    <polygon points="120,38.9016 120,110.713 110,100.713 110,48.9016"  fill="#3d3d3d"/>
                                    <circle stroke-width="0" cx="30" stroke="none" cy="80.7126" r="10"  fill="#1f1f1f"/>
                                </g>
                            </g>
                        </g>
                    </g>
                </g>
            </g>
            <text font-family="OCRA" stroke-width="0" x="50" stroke="none" id="label" gorn="0.2.0.2" font-size="65" text-anchor="start"  y="224.375" fill="white">SOT23-6</text>
            <g  transform="translate(63.5,326.05)">
                <g >
                    <g >
                        <g  transform="rotate(-90)">
                            <g >
                                <g >
                                    <text font-family="OCRA" stroke-width="0" x="0" stroke="none" font-size="45" text-anchor="start"  y="0" fill="white">1</text>
                                </g>
                            </g>
                        </g>
                    </g>
                </g>
            </g>
            <g  transform="translate(63.5,73.95)">
                <g >
                    <g >
                        <g  transform="rotate(-90)">
                            <g >
                                <g >
                                    <text font-family="OCRA" stroke-width="0" x="0" stroke="none" font-size="45" text-anchor="end"  y="0" fill="white">6</text>
                                </g>
                            </g>
                        </g>
                    </g>
                </g>
            </g>
            <g  transform="translate(163.5,326.05)">
                <g >
                    <g >
                        <g  transform="rotate(-90)">
                            <g >
                                <g >
                                    <text font-family="OCRA" stroke-width="0" x="0" stroke="none" font-size="45" text-anchor="start"  y="0" fill="white">2</text>
                                </g>
                            </g>
                        </g>
                    </g>
                </g>
            </g>
            <g  transform="translate(163.5,73.95)">
                <g >
                    <g >
                        <g  transform="rotate(-90)">
                            <g >
                                <g >
                                    <text font-family="OCRA" stroke-width="0" x="0" stroke="none" font-size="45" text-anchor="end"  y="0" fill="white">5</text>
                                </g>
                            </g>
                        </g>
                    </g>
                </g>
            </g>
            <g  transform="translate(263.5,326.05)">
                <g >
                    <g >
                        <g  transform="rotate(-90)">
                            <g >
                                <g >
                                    <text font-family="OCRA" stroke-width="0" x="0" stroke="none" font-size="45" text-anchor="start"  y="0" fill="white">3</text>
                                </g>
                            </g>
                        </g>
                    </g>
                </g>
            </g>
            <g  transform="translate(263.5,73.95)">
                <g >
                    <g >
                        <g  transform="rotate(-90)">
                            <g >
                                <g >
                                    <text font-family="OCRA" stroke-width="0" x="0" stroke="none" font-size="45" text-anchor="end"  y="0" fill="white">4</text>
                                </g>
                            </g>
                        </g>
                    </g>
                </g>
            </g>
        </g>
        <g  transform="translate(34.035,334.05)">
            <g >
                <g >
                    <rect x="0" id="connector0pin" gorn="0.2.1.0.0.0" width="31.93"  y="0" fill="#8D8C8C" height="31.9"/>
                    <rect x="7.79153" width="16.4442"  y="7.73544" fill="#8C8663" height="16.4152"/>
                    <polygon points="0,31.9,7.79153,24.1368,7.79153,6.97162,0,0"  fill="#B8AF82"/>
                    <polygon points="24.2079,7.76321,7.90264,7.76321,0,0,31.93,0"  fill="#80795B"/>
                    <polygon points="24.2079,24.1368,24.2079,7.76321,31.93,0,31.93,31.9"  fill="#5E5B43"/>
                    <polygon points="0,31.9,7.87486,24.1368,24.2079,24.1368,31.93,31.9"  fill="#9A916C"/>
                </g>
            </g>
        </g>
        <g  transform="translate(34.035,34.05)">
            <g >
                <g >
                    <rect x="0" id="connector5pin" gorn="0.2.2.0.0.0" width="31.93"  y="0" fill="#8D8C8C" height="31.9"/>
                    <rect x="7.79153" width="16.4442"  y="7.73544" fill="#8C8663" height="16.4152"/>
                    <polygon points="0,31.9,7.79153,24.1368,7.79153,6.97162,0,0"  fill="#B8AF82"/>
                    <polygon points="24.2079,7.76321,7.90264,7.76321,0,0,31.93,0"  fill="#80795B"/>
                    <polygon points="24.2079,24.1368,24.2079,7.76321,31.93,0,31.93,31.9"  fill="#5E5B43"/>
                    <polygon points="0,31.9,7.87486,24.1368,24.2079,24.1368,31.93,31.9"  fill="#9A916C"/>
                </g>
            </g>
        </g>
        <g  transform="translate(134.035,334.05)">
            <g >
                <g >
                    <rect x="0" id="connector1pin" gorn="0.2.3.0.0.0" width="31.93"  y="0" fill="#8D8C8C" height="31.9"/>
                    <rect x="7.79153" width="16.4442"  y="7.73544" fill="#8C8663" height="16.4152"/>
                    <polygon points="0,31.9,7.79153,24.1368,7.79153,6.97162,0,0"  fill="#B8AF82"/>
                    <polygon points="24.2079,7.76321,7.90264,7.76321,0,0,31.93,0"  fill="#80795B"/>
                    <polygon points="24.2079,24.1368,24.2079,7.76321,31.93,0,31.93,31.9"  fill="#5E5B43"/>
                    <polygon points="0,31.9,7.87486,24.1368,24.2079,24.1368,31.93,31.9"  fill="#9A916C"/>
                </g>
            </g>
        </g>
        <g  transform="translate(134.035,34.05)">
            <g >
                <g >
                    <rect x="0" id="connector4pin" gorn="0.2.4.0.0.0" width="31.93"  y="0" fill="#8D8C8C" height="31.9"/>
                    <rect x="7.79153" width="16.4442"  y="7.73544" fill="#8C8663" height="16.4152"/>
                    <polygon points="0,31.9,7.79153,24.1368,7.79153,6.97162,0,0"  fill="#B8AF82"/>
                    <polygon points="24.2079,7.76321,7.90264,7.76321,0,0,31.93,0"  fill="#80795B"/>
                    <polygon points="24.2079,24.1368,24.2079,7.76321,31.93,0,31.93,31.9"  fill="#5E5B43"/>
                    <polygon points="0,31.9,7.87486,24.1368,24.2079,24.1368,31.93,31.9"  fill="#9A916C"/>
                </g>
            </g>
        </g>
        <g  transform="translate(234.035,334.05)">
            <g >
                <g >
                    <rect x="0" id="connector2pin" gorn="0.2.5.0.0.0" width="31.93"  y="0" fill="#8D8C8C" height="31.9"/>
                    <rect x="7.79153" width="16.4442"  y="7.73544" fill="#8C8663" height="16.4152"/>
                    <polygon points="0,31.9,7.79153,24.1368,7.79153,6.97162,0,0"  fill="#B8AF82"/>
                    <polygon points="24.2079,7.76321,7.90264,7.76321,0,0,31.93,0"  fill="#80795B"/>
                    <polygon points="24.2079,24.1368,24.2079,7.76321,31.93,0,31.93,31.9"  fill="#5E5B43"/>
                    <polygon points="0,31.9,7.87486,24.1368,24.2079,24.1368,31.93,31.9"  fill="#9A916C"/>
                </g>
            </g>
        </g>
        <g  transform="translate(234.035,34.05)">
            <g >
                <g >
                    <rect x="0" id="connector3pin" gorn="0.2.6.0.0.0" width="31.93"  y="0" fill="#8D8C8C" height="31.9"/>
                    <rect x="7.79153" width="16.4442"  y="7.73544" fill="#8C8663" height="16.4152"/>
                    <polygon points="0,31.9,7.79153,24.1368,7.79153,6.97162,0,0"  fill="#B8AF82"/>
                    <polygon points="24.2079,7.76321,7.90264,7.76321,0,0,31.93,0"  fill="#80795B"/>
                    <polygon points="24.2079,24.1368,24.2079,7.76321,31.93,0,31.93,31.9"  fill="#5E5B43"/>
                    <polygon points="0,31.9,7.87486,24.1368,24.2079,24.1368,31.93,31.9"  fill="#9A916C"/>
                </g>
            </g>
        </g>
    </g>
</svg>
