<?xml version='1.0' encoding='UTF-8' standalone='no'?>
<!-- Created with Fritzing (http://www.fritzing.org/) -->
<svg xmlns="http://www.w3.org/2000/svg" version="1.2" width="0.3in" x="0in" viewBox="0 0 300 400"  height="0.4in" y="0in" baseProfile="tiny">
    <desc >
        <referenceFile >sparkfun-analogic_sot23-6_breadboard.svg</referenceFile>
    </desc>
    <desc >Fritzing breadboard generated by brd2svg</desc>
    <g gorn="0.2"  id="breadboard">
        <g gorn="0.2.0"  id="icon">
            <path stroke="none" stroke-width="0" d="M0,0L0,170A30,30 0 0 1 0,230L0,400L300,400L300,0L0,0z"  fill="#1F7A34"/>
            <g transform="translate(90,125.193)" >
                <g >
                    <g >
                        <g >
                            <g transform="matrix(0.5, 0, 0, 0.5, 30, 37.4035)" >
                                <g >
                                    <g >
                                        <g >
                                            <rect stroke="none" width="21.6535" x="11.7717" connectorname="3" stroke-width="0"  height="47.244" y="102.37" stroke-linecap="round" fill="#8c8c8c"/>
                                            <rect stroke="none" width="21.6535" x="49.1732" connectorname="2" stroke-width="0"  height="47.244" y="102.37" stroke-linecap="round" fill="#8c8c8c"/>
                                            <rect stroke="none" width="21.6535" x="86.5748" connectorname="1" stroke-width="0"  height="47.244" y="102.37" stroke-linecap="round" fill="#8c8c8c"/>
                                            <rect stroke="none" width="21.6535" x="86.5748" connectorname="6" stroke-width="0"  height="47.244" y="0" stroke-linecap="round" fill="#8c8c8c"/>
                                            <rect stroke="none" width="21.6535" x="11.7717" connectorname="4" stroke-width="0"  height="47.244" y="0" stroke-linecap="round" fill="#8c8c8c"/>
                                            <rect stroke="none" width="21.6535" x="49.1732" connectorname="5" stroke-width="0"  height="47.244" y="0" stroke-linecap="round" fill="#8c8c8c"/>
                                            <rect stroke="none" width="120" x="0" stroke-width="0"  height="71.811" y="38.9016" fill="#303030"/>
                                            <polygon  points="0,38.9016 120,38.9016 110,48.9016 10,48.9016" fill="#1f1f1f"/>
                                            <polygon  points="0,110.713 120,110.713 110,100.713 10,100.713" fill="#1f1f1f"/>
                                            <polygon  points="0,38.9016 0,110.713 10,100.713 10,48.9016" fill="#000000"/>
                                            <polygon  points="120,38.9016 120,110.713 110,100.713 110,48.9016" fill="#3d3d3d"/>
                                            <circle stroke="none" stroke-width="0"  cx="30" cy="80.7126" fill="#1f1f1f" r="10"/>
                                        </g>
                                    </g>
                                </g>
                            </g>
                        </g>
                    </g>
                </g>
            </g>
            <text stroke="none" x="50" stroke-width="0" font-family="OCRA" gorn="0.2.0.2"  id="label" y="224.375" text-anchor="start" fill="white" font-size="65">SOT23-6</text>
            <g transform="translate(63.5,326.05)" >
                <g >
                    <g >
                        <g >
                            <g transform="rotate(-90)" >
                                <g >
                                    <g >
                                        <g >
                                            <text stroke="none" x="0" stroke-width="0" font-family="OCRA"  y="0" text-anchor="start" fill="white" font-size="45">1</text>
                                        </g>
                                    </g>
                                </g>
                            </g>
                        </g>
                    </g>
                </g>
            </g>
            <g transform="translate(63.5,73.95)" >
                <g >
                    <g >
                        <g >
                            <g transform="rotate(-90)" >
                                <g >
                                    <g >
                                        <g >
                                            <text stroke="none" x="0" stroke-width="0" font-family="OCRA"  y="0" text-anchor="end" fill="white" font-size="45">6</text>
                                        </g>
                                    </g>
                                </g>
                            </g>
                        </g>
                    </g>
                </g>
            </g>
            <g transform="translate(163.5,326.05)" >
                <g >
                    <g >
                        <g >
                            <g transform="rotate(-90)" >
                                <g >
                                    <g >
                                        <g >
                                            <text stroke="none" x="0" stroke-width="0" font-family="OCRA"  y="0" text-anchor="start" fill="white" font-size="45">2</text>
                                        </g>
                                    </g>
                                </g>
                            </g>
                        </g>
                    </g>
                </g>
            </g>
            <g transform="translate(163.5,73.95)" >
                <g >
                    <g >
                        <g >
                            <g transform="rotate(-90)" >
                                <g >
                                    <g >
                                        <g >
                                            <text stroke="none" x="0" stroke-width="0" font-family="OCRA"  y="0" text-anchor="end" fill="white" font-size="45">5</text>
                                        </g>
                                    </g>
                                </g>
                            </g>
                        </g>
                    </g>
                </g>
            </g>
            <g transform="translate(263.5,326.05)" >
                <g >
                    <g >
                        <g >
                            <g transform="rotate(-90)" >
                                <g >
                                    <g >
                                        <g >
                                            <text stroke="none" x="0" stroke-width="0" font-family="OCRA"  y="0" text-anchor="start" fill="white" font-size="45">3</text>
                                        </g>
                                    </g>
                                </g>
                            </g>
                        </g>
                    </g>
                </g>
            </g>
            <g transform="translate(263.5,73.95)" >
                <g >
                    <g >
                        <g >
                            <g transform="rotate(-90)" >
                                <g >
                                    <g >
                                        <g >
                                            <text stroke="none" x="0" stroke-width="0" font-family="OCRA"  y="0" text-anchor="end" fill="white" font-size="45">4</text>
                                        </g>
                                    </g>
                                </g>
                            </g>
                        </g>
                    </g>
                </g>
            </g>
        </g>
        <g transform="translate(34.035,334.05)" >
            <g >
                <g >
                    <g >
                        <rect width="31.93" x="0" gorn="0.2.1.0.0.0.0"  height="31.9" id="connector0pin" y="0" fill="#8D8C8C"/>
                        <rect width="16.4442" x="7.79153"  height="16.4152" y="7.73544" fill="#8C8663"/>
                        <polygon  points="0,31.9,7.79153,24.1368,7.79153,6.97162,0,0" fill="#B8AF82"/>
                        <polygon  points="24.2079,7.76321,7.90264,7.76321,0,0,31.93,0" fill="#80795B"/>
                        <polygon  points="24.2079,24.1368,24.2079,7.76321,31.93,0,31.93,31.9" fill="#5E5B43"/>
                        <polygon  points="0,31.9,7.87486,24.1368,24.2079,24.1368,31.93,31.9" fill="#9A916C"/>
                    </g>
                </g>
            </g>
        </g>
        <g transform="translate(34.035,34.05)" >
            <g >
                <g >
                    <g >
                        <rect width="31.93" x="0" gorn="0.2.2.0.0.0.0"  height="31.9" id="connector5pin" y="0" fill="#8D8C8C"/>
                        <rect width="16.4442" x="7.79153"  height="16.4152" y="7.73544" fill="#8C8663"/>
                        <polygon  points="0,31.9,7.79153,24.1368,7.79153,6.97162,0,0" fill="#B8AF82"/>
                        <polygon  points="24.2079,7.76321,7.90264,7.76321,0,0,31.93,0" fill="#80795B"/>
                        <polygon  points="24.2079,24.1368,24.2079,7.76321,31.93,0,31.93,31.9" fill="#5E5B43"/>
                        <polygon  points="0,31.9,7.87486,24.1368,24.2079,24.1368,31.93,31.9" fill="#9A916C"/>
                    </g>
                </g>
            </g>
        </g>
        <g transform="translate(134.035,334.05)" >
            <g >
                <g >
                    <g >
                        <rect width="31.93" x="0" gorn="0.2.3.0.0.0.0"  height="31.9" id="connector1pin" y="0" fill="#8D8C8C"/>
                        <rect width="16.4442" x="7.79153"  height="16.4152" y="7.73544" fill="#8C8663"/>
                        <polygon  points="0,31.9,7.79153,24.1368,7.79153,6.97162,0,0" fill="#B8AF82"/>
                        <polygon  points="24.2079,7.76321,7.90264,7.76321,0,0,31.93,0" fill="#80795B"/>
                        <polygon  points="24.2079,24.1368,24.2079,7.76321,31.93,0,31.93,31.9" fill="#5E5B43"/>
                        <polygon  points="0,31.9,7.87486,24.1368,24.2079,24.1368,31.93,31.9" fill="#9A916C"/>
                    </g>
                </g>
            </g>
        </g>
        <g transform="translate(134.035,34.05)" >
            <g >
                <g >
                    <g >
                        <rect width="31.93" x="0" gorn="0.2.4.0.0.0.0"  height="31.9" id="connector4pin" y="0" fill="#8D8C8C"/>
                        <rect width="16.4442" x="7.79153"  height="16.4152" y="7.73544" fill="#8C8663"/>
                        <polygon  points="0,31.9,7.79153,24.1368,7.79153,6.97162,0,0" fill="#B8AF82"/>
                        <polygon  points="24.2079,7.76321,7.90264,7.76321,0,0,31.93,0" fill="#80795B"/>
                        <polygon  points="24.2079,24.1368,24.2079,7.76321,31.93,0,31.93,31.9" fill="#5E5B43"/>
                        <polygon  points="0,31.9,7.87486,24.1368,24.2079,24.1368,31.93,31.9" fill="#9A916C"/>
                    </g>
                </g>
            </g>
        </g>
        <g transform="translate(234.035,334.05)" >
            <g >
                <g >
                    <g >
                        <rect width="31.93" x="0" gorn="0.2.5.0.0.0.0"  height="31.9" id="connector2pin" y="0" fill="#8D8C8C"/>
                        <rect width="16.4442" x="7.79153"  height="16.4152" y="7.73544" fill="#8C8663"/>
                        <polygon  points="0,31.9,7.79153,24.1368,7.79153,6.97162,0,0" fill="#B8AF82"/>
                        <polygon  points="24.2079,7.76321,7.90264,7.76321,0,0,31.93,0" fill="#80795B"/>
                        <polygon  points="24.2079,24.1368,24.2079,7.76321,31.93,0,31.93,31.9" fill="#5E5B43"/>
                        <polygon  points="0,31.9,7.87486,24.1368,24.2079,24.1368,31.93,31.9" fill="#9A916C"/>
                    </g>
                </g>
            </g>
        </g>
        <g transform="translate(234.035,34.05)" >
            <g >
                <g >
                    <g >
                        <rect width="31.93" x="0" gorn="0.2.6.0.0.0.0"  height="31.9" id="connector3pin" y="0" fill="#8D8C8C"/>
                        <rect width="16.4442" x="7.79153"  height="16.4152" y="7.73544" fill="#8C8663"/>
                        <polygon  points="0,31.9,7.79153,24.1368,7.79153,6.97162,0,0" fill="#B8AF82"/>
                        <polygon  points="24.2079,7.76321,7.90264,7.76321,0,0,31.93,0" fill="#80795B"/>
                        <polygon  points="24.2079,24.1368,24.2079,7.76321,31.93,0,31.93,31.9" fill="#5E5B43"/>
                        <polygon  points="0,31.9,7.87486,24.1368,24.2079,24.1368,31.93,31.9" fill="#9A916C"/>
                    </g>
                </g>
            </g>
        </g>
    </g>
</svg>
