<?xml version='1.0' encoding='utf-8'?>
<!DOCTYPE svg>
<!-- Generator: Adobe Illustrator 15.1.0, SVG Export Plug-In . SVG Version: 6.00 Build 0)  -->
<svg xmlns="http://www.w3.org/2000/svg"  x="0px" gorn="0" version="1.1" height="0.322792in" viewBox="0 0 64.063 23.241" width="0.889764in" xmlns:xml="http://www.w3.org/XML/1998/namespace" id="Ebene_1" y="0px" xml:space="preserve" enable-background="new 0 0 64.063 23.241">
    <desc>
        <referenceFile>FFC_16.svg</referenceFile>
    </desc>
    <g >
        <rect  x="57.543" height="0.333" width="6.52" y="13.199" fill="#B3B3B3"/>
        <rect  x="0" height="0.333" width="6.52" y="13.199" fill="#B3B3B3"/>
        <g >
            <g >
                <rect  x="52.445" height="6.366" width="1.701" y="0" fill="#E6E6E6"/>
            </g>
            <g >
                <rect  x="49.61" height="6.366" width="1.701" y="0" fill="#E6E6E6"/>
            </g>
            <g >
                <rect  x="46.775" height="6.366" width="1.701" y="0" fill="#E6E6E6"/>
            </g>
            <g >
                <rect  x="43.94" height="6.366" width="1.701" y="0" fill="#E6E6E6"/>
            </g>
            <g >
                <rect  x="41.105" height="6.366" width="1.701" y="0" fill="#E6E6E6"/>
            </g>
            <g >
                <rect  x="38.27" height="6.366" width="1.701" y="0" fill="#E6E6E6"/>
            </g>
            <g >
                <rect  x="35.435" height="6.366" width="1.701" y="0" fill="#E6E6E6"/>
            </g>
            <g >
                <rect  x="32.6" height="6.366" width="1.701" y="0" fill="#E6E6E6"/>
            </g>
            <g >
                <rect  x="29.765" height="6.366" width="1.701" y="0" fill="#E6E6E6"/>
            </g>
            <g >
                <rect  x="26.93" height="6.366" width="1.701" y="0" fill="#E6E6E6"/>
            </g>
            <g >
                <rect  x="24.095" height="6.366" width="1.701" y="0" fill="#E6E6E6"/>
            </g>
            <g >
                <rect  x="21.26" height="6.366" width="1.701" y="0" fill="#E6E6E6"/>
            </g>
            <g >
                <rect  x="18.426" height="6.366" width="1.701" y="0" fill="#E6E6E6"/>
            </g>
            <g >
                <rect  x="15.591" height="6.366" width="1.701" y="0" fill="#E6E6E6"/>
            </g>
            <g >
                <rect  x="12.756" height="6.366" width="1.701" y="0" fill="#E6E6E6"/>
            </g>
            <g >
                <rect  x="9.921" height="6.366" width="1.701" y="0" fill="#E6E6E6"/>
            </g>
        </g>
        <g opacity="0.4" >
            <g >
                <rect  x="52.445" height="0.521" width="1.701" y="0" fill="#FFFFFF"/>
            </g>
            <g >
                <rect  x="49.61" height="0.521" width="1.701" y="0" fill="#FFFFFF"/>
            </g>
            <g >
                <rect  x="46.775" height="0.521" width="1.701" y="0" fill="#FFFFFF"/>
            </g>
            <g >
                <rect  x="43.94" height="0.521" width="1.701" y="0" fill="#FFFFFF"/>
            </g>
            <g >
                <rect  x="41.105" height="0.521" width="1.701" y="0" fill="#FFFFFF"/>
            </g>
            <g >
                <rect  x="38.27" height="0.521" width="1.701" y="0" fill="#FFFFFF"/>
            </g>
            <g >
                <rect  x="35.435" height="0.521" width="1.701" y="0" fill="#FFFFFF"/>
            </g>
            <g >
                <rect  x="32.6" height="0.521" width="1.701" y="0" fill="#FFFFFF"/>
            </g>
            <g >
                <rect  x="29.765" height="0.521" width="1.701" y="0" fill="#FFFFFF"/>
            </g>
            <g >
                <rect  x="26.93" height="0.521" width="1.701" y="0" fill="#FFFFFF"/>
            </g>
            <g >
                <rect  x="24.095" height="0.521" width="1.701" y="0" fill="#FFFFFF"/>
            </g>
            <g >
                <rect  x="21.26" height="0.521" width="1.701" y="0" fill="#FFFFFF"/>
            </g>
            <g >
                <rect  x="18.426" height="0.521" width="1.701" y="0" fill="#FFFFFF"/>
            </g>
            <g >
                <rect  x="15.591" height="0.521" width="1.701" y="0" fill="#FFFFFF"/>
            </g>
            <g >
                <rect  x="12.756" height="0.521" width="1.701" y="0" fill="#FFFFFF"/>
            </g>
            <g >
                <rect  x="9.921" height="0.521" width="1.701" y="0" fill="#FFFFFF"/>
            </g>
        </g>
        <rect  x="0" height="3.439" width="64.063" y="19.417" fill="#4D4D4D"/>
        <rect  x="0" height="0.385" width="64.063" y="22.857"/>
        <rect  x="3.26" height="2.376" width="57.543" y="19.906" fill="#CCCCCC"/>
        <rect  x="57.543" height="5.546" width="6.52" y="7.654" fill="#E6E6E6"/>
        <rect  x="0" height="5.546" width="6.52" y="7.654" fill="#E6E6E6"/>
        <rect opacity="0.4"  x="57.543" height="0.333" width="6.52" y="7.654" fill="#FFFFFF"/>
        <rect opacity="0.4"  x="0" height="0.333" width="6.52" y="7.654" fill="#FFFFFF"/>
        <rect  x="2.031" height="2.376" width="1.229" y="19.906" fill="#999999"/>
        <rect  x="60.802" height="2.376" width="1.229" y="19.906" fill="#999999"/>
        <g >
            <g >
                <rect  x="57.912" height="1.805" width="0.738" y="19.76" fill="#E6E6E6"/>
            </g>
            <g >
                <rect  x="54.412" height="1.805" width="0.738" y="19.76" fill="#E6E6E6"/>
            </g>
            <g >
                <rect  x="50.912" height="1.805" width="0.738" y="19.76" fill="#E6E6E6"/>
            </g>
            <g >
                <rect  x="47.412" height="1.805" width="0.738" y="19.76" fill="#E6E6E6"/>
            </g>
            <g >
                <rect  x="43.912" height="1.805" width="0.738" y="19.76" fill="#E6E6E6"/>
            </g>
            <g >
                <rect  x="40.412" height="1.805" width="0.738" y="19.76" fill="#E6E6E6"/>
            </g>
            <g >
                <rect  x="36.912" height="1.805" width="0.738" y="19.76" fill="#E6E6E6"/>
            </g>
            <g >
                <rect  x="33.412" height="1.805" width="0.738" y="19.76" fill="#E6E6E6"/>
            </g>
            <g >
                <rect  x="29.912" height="1.805" width="0.738" y="19.76" fill="#E6E6E6"/>
            </g>
            <g >
                <rect  x="26.412" height="1.805" width="0.738" y="19.76" fill="#E6E6E6"/>
            </g>
            <g >
                <rect  x="22.912" height="1.805" width="0.738" y="19.76" fill="#E6E6E6"/>
            </g>
            <g >
                <rect  x="19.412" height="1.805" width="0.738" y="19.76" fill="#E6E6E6"/>
            </g>
            <g >
                <rect  x="15.912" height="1.805" width="0.738" y="19.76" fill="#E6E6E6"/>
            </g>
            <g >
                <rect  x="12.412" height="1.805" width="0.738" y="19.76" fill="#E6E6E6"/>
            </g>
            <g >
                <rect  x="8.912" height="1.805" width="0.738" y="19.76" fill="#E6E6E6"/>
            </g>
            <g >
                <rect  x="5.412" height="1.805" width="0.738" y="19.76" fill="#E6E6E6"/>
            </g>
        </g>
        <polygon  points="57.543,6.032 6.519,6.032 6.519,13.199 2.031,13.199 2.031,19.906 62.031,19.906 62.031,13.199 57.543,13.199 " fill="#F2F2F2"/>
        <rect opacity="0.4"  x="57.543" height="0.333" width="4.488" y="13.199" fill="#FFFFFF"/>
        <rect opacity="0.4"  x="2.031" height="0.333" width="4.488" y="13.199" fill="#FFFFFF"/>
        <rect opacity="0.4"  x="6.519" height="0.333" width="51.023" y="6.032" fill="#FFFFFF"/>
    </g>
    <rect opacity="0.1"  x="2.031" height="0.489" width="60" y="19.417"/>
    <rect opacity="0.2"  x="3.26" height="0.489" width="57.543" y="19.906"/>
</svg>
