<?xml version='1.0' encoding='utf-8'?>
<!DOCTYPE svg>
<!-- Generator: Adobe Illustrator 15.1.0, SVG Export Plug-In . SVG Version: 6.00 Build 0)  -->
<svg xmlns="http://www.w3.org/2000/svg" version="1.1" width="0.889764in" xmlns:xml="http://www.w3.org/XML/1998/namespace" x="0px" viewBox="0 0 64.063 23.241" gorn="0" xml:space="preserve"  height="0.322792in" id="Ebene_1" y="0px" enable-background="new 0 0 64.063 23.241">
    <desc >
        <referenceFile >FFC_16.svg</referenceFile>
    </desc>
    <g >
        <rect width="6.52" x="57.543"  height="0.333" y="13.199" fill="#B3B3B3"/>
        <rect width="6.52" x="0"  height="0.333" y="13.199" fill="#B3B3B3"/>
        <g >
            <g >
                <rect width="1.701" x="52.445"  height="6.366" y="0" fill="#E6E6E6"/>
            </g>
            <g >
                <rect width="1.701" x="49.61"  height="6.366" y="0" fill="#E6E6E6"/>
            </g>
            <g >
                <rect width="1.701" x="46.775"  height="6.366" y="0" fill="#E6E6E6"/>
            </g>
            <g >
                <rect width="1.701" x="43.94"  height="6.366" y="0" fill="#E6E6E6"/>
            </g>
            <g >
                <rect width="1.701" x="41.105"  height="6.366" y="0" fill="#E6E6E6"/>
            </g>
            <g >
                <rect width="1.701" x="38.27"  height="6.366" y="0" fill="#E6E6E6"/>
            </g>
            <g >
                <rect width="1.701" x="35.435"  height="6.366" y="0" fill="#E6E6E6"/>
            </g>
            <g >
                <rect width="1.701" x="32.6"  height="6.366" y="0" fill="#E6E6E6"/>
            </g>
            <g >
                <rect width="1.701" x="29.765"  height="6.366" y="0" fill="#E6E6E6"/>
            </g>
            <g >
                <rect width="1.701" x="26.93"  height="6.366" y="0" fill="#E6E6E6"/>
            </g>
            <g >
                <rect width="1.701" x="24.095"  height="6.366" y="0" fill="#E6E6E6"/>
            </g>
            <g >
                <rect width="1.701" x="21.26"  height="6.366" y="0" fill="#E6E6E6"/>
            </g>
            <g >
                <rect width="1.701" x="18.426"  height="6.366" y="0" fill="#E6E6E6"/>
            </g>
            <g >
                <rect width="1.701" x="15.591"  height="6.366" y="0" fill="#E6E6E6"/>
            </g>
            <g >
                <rect width="1.701" x="12.756"  height="6.366" y="0" fill="#E6E6E6"/>
            </g>
            <g >
                <rect width="1.701" x="9.921"  height="6.366" y="0" fill="#E6E6E6"/>
            </g>
        </g>
        <g opacity="0.4" >
            <g >
                <rect width="1.701" x="52.445"  height="0.521" y="0" fill="#FFFFFF"/>
            </g>
            <g >
                <rect width="1.701" x="49.61"  height="0.521" y="0" fill="#FFFFFF"/>
            </g>
            <g >
                <rect width="1.701" x="46.775"  height="0.521" y="0" fill="#FFFFFF"/>
            </g>
            <g >
                <rect width="1.701" x="43.94"  height="0.521" y="0" fill="#FFFFFF"/>
            </g>
            <g >
                <rect width="1.701" x="41.105"  height="0.521" y="0" fill="#FFFFFF"/>
            </g>
            <g >
                <rect width="1.701" x="38.27"  height="0.521" y="0" fill="#FFFFFF"/>
            </g>
            <g >
                <rect width="1.701" x="35.435"  height="0.521" y="0" fill="#FFFFFF"/>
            </g>
            <g >
                <rect width="1.701" x="32.6"  height="0.521" y="0" fill="#FFFFFF"/>
            </g>
            <g >
                <rect width="1.701" x="29.765"  height="0.521" y="0" fill="#FFFFFF"/>
            </g>
            <g >
                <rect width="1.701" x="26.93"  height="0.521" y="0" fill="#FFFFFF"/>
            </g>
            <g >
                <rect width="1.701" x="24.095"  height="0.521" y="0" fill="#FFFFFF"/>
            </g>
            <g >
                <rect width="1.701" x="21.26"  height="0.521" y="0" fill="#FFFFFF"/>
            </g>
            <g >
                <rect width="1.701" x="18.426"  height="0.521" y="0" fill="#FFFFFF"/>
            </g>
            <g >
                <rect width="1.701" x="15.591"  height="0.521" y="0" fill="#FFFFFF"/>
            </g>
            <g >
                <rect width="1.701" x="12.756"  height="0.521" y="0" fill="#FFFFFF"/>
            </g>
            <g >
                <rect width="1.701" x="9.921"  height="0.521" y="0" fill="#FFFFFF"/>
            </g>
        </g>
        <rect width="64.063" x="0"  height="3.439" y="19.417" fill="#4D4D4D"/>
        <rect width="64.063" x="0"  height="0.385" y="22.857"/>
        <rect width="57.543" x="3.26"  height="2.376" y="19.906" fill="#CCCCCC"/>
        <rect width="6.52" x="57.543"  height="5.546" y="7.654" fill="#E6E6E6"/>
        <rect width="6.52" x="0"  height="5.546" y="7.654" fill="#E6E6E6"/>
        <rect width="6.52" x="57.543" opacity="0.4"  height="0.333" y="7.654" fill="#FFFFFF"/>
        <rect width="6.52" x="0" opacity="0.4"  height="0.333" y="7.654" fill="#FFFFFF"/>
        <rect width="1.229" x="2.031"  height="2.376" y="19.906" fill="#999999"/>
        <rect width="1.229" x="60.802"  height="2.376" y="19.906" fill="#999999"/>
        <g >
            <g >
                <rect width="0.738" x="57.912"  height="1.805" y="19.76" fill="#E6E6E6"/>
            </g>
            <g >
                <rect width="0.738" x="54.412"  height="1.805" y="19.76" fill="#E6E6E6"/>
            </g>
            <g >
                <rect width="0.738" x="50.912"  height="1.805" y="19.76" fill="#E6E6E6"/>
            </g>
            <g >
                <rect width="0.738" x="47.412"  height="1.805" y="19.76" fill="#E6E6E6"/>
            </g>
            <g >
                <rect width="0.738" x="43.912"  height="1.805" y="19.76" fill="#E6E6E6"/>
            </g>
            <g >
                <rect width="0.738" x="40.412"  height="1.805" y="19.76" fill="#E6E6E6"/>
            </g>
            <g >
                <rect width="0.738" x="36.912"  height="1.805" y="19.76" fill="#E6E6E6"/>
            </g>
            <g >
                <rect width="0.738" x="33.412"  height="1.805" y="19.76" fill="#E6E6E6"/>
            </g>
            <g >
                <rect width="0.738" x="29.912"  height="1.805" y="19.76" fill="#E6E6E6"/>
            </g>
            <g >
                <rect width="0.738" x="26.412"  height="1.805" y="19.76" fill="#E6E6E6"/>
            </g>
            <g >
                <rect width="0.738" x="22.912"  height="1.805" y="19.76" fill="#E6E6E6"/>
            </g>
            <g >
                <rect width="0.738" x="19.412"  height="1.805" y="19.76" fill="#E6E6E6"/>
            </g>
            <g >
                <rect width="0.738" x="15.912"  height="1.805" y="19.76" fill="#E6E6E6"/>
            </g>
            <g >
                <rect width="0.738" x="12.412"  height="1.805" y="19.76" fill="#E6E6E6"/>
            </g>
            <g >
                <rect width="0.738" x="8.912"  height="1.805" y="19.76" fill="#E6E6E6"/>
            </g>
            <g >
                <rect width="0.738" x="5.412"  height="1.805" y="19.76" fill="#E6E6E6"/>
            </g>
        </g>
        <polygon  points="57.543,6.032 6.519,6.032 6.519,13.199 2.031,13.199 2.031,19.906 62.031,19.906 62.031,13.199 57.543,13.199 " fill="#F2F2F2"/>
        <rect width="4.488" x="57.543" opacity="0.4"  height="0.333" y="13.199" fill="#FFFFFF"/>
        <rect width="4.488" x="2.031" opacity="0.4"  height="0.333" y="13.199" fill="#FFFFFF"/>
        <rect width="51.023" x="6.519" opacity="0.4"  height="0.333" y="6.032" fill="#FFFFFF"/>
    </g>
    <rect width="60" x="2.031" opacity="0.1"  height="0.489" y="19.417"/>
    <rect width="57.543" x="3.26" opacity="0.2"  height="0.489" y="19.906"/>
</svg>
