<?xml version='1.0' encoding='UTF-8' standalone='no'?>
<!-- Created with Fritzing (http://www.fritzing.org/) -->
<svg xmlns="http://www.w3.org/2000/svg" version="1.2" width="1.08976in" x="0in" viewBox="0 0 1089.76 600"  height="0.6in" y="0in" baseProfile="tiny">
    <desc >
        <referenceFile >sparkfun-connectors_ffc_16_breadboard.svg</referenceFile>
    </desc>
    <desc >Fritzing breadboard generated by brd2svg</desc>
    <g gorn="0.2"  id="breadboard">
        <g gorn="0.2.0"  id="icon">
            <path stroke="none" stroke-width="0" d="M0,0L0,270A30,30 0 0 1 0,330L0,600L1089.76,600L1089.76,0L0,0z"  fill="#1F7A34"/>
            <g transform="translate(100,138.604)" >
                <g >
                    <g >
                        <g >
                            <rect width="90.5556" x="799.208"  height="4.625" y="183.319" fill="#B3B3B3"/>
                            <rect width="90.5556" x="0"  height="4.625" y="183.319" fill="#B3B3B3"/>
                            <g >
                                <g >
                                    <rect width="23.625" x="728.403"  height="88.4167" y="0" fill="#E6E6E6"/>
                                </g>
                                <g >
                                    <rect width="23.625" x="689.028"  height="88.4167" y="0" fill="#E6E6E6"/>
                                </g>
                                <g >
                                    <rect width="23.625" x="649.653"  height="88.4167" y="0" fill="#E6E6E6"/>
                                </g>
                                <g >
                                    <rect width="23.625" x="610.278"  height="88.4167" y="0" fill="#E6E6E6"/>
                                </g>
                                <g >
                                    <rect width="23.625" x="570.903"  height="88.4167" y="0" fill="#E6E6E6"/>
                                </g>
                                <g >
                                    <rect width="23.625" x="531.528"  height="88.4167" y="0" fill="#E6E6E6"/>
                                </g>
                                <g >
                                    <rect width="23.625" x="492.153"  height="88.4167" y="0" fill="#E6E6E6"/>
                                </g>
                                <g >
                                    <rect width="23.625" x="452.778"  height="88.4167" y="0" fill="#E6E6E6"/>
                                </g>
                                <g >
                                    <rect width="23.625" x="413.403"  height="88.4167" y="0" fill="#E6E6E6"/>
                                </g>
                                <g >
                                    <rect width="23.625" x="374.028"  height="88.4167" y="0" fill="#E6E6E6"/>
                                </g>
                                <g >
                                    <rect width="23.625" x="334.653"  height="88.4167" y="0" fill="#E6E6E6"/>
                                </g>
                                <g >
                                    <rect width="23.625" x="295.278"  height="88.4167" y="0" fill="#E6E6E6"/>
                                </g>
                                <g >
                                    <rect width="23.625" x="255.917"  height="88.4167" y="0" fill="#E6E6E6"/>
                                </g>
                                <g >
                                    <rect width="23.625" x="216.542"  height="88.4167" y="0" fill="#E6E6E6"/>
                                </g>
                                <g >
                                    <rect width="23.625" x="177.167"  height="88.4167" y="0" fill="#E6E6E6"/>
                                </g>
                                <g >
                                    <rect width="23.625" x="137.792"  height="88.4167" y="0" fill="#E6E6E6"/>
                                </g>
                            </g>
                            <g opacity="0.4" >
                                <g >
                                    <rect width="23.625" x="728.403"  height="7.23611" y="0" fill="#FFFFFF"/>
                                </g>
                                <g >
                                    <rect width="23.625" x="689.028"  height="7.23611" y="0" fill="#FFFFFF"/>
                                </g>
                                <g >
                                    <rect width="23.625" x="649.653"  height="7.23611" y="0" fill="#FFFFFF"/>
                                </g>
                                <g >
                                    <rect width="23.625" x="610.278"  height="7.23611" y="0" fill="#FFFFFF"/>
                                </g>
                                <g >
                                    <rect width="23.625" x="570.903"  height="7.23611" y="0" fill="#FFFFFF"/>
                                </g>
                                <g >
                                    <rect width="23.625" x="531.528"  height="7.23611" y="0" fill="#FFFFFF"/>
                                </g>
                                <g >
                                    <rect width="23.625" x="492.153"  height="7.23611" y="0" fill="#FFFFFF"/>
                                </g>
                                <g >
                                    <rect width="23.625" x="452.778"  height="7.23611" y="0" fill="#FFFFFF"/>
                                </g>
                                <g >
                                    <rect width="23.625" x="413.403"  height="7.23611" y="0" fill="#FFFFFF"/>
                                </g>
                                <g >
                                    <rect width="23.625" x="374.028"  height="7.23611" y="0" fill="#FFFFFF"/>
                                </g>
                                <g >
                                    <rect width="23.625" x="334.653"  height="7.23611" y="0" fill="#FFFFFF"/>
                                </g>
                                <g >
                                    <rect width="23.625" x="295.278"  height="7.23611" y="0" fill="#FFFFFF"/>
                                </g>
                                <g >
                                    <rect width="23.625" x="255.917"  height="7.23611" y="0" fill="#FFFFFF"/>
                                </g>
                                <g >
                                    <rect width="23.625" x="216.542"  height="7.23611" y="0" fill="#FFFFFF"/>
                                </g>
                                <g >
                                    <rect width="23.625" x="177.167"  height="7.23611" y="0" fill="#FFFFFF"/>
                                </g>
                                <g >
                                    <rect width="23.625" x="137.792"  height="7.23611" y="0" fill="#FFFFFF"/>
                                </g>
                            </g>
                            <rect width="889.764" x="0"  height="47.7639" y="269.681" fill="#4D4D4D"/>
                            <rect width="889.764" x="0"  height="5.34722" y="317.458"/>
                            <rect width="799.208" x="45.2778"  height="33" y="276.472" fill="#CCCCCC"/>
                            <rect width="90.5556" x="799.208"  height="77.0278" y="106.306" fill="#E6E6E6"/>
                            <rect width="90.5556" x="0"  height="77.0278" y="106.306" fill="#E6E6E6"/>
                            <rect width="90.5556" x="799.208" opacity="0.4"  height="4.625" y="106.306" fill="#FFFFFF"/>
                            <rect width="90.5556" x="0" opacity="0.4"  height="4.625" y="106.306" fill="#FFFFFF"/>
                            <rect width="17.0694" x="28.2083"  height="33" y="276.472" fill="#999999"/>
                            <rect width="17.0694" x="844.472"  height="33" y="276.472" fill="#999999"/>
                            <g >
                                <g >
                                    <rect width="10.25" x="804.333"  height="25.0694" y="274.444" fill="#E6E6E6"/>
                                </g>
                                <g >
                                    <rect width="10.25" x="755.722"  height="25.0694" y="274.444" fill="#E6E6E6"/>
                                </g>
                                <g >
                                    <rect width="10.25" x="707.111"  height="25.0694" y="274.444" fill="#E6E6E6"/>
                                </g>
                                <g >
                                    <rect width="10.25" x="658.5"  height="25.0694" y="274.444" fill="#E6E6E6"/>
                                </g>
                                <g >
                                    <rect width="10.25" x="609.889"  height="25.0694" y="274.444" fill="#E6E6E6"/>
                                </g>
                                <g >
                                    <rect width="10.25" x="561.278"  height="25.0694" y="274.444" fill="#E6E6E6"/>
                                </g>
                                <g >
                                    <rect width="10.25" x="512.667"  height="25.0694" y="274.444" fill="#E6E6E6"/>
                                </g>
                                <g >
                                    <rect width="10.25" x="464.056"  height="25.0694" y="274.444" fill="#E6E6E6"/>
                                </g>
                                <g >
                                    <rect width="10.25" x="415.444"  height="25.0694" y="274.444" fill="#E6E6E6"/>
                                </g>
                                <g >
                                    <rect width="10.25" x="366.833"  height="25.0694" y="274.444" fill="#E6E6E6"/>
                                </g>
                                <g >
                                    <rect width="10.25" x="318.222"  height="25.0694" y="274.444" fill="#E6E6E6"/>
                                </g>
                                <g >
                                    <rect width="10.25" x="269.611"  height="25.0694" y="274.444" fill="#E6E6E6"/>
                                </g>
                                <g >
                                    <rect width="10.25" x="221"  height="25.0694" y="274.444" fill="#E6E6E6"/>
                                </g>
                                <g >
                                    <rect width="10.25" x="172.389"  height="25.0694" y="274.444" fill="#E6E6E6"/>
                                </g>
                                <g >
                                    <rect width="10.25" x="123.778"  height="25.0694" y="274.444" fill="#E6E6E6"/>
                                </g>
                                <g >
                                    <rect width="10.25" x="75.1667"  height="25.0694" y="274.444" fill="#E6E6E6"/>
                                </g>
                            </g>
                            <polygon  points="799.208,83.7778,90.5417,83.7778,90.5417,183.319,28.2083,183.319,28.2083,276.472,861.542,276.472,861.542,183.319,799.208,183.319" fill="#F2F2F2"/>
                            <rect width="62.3333" x="799.208" opacity="0.4"  height="4.625" y="183.319" fill="#FFFFFF"/>
                            <rect width="62.3333" x="28.2083" opacity="0.4"  height="4.625" y="183.319" fill="#FFFFFF"/>
                            <rect width="708.653" x="90.5417" opacity="0.4"  height="4.625" y="83.7778" fill="#FFFFFF"/>
                        </g>
                        <rect width="833.333" x="28.2083" opacity="0.1"  height="6.79167" y="269.681"/>
                        <rect width="799.208" x="45.2778" opacity="0.2"  height="6.79167" y="276.472"/>
                    </g>
                </g>
            </g>
        </g>
        <g transform="translate(178.917,534.05)" >
            <g >
                <g >
                    <rect width="31.93" x="0" gorn="0.2.1.0.0.0"  height="31.9" id="connector0pin" y="0" fill="#8D8C8C"/>
                    <rect width="16.4442" x="7.79153"  height="16.4152" y="7.73544" fill="#8C8663"/>
                    <polygon  points="0,31.9,7.79153,24.1368,7.79153,6.97162,0,0" fill="#B8AF82"/>
                    <polygon  points="24.2079,7.76321,7.90264,7.76321,0,0,31.93,0" fill="#80795B"/>
                    <polygon  points="24.2079,24.1368,24.2079,7.76321,31.93,0,31.93,31.9" fill="#5E5B43"/>
                    <polygon  points="0,31.9,7.87486,24.1368,24.2079,24.1368,31.93,31.9" fill="#9A916C"/>
                </g>
            </g>
        </g>
        <g transform="translate(178.917,34.05)" >
            <g >
                <g >
                    <rect width="31.93" x="0" gorn="0.2.2.0.0.0"  height="31.9" id="connector15pin" y="0" fill="#8D8C8C"/>
                    <rect width="16.4442" x="7.79153"  height="16.4152" y="7.73544" fill="#8C8663"/>
                    <polygon  points="0,31.9,7.79153,24.1368,7.79153,6.97162,0,0" fill="#B8AF82"/>
                    <polygon  points="24.2079,7.76321,7.90264,7.76321,0,0,31.93,0" fill="#80795B"/>
                    <polygon  points="24.2079,24.1368,24.2079,7.76321,31.93,0,31.93,31.9" fill="#5E5B43"/>
                    <polygon  points="0,31.9,7.87486,24.1368,24.2079,24.1368,31.93,31.9" fill="#9A916C"/>
                </g>
            </g>
        </g>
        <g transform="translate(278.917,534.05)" >
            <g >
                <g >
                    <rect width="31.93" x="0" gorn="0.2.3.0.0.0"  height="31.9" id="connector1pin" y="0" fill="#8D8C8C"/>
                    <rect width="16.4442" x="7.79153"  height="16.4152" y="7.73544" fill="#8C8663"/>
                    <polygon  points="0,31.9,7.79153,24.1368,7.79153,6.97162,0,0" fill="#B8AF82"/>
                    <polygon  points="24.2079,7.76321,7.90264,7.76321,0,0,31.93,0" fill="#80795B"/>
                    <polygon  points="24.2079,24.1368,24.2079,7.76321,31.93,0,31.93,31.9" fill="#5E5B43"/>
                    <polygon  points="0,31.9,7.87486,24.1368,24.2079,24.1368,31.93,31.9" fill="#9A916C"/>
                </g>
            </g>
        </g>
        <g transform="translate(278.917,34.05)" >
            <g >
                <g >
                    <rect width="31.93" x="0" gorn="0.2.4.0.0.0"  height="31.9" id="connector14pin" y="0" fill="#8D8C8C"/>
                    <rect width="16.4442" x="7.79153"  height="16.4152" y="7.73544" fill="#8C8663"/>
                    <polygon  points="0,31.9,7.79153,24.1368,7.79153,6.97162,0,0" fill="#B8AF82"/>
                    <polygon  points="24.2079,7.76321,7.90264,7.76321,0,0,31.93,0" fill="#80795B"/>
                    <polygon  points="24.2079,24.1368,24.2079,7.76321,31.93,0,31.93,31.9" fill="#5E5B43"/>
                    <polygon  points="0,31.9,7.87486,24.1368,24.2079,24.1368,31.93,31.9" fill="#9A916C"/>
                </g>
            </g>
        </g>
        <g transform="translate(378.917,534.05)" >
            <g >
                <g >
                    <rect width="31.93" x="0" gorn="0.2.5.0.0.0"  height="31.9" id="connector2pin" y="0" fill="#8D8C8C"/>
                    <rect width="16.4442" x="7.79153"  height="16.4152" y="7.73544" fill="#8C8663"/>
                    <polygon  points="0,31.9,7.79153,24.1368,7.79153,6.97162,0,0" fill="#B8AF82"/>
                    <polygon  points="24.2079,7.76321,7.90264,7.76321,0,0,31.93,0" fill="#80795B"/>
                    <polygon  points="24.2079,24.1368,24.2079,7.76321,31.93,0,31.93,31.9" fill="#5E5B43"/>
                    <polygon  points="0,31.9,7.87486,24.1368,24.2079,24.1368,31.93,31.9" fill="#9A916C"/>
                </g>
            </g>
        </g>
        <g transform="translate(378.917,34.05)" >
            <g >
                <g >
                    <rect width="31.93" x="0" gorn="0.2.6.0.0.0"  height="31.9" id="connector13pin" y="0" fill="#8D8C8C"/>
                    <rect width="16.4442" x="7.79153"  height="16.4152" y="7.73544" fill="#8C8663"/>
                    <polygon  points="0,31.9,7.79153,24.1368,7.79153,6.97162,0,0" fill="#B8AF82"/>
                    <polygon  points="24.2079,7.76321,7.90264,7.76321,0,0,31.93,0" fill="#80795B"/>
                    <polygon  points="24.2079,24.1368,24.2079,7.76321,31.93,0,31.93,31.9" fill="#5E5B43"/>
                    <polygon  points="0,31.9,7.87486,24.1368,24.2079,24.1368,31.93,31.9" fill="#9A916C"/>
                </g>
            </g>
        </g>
        <g transform="translate(478.917,534.05)" >
            <g >
                <g >
                    <rect width="31.93" x="0" gorn="0.2.7.0.0.0"  height="31.9" id="connector3pin" y="0" fill="#8D8C8C"/>
                    <rect width="16.4442" x="7.79153"  height="16.4152" y="7.73544" fill="#8C8663"/>
                    <polygon  points="0,31.9,7.79153,24.1368,7.79153,6.97162,0,0" fill="#B8AF82"/>
                    <polygon  points="24.2079,7.76321,7.90264,7.76321,0,0,31.93,0" fill="#80795B"/>
                    <polygon  points="24.2079,24.1368,24.2079,7.76321,31.93,0,31.93,31.9" fill="#5E5B43"/>
                    <polygon  points="0,31.9,7.87486,24.1368,24.2079,24.1368,31.93,31.9" fill="#9A916C"/>
                </g>
            </g>
        </g>
        <g transform="translate(478.917,34.05)" >
            <g >
                <g >
                    <rect width="31.93" x="0" gorn="0.2.8.0.0.0"  height="31.9" id="connector12pin" y="0" fill="#8D8C8C"/>
                    <rect width="16.4442" x="7.79153"  height="16.4152" y="7.73544" fill="#8C8663"/>
                    <polygon  points="0,31.9,7.79153,24.1368,7.79153,6.97162,0,0" fill="#B8AF82"/>
                    <polygon  points="24.2079,7.76321,7.90264,7.76321,0,0,31.93,0" fill="#80795B"/>
                    <polygon  points="24.2079,24.1368,24.2079,7.76321,31.93,0,31.93,31.9" fill="#5E5B43"/>
                    <polygon  points="0,31.9,7.87486,24.1368,24.2079,24.1368,31.93,31.9" fill="#9A916C"/>
                </g>
            </g>
        </g>
        <g transform="translate(578.917,534.05)" >
            <g >
                <g >
                    <rect width="31.93" x="0" gorn="0.2.9.0.0.0"  height="31.9" id="connector4pin" y="0" fill="#8D8C8C"/>
                    <rect width="16.4442" x="7.79153"  height="16.4152" y="7.73544" fill="#8C8663"/>
                    <polygon  points="0,31.9,7.79153,24.1368,7.79153,6.97162,0,0" fill="#B8AF82"/>
                    <polygon  points="24.2079,7.76321,7.90264,7.76321,0,0,31.93,0" fill="#80795B"/>
                    <polygon  points="24.2079,24.1368,24.2079,7.76321,31.93,0,31.93,31.9" fill="#5E5B43"/>
                    <polygon  points="0,31.9,7.87486,24.1368,24.2079,24.1368,31.93,31.9" fill="#9A916C"/>
                </g>
            </g>
        </g>
        <g transform="translate(578.917,34.05)" >
            <g >
                <g >
                    <rect width="31.93" x="0" gorn="0.2.10.0.0.0"  height="31.9" id="connector11pin" y="0" fill="#8D8C8C"/>
                    <rect width="16.4442" x="7.79153"  height="16.4152" y="7.73544" fill="#8C8663"/>
                    <polygon  points="0,31.9,7.79153,24.1368,7.79153,6.97162,0,0" fill="#B8AF82"/>
                    <polygon  points="24.2079,7.76321,7.90264,7.76321,0,0,31.93,0" fill="#80795B"/>
                    <polygon  points="24.2079,24.1368,24.2079,7.76321,31.93,0,31.93,31.9" fill="#5E5B43"/>
                    <polygon  points="0,31.9,7.87486,24.1368,24.2079,24.1368,31.93,31.9" fill="#9A916C"/>
                </g>
            </g>
        </g>
        <g transform="translate(678.917,534.05)" >
            <g >
                <g >
                    <rect width="31.93" x="0" gorn="0.2.11.0.0.0"  height="31.9" id="connector5pin" y="0" fill="#8D8C8C"/>
                    <rect width="16.4442" x="7.79153"  height="16.4152" y="7.73544" fill="#8C8663"/>
                    <polygon  points="0,31.9,7.79153,24.1368,7.79153,6.97162,0,0" fill="#B8AF82"/>
                    <polygon  points="24.2079,7.76321,7.90264,7.76321,0,0,31.93,0" fill="#80795B"/>
                    <polygon  points="24.2079,24.1368,24.2079,7.76321,31.93,0,31.93,31.9" fill="#5E5B43"/>
                    <polygon  points="0,31.9,7.87486,24.1368,24.2079,24.1368,31.93,31.9" fill="#9A916C"/>
                </g>
            </g>
        </g>
        <g transform="translate(678.917,34.05)" >
            <g >
                <g >
                    <rect width="31.93" x="0" gorn="0.2.12.0.0.0"  height="31.9" id="connector10pin" y="0" fill="#8D8C8C"/>
                    <rect width="16.4442" x="7.79153"  height="16.4152" y="7.73544" fill="#8C8663"/>
                    <polygon  points="0,31.9,7.79153,24.1368,7.79153,6.97162,0,0" fill="#B8AF82"/>
                    <polygon  points="24.2079,7.76321,7.90264,7.76321,0,0,31.93,0" fill="#80795B"/>
                    <polygon  points="24.2079,24.1368,24.2079,7.76321,31.93,0,31.93,31.9" fill="#5E5B43"/>
                    <polygon  points="0,31.9,7.87486,24.1368,24.2079,24.1368,31.93,31.9" fill="#9A916C"/>
                </g>
            </g>
        </g>
        <g transform="translate(778.917,534.05)" >
            <g >
                <g >
                    <rect width="31.93" x="0" gorn="0.2.13.0.0.0"  height="31.9" id="connector6pin" y="0" fill="#8D8C8C"/>
                    <rect width="16.4442" x="7.79153"  height="16.4152" y="7.73544" fill="#8C8663"/>
                    <polygon  points="0,31.9,7.79153,24.1368,7.79153,6.97162,0,0" fill="#B8AF82"/>
                    <polygon  points="24.2079,7.76321,7.90264,7.76321,0,0,31.93,0" fill="#80795B"/>
                    <polygon  points="24.2079,24.1368,24.2079,7.76321,31.93,0,31.93,31.9" fill="#5E5B43"/>
                    <polygon  points="0,31.9,7.87486,24.1368,24.2079,24.1368,31.93,31.9" fill="#9A916C"/>
                </g>
            </g>
        </g>
        <g transform="translate(778.917,34.05)" >
            <g >
                <g >
                    <rect width="31.93" x="0" gorn="0.2.14.0.0.0"  height="31.9" id="connector9pin" y="0" fill="#8D8C8C"/>
                    <rect width="16.4442" x="7.79153"  height="16.4152" y="7.73544" fill="#8C8663"/>
                    <polygon  points="0,31.9,7.79153,24.1368,7.79153,6.97162,0,0" fill="#B8AF82"/>
                    <polygon  points="24.2079,7.76321,7.90264,7.76321,0,0,31.93,0" fill="#80795B"/>
                    <polygon  points="24.2079,24.1368,24.2079,7.76321,31.93,0,31.93,31.9" fill="#5E5B43"/>
                    <polygon  points="0,31.9,7.87486,24.1368,24.2079,24.1368,31.93,31.9" fill="#9A916C"/>
                </g>
            </g>
        </g>
        <g transform="translate(878.917,534.05)" >
            <g >
                <g >
                    <rect width="31.93" x="0" gorn="0.2.15.0.0.0"  height="31.9" id="connector7pin" y="0" fill="#8D8C8C"/>
                    <rect width="16.4442" x="7.79153"  height="16.4152" y="7.73544" fill="#8C8663"/>
                    <polygon  points="0,31.9,7.79153,24.1368,7.79153,6.97162,0,0" fill="#B8AF82"/>
                    <polygon  points="24.2079,7.76321,7.90264,7.76321,0,0,31.93,0" fill="#80795B"/>
                    <polygon  points="24.2079,24.1368,24.2079,7.76321,31.93,0,31.93,31.9" fill="#5E5B43"/>
                    <polygon  points="0,31.9,7.87486,24.1368,24.2079,24.1368,31.93,31.9" fill="#9A916C"/>
                </g>
            </g>
        </g>
        <g transform="translate(878.917,34.05)" >
            <g >
                <g >
                    <rect width="31.93" x="0" gorn="0.2.16.0.0.0"  height="31.9" id="connector8pin" y="0" fill="#8D8C8C"/>
                    <rect width="16.4442" x="7.79153"  height="16.4152" y="7.73544" fill="#8C8663"/>
                    <polygon  points="0,31.9,7.79153,24.1368,7.79153,6.97162,0,0" fill="#B8AF82"/>
                    <polygon  points="24.2079,7.76321,7.90264,7.76321,0,0,31.93,0" fill="#80795B"/>
                    <polygon  points="24.2079,24.1368,24.2079,7.76321,31.93,0,31.93,31.9" fill="#5E5B43"/>
                    <polygon  points="0,31.9,7.87486,24.1368,24.2079,24.1368,31.93,31.9" fill="#9A916C"/>
                </g>
            </g>
        </g>
    </g>
</svg>
